<?xml version="1.0" encoding="UTF-8"?> <svg xmlns="http://www.w3.org/2000/svg" width="50" height="50" viewBox="0 0 50 50" fill="none"> <path d="M31.1593 36.3926C30.7802 36.2342 30.3439 36.4099 30.1836 36.7886C29.2993 38.8809 27.2605 40.2323 24.9906 40.2323C22.8263 40.2323 20.8268 38.9668 19.8968 37.0089C19.7206 36.6382 19.2774 36.4789 18.9047 36.6561C18.533 36.8318 18.3752 37.2764 18.5519 37.6476C19.727 40.1221 22.2546 41.7211 24.9906 41.7211C27.8605 41.7211 30.4372 40.0124 31.5553 37.3682C31.7151 36.9896 31.5385 36.5529 31.1593 36.3926Z" fill="white"></path> <path d="M21.3275 29.3469C21.602 29.0407 21.5762 28.5702 21.27 28.2958C20.9633 28.0213 20.4938 28.0472 20.2189 28.3534C19.3052 29.3732 18.3911 29.871 17.4928 29.8253C16.1022 29.7588 15.1037 28.4258 15.0928 28.4109C14.8511 28.0794 14.3871 28.0065 14.0551 28.2472C13.7221 28.4883 13.6481 28.9543 13.8893 29.2873C13.9459 29.3653 15.3017 31.203 17.4069 31.3117C17.4734 31.3151 17.5394 31.3171 17.6055 31.3171C18.9042 31.3171 20.1558 30.6551 21.3275 29.3469Z" fill="white"></path> <path d="M34.6357 28.3534C33.7226 29.3727 32.805 29.873 31.9097 29.8253C30.5231 29.7593 29.5256 28.4347 29.5077 28.4109C29.266 28.0794 28.8005 28.007 28.4695 28.2476C28.1365 28.4888 28.063 28.9543 28.3042 29.2873C28.3608 29.3653 29.7176 31.2035 31.8243 31.3117C31.8903 31.3156 31.9563 31.3171 32.0218 31.3171C33.3211 31.3171 34.5727 30.6551 35.7444 29.3469C36.0189 29.0407 35.993 28.5702 35.6868 28.2958C35.3806 28.0208 34.9092 28.0471 34.6357 28.3534Z" fill="white"></path> <path d="M42.3638 21.9405C42.2466 19.9097 41.6154 14.4893 38.2164 11.3017C36.3449 9.54641 33.9394 8.75435 31.0705 8.94889C29.3995 9.06204 27.8754 9.19554 26.5305 9.31266C18.1563 10.0457 15.6293 10.266 13.0461 3.06998C12.932 2.75038 12.6005 2.54988 12.2605 2.58164C12.1633 2.59107 12.0685 2.61936 11.9816 2.66502C11.7638 2.78015 6.62878 5.55286 5.12754 11.1161C4.2129 14.5047 4.85608 18.1543 7.03722 21.9757C3.81886 22.4744 1.34491 25.2551 1.34491 28.6099C1.34491 32.3196 4.36079 35.3375 8.06799 35.3375H8.55186C11.1127 42.1871 17.4586 47.0511 24.868 47.0511C32.2754 47.0511 38.6193 42.1876 41.1796 35.3375H41.5618C45.268 35.3375 48.2834 32.3196 48.2834 28.6099C48.2829 25.1747 45.6918 22.337 42.3638 21.9405ZM6.56079 11.5176C7.5722 7.75038 10.5777 5.35683 11.9638 4.42432C14.8715 11.8263 18.4422 11.5137 26.66 10.7955C27.9975 10.6784 29.5141 10.5459 31.1712 10.4338C33.6084 10.2675 35.6362 10.9246 37.1945 12.3836C40.2486 15.2442 40.7871 20.4352 40.8819 22.1558C34.3593 23.6134 32.1087 16.6447 32.0144 16.34C31.931 16.0685 31.7002 15.868 31.4198 15.8233C31.137 15.7787 30.8576 15.8978 30.6938 16.1305C26.5459 22.0303 19.7737 23.2715 17.0546 23.5315C13.4918 23.8715 10.1662 23.2179 8.72357 21.9017C6.43523 18.1916 5.70719 14.6978 6.56079 11.5176ZM2.83374 28.6099C2.83374 25.9722 4.79751 23.7906 7.33846 23.4338V28.6099C7.33846 30.4293 7.59404 32.1866 8.06302 33.8481C5.17915 33.8457 2.83374 31.4968 2.83374 28.6099ZM24.8675 45.5623C16.0228 45.5623 8.82729 37.9578 8.82729 28.6104V23.7787C10.3851 24.6397 12.6139 25.1137 15.1439 25.1137C15.8094 25.1137 16.4963 25.0809 17.1965 25.0139C19.9529 24.7504 26.5866 23.5439 31.1102 18.0412C32.202 20.3246 35.126 24.7945 40.9032 23.67V28.6104C40.9032 37.9573 33.7097 45.5623 24.8675 45.5623ZM41.669 33.8432C42.137 32.1831 42.3921 30.4278 42.3921 28.6099V23.4486C44.8829 23.8472 46.794 26.0065 46.794 28.6099C46.794 31.462 44.5042 33.7851 41.669 33.8432Z" fill="white"></path> </svg> 