<?xml version="1.0" encoding="UTF-8"?> <svg xmlns="http://www.w3.org/2000/svg" width="50" height="50" viewBox="0 0 50 50" fill="none"> <path d="M20.816 36.4871C24.64 36.4871 27.7515 33.3755 27.7515 29.5515C27.7515 25.7274 24.64 22.6159 20.816 22.6159C16.992 22.6159 13.8805 25.7274 13.8805 29.5515C13.8805 33.3755 16.992 36.4871 20.816 36.4871ZM20.816 24.1106C23.8159 24.1106 26.2568 26.551 26.2568 29.5515C26.2568 32.5519 23.8164 34.9923 20.816 34.9923C17.8156 34.9923 15.3752 32.5519 15.3752 29.5515C15.3752 26.551 17.8156 24.1106 20.816 24.1106Z" fill="white"></path> <path d="M6.96791 23.3633H5.47319V35.7397H6.96791V23.3633Z" fill="white"></path> <path d="M35.9242 23.3633H34.4295V35.7397H35.9242V23.3633Z" fill="white"></path> <path d="M48.1715 9.57131H10.1811V14.0047H6.09499V18.8506H1.65317V40.2523H39.6436V35.4064H44.0854V30.973H48.171V9.57131H48.1715ZM38.1488 38.7576H3.14789V20.3454H38.1488V38.7576ZM42.5907 33.9121H39.6436V18.8506H7.58971V15.4994H42.5912L42.5907 33.9121ZM46.6767 29.4782H44.0859V14.0047H11.6758V11.0661H46.6767V29.4782Z" fill="white"></path> </svg> 