<?xml version="1.0" encoding="UTF-8"?> <svg xmlns="http://www.w3.org/2000/svg" data-name="Layer 1" width="880" height="660"> <rect id="backgroundrect" width="100%" height="100%" x="0" y="0" fill="none" stroke="none" class="" style=""></rect> <g class="currentLayer" style=""> <title>Layer 1</title> <rect x="4.7719681560993195" y="45.45889151096344" width="610.531982421875" height="391.0118408203125" fill="#e6e6e6" id="svg_1" class="selected"></rect> <rect x="22.22998809814453" y="94.50152969360352" width="575.6159057617188" height="318.8369140625" fill="#fff" id="svg_2" class="selected"></rect> <rect width="610.531982421875" height="25.93762969970703" fill="#3c71fb" id="svg_3" class="selected" y="45.1127815246582" x="4.51127815246582"></rect> <circle cx="23.78603744506836" cy="58.3734712600708" r="4.807340145111084" fill="#fff" id="svg_4" class="selected"></circle> <circle cx="42.03350639343262" cy="58.3734712600708" r="4.807340145111084" fill="#fff" id="svg_5" class="selected"></circle> <circle cx="60.28096961975098" cy="58.3734712600708" r="4.807340145111084" fill="#fff" id="svg_6" class="selected"></circle> <rect x="71.2036075592041" y="143.45254135131836" width="325.756103515625" height="183.23779296875" fill="#3c71fb" id="svg_7" class="selected"></rect> <rect x="442.41404914855957" y="143.45254135131836" width="124.05245971679688" height="69.77951049804688" fill="#e6e6e6" id="svg_8" class="selected"></rect> <rect x="442.41404914855957" y="235.30818557739258" width="124.05245971679688" height="69.77951049804688" fill="#e6e6e6" id="svg_9" class="selected"></rect> <rect x="442.41404914855957" y="327.1638069152832" width="124.05245971679688" height="69.77951049804688" fill="#e6e6e6" id="svg_10" class="selected"></rect> <rect x="71.2036075592041" y="357.46672439575195" width="224.4307861328125" height="15.151450157165527" fill="#e6e6e6" id="svg_11" class="selected"></rect> <polygon points="276.69526863098145,235.07178115844727 205.67227363586426,194.06677627563477 205.67227363586426,276.07577896118164 276.69526863098145,235.07178115844727 205.67227363586426,194.06677627563477 205.67227363586426,276.07577896118164 276.69526863098145,235.07178115844727 " fill="#fff" id="svg_12" class="selected"></polygon> <polygon points="733.8723011016846,584.7498054504395 736.7902698516846,599.3377571105957 722.2022571563721,602.255786895752 724.3903064727783,584.0197639465332 733.8723011016846,584.7498054504395 " fill="#ffb8b8" id="svg_13" class="selected"></polygon> <polygon points="793.5872669219971,582.0957527160645 790.2832508087158,598.6147956848145 776.6932849884033,598.942798614502 781.0322742462158,578.7917976379395 793.5872669219971,582.0957527160645 " fill="#ffb8b8" id="svg_14" class="selected"></polygon> <path d="M815.2499689825439,412.39069833129884 l3.7878600000000002,25.56807 s-3.7878600000000002,56.81792 -4.7348300000000005,59.65882 s-3.7878600000000002,17.04537 -3.7878600000000002,17.04537 l-16.09841,68.18151 s-13.93605,1.8939300000000001 -16.777,-5.68179 l0.6785400000000003,-40.71951 l-0.9470000000000002,-46.40131 l-11.36358,-53.03006 l-19.88628,71.96937 s-0.9470000000000002,23.67414 -3.7878600000000002,32.19682 s-6.62876,45.45434 -6.62876,45.45434 s-12.04211,2.8409 -12.98908,0 s-5.95022,-70.07543 -5.95022,-80.492 s-5.56683,-110.29488 -5.56683,-110.29488 z" fill="#2f2e41" id="svg_15" class="selected"></path> <path d="M781.057258982544,597.6725483312988 a11.74878,11.74878 0 0 0 4.73134,0 c1.7742499999999999,-0.5914200000000002 0,-4.13993 0,-4.13993 h6.50559 s7.097,15.96827 10.05409,17.15111 s12.41977,14.194 1.1828400000000001,14.194 a36.71857,36.71857 0 0 1 -19.51677,-5.91417 s-1.1828400000000001,-5.32276 -6.50559,-5.91418 s-8.87126,-7.097 -8.87126,-7.097 l5.77716,-10.66554 a1.91327,1.91327 0 0 1 3.3547000000000002,-0.006690000000000003 C778.572658982544,596.6989183312988 779.6881889825439,597.9463583312988 781.057258982544,597.6725483312988 z" fill="#2f2e41" id="svg_16" class="selected"></path> <path d="M731.5589989825439,595.8405583312988 s-1.31913,2.63826 -2.63826,1.31913 a18.06967,18.06967 0 0 1 -2.63826,-4.617 s-3.95738,-1.97869 -4.61695,0 s-3.29782,12.53172 -4.61695,13.85085 s-15.17,15.17 -1.31912,17.808230000000002 s16.4891,-3.29782 16.4891,-3.29782 s-1.97869,-3.29782 1.97869,-4.61695 s4.617,-5.9360800000000005 4.617,-5.9360800000000005 l-1.98763,-14.90725 a1.6153,1.6153 0 0 0 -2.89516,-0.7473500000000002 C733.166878982544,595.6934583312989 732.314878982544,596.3444483312988 731.5589989825439,595.8405583312988 z" fill="#2f2e41" id="svg_17" class="selected"></path> <path d="M837.030168982544,346.1031283312988 l2.8409,49.2422 s13.25751,31.24985 -4.7348300000000005,30.30289 s-6.62876,-31.24986 -6.62876,-31.24986 L810.891688982544,350.4502583312988 z" fill="#ffb8b8" id="svg_18" class="selected"></path> <path d="M691.197498982544,331.89864833129883 l-2.84089,49.2422 s-13.25752,31.24985 4.73482,30.30289 s6.62876,-31.24986 6.62876,-31.24986 L717.3359789825439,336.2457583312988 z" fill="#ffb8b8" id="svg_19" class="selected"></path> <circle cx="766.9546985626221" cy="200.27046585083008" r="24.6210994720459" fill="#ffb8b8" id="svg_20" class="selected"></circle> <path d="M786.367518982544,210.21359833129884 s-6.62876,26.515 6.62876,33.14378 s-41.66648,16.09842 -45.45434,0 l1.8939300000000001,-7.5757200000000005 s7.57573,-9.46965 5.68179,-17.99234 z" fill="#ffb8b8" id="svg_21" class="selected"></path> <path d="M771.689558982544,243.8308683312988 s-16.34007,1.526 -21.42752,-9.18015 c0,0 -38.23128,2.55139 -46.754,37.58911 c9.89088,0.2830000000000001 22.16074,112.83482 5.95021,124.05246 c-13.15874,9.10582 22.70631,23.13129 72.6479,23.67414 l37.87863,-1.8939300000000001 c-7.06282,-6.08448 -23.96336,-85.27142 -13.25752,-84.27992 c0,0 28.409,-44.50737 25.568,-51.13613 s-7.39048,-32.76573 -43.94129,-43.37138 C788.354048982544,239.28506833129882 787.7879689825439,244.77782833129885 771.689558982544,243.8308683312988 z" fill="#e6e6e6" id="svg_22" class="selected"></path> <path d="M819.9847889825439,266.5580383312988 l12.31055,16.09841 s12.31055,67.23454 8.52269,68.1815 s-26.515,8.52269 -30.30289,5.6818 S789.6818789825439,297.80788833129884 789.6818789825439,297.80788833129884 z" fill="#e6e6e6" id="svg_23" class="selected"></path> <path d="M719.6064589825439,261.8232583312988 l-16.09841,10.41662 S679.833878982544,338.52739833129885 686.462668982544,341.3682583312988 s43.56041,0.9470000000000002 43.56041,0.9470000000000002 z" fill="#e6e6e6" id="svg_24" class="selected"></path> <path d="M793.867238982544,178.23646833129885 s-8.52806,-18.47745 -24.8735,-14.21342 s-25.58419,10.660070000000001 -26.29482,17.0561 s0.3553400000000001,15.9901 0.3553400000000001,15.9901 s1.7766600000000001,-13.14741 13.14741,-10.30472 s29.13751,0.7106600000000002 29.13751,0.7106600000000002 l2.84268,25.58416 s3.198,-4.61938 6.75141,-1.77669 S805.2379889825439,183.92180833129885 793.867238982544,178.23646833129885 z" fill="#2f2e41" id="svg_25" class="selected"></path> <polygon points="889.7692737579346,624.3547859191895 645.7003040313721,624.3547859191895 645.7003040313721,622.359790802002 890.1302967071533,622.359790802002 889.7692737579346,624.3547859191895 " fill="#3f3d56" id="svg_26" class="selected"></polygon> </g> </svg> 