<?xml version="1.0" encoding="UTF-8"?> <svg xmlns="http://www.w3.org/2000/svg" width="50" height="50" viewBox="0 0 50 50" fill="none"> <path d="M45.5537 26.6828C43.8716 25.3171 41.5593 25.211 39.3237 25.1079C37.2944 25.0147 35.3771 24.9265 34.1858 23.9241C34.1858 23.9241 34.1858 23.9241 34.1853 23.9236C33.8764 23.664 33.7738 23.4746 33.7798 23.3909C33.8067 23.0028 34.9501 22.2863 35.7852 21.7627C37.6018 20.6242 39.8618 19.2077 39.9709 16.7987C40.0711 14.5875 38.251 12.0863 34.4071 9.15419C34.3886 9.13625 34.3687 9.11931 34.3483 9.10337C29.4979 5.34514 23.793 3.83696 18.2815 4.85786C12.9433 5.84686 8.26932 9.07248 5.45824 13.7086C0.0523202 22.6266 4.18075 35.0553 14.6618 41.4138C18.981 44.0321 23.7566 45.2911 28.2687 45.2911C34.9835 45.2911 41.1154 42.5035 44.2951 37.2595C46.1147 34.2511 48.0658 28.7181 45.5537 26.6828ZM43.0162 36.4862C38.1209 44.5602 25.491 46.2318 15.4365 40.1363C5.66003 34.2053 1.7568 22.6979 6.73623 14.4844C9.32708 10.2125 13.6344 7.23995 18.5535 6.32866C19.5859 6.13734 20.6257 6.04267 21.6665 6.04267C25.7367 6.04267 29.8083 7.49006 33.3921 10.2548C33.4041 10.2658 33.4161 10.2767 33.4285 10.2872C33.4395 10.2967 33.4504 10.3056 33.4624 10.3146C36.8659 12.9045 38.5529 15.0633 38.4772 16.7319C38.4034 18.3582 36.5903 19.4942 34.9905 20.4971C33.583 21.3795 32.3673 22.1413 32.2875 23.2878C32.2442 23.9111 32.5591 24.5105 33.2232 25.0685C34.8022 26.3973 37.0657 26.501 39.2544 26.6021C41.3406 26.6978 43.3111 26.7884 44.6115 27.8447C46.1815 29.1152 44.6643 33.7613 43.0162 36.4862Z" fill="white"></path> <path d="M28.0739 18.3009C28.9732 18.848 29.9608 19.1345 30.8969 19.1345C31.2432 19.1345 31.582 19.0951 31.9074 19.0159C32.7738 18.8036 33.4534 18.3258 33.8719 17.6333C34.8918 15.9392 33.9552 13.4939 31.7843 12.183C30.5492 11.4341 29.1526 11.1741 27.9503 11.47C27.0854 11.6833 26.4073 12.1621 25.9918 12.8531C25.5707 13.5467 25.4611 14.3718 25.6739 15.2397C25.9683 16.4405 26.8438 17.5565 28.0739 18.3009ZM27.2707 13.6259C27.5333 13.1899 27.9797 13.0021 28.3081 12.9209C28.5129 12.8706 28.7301 12.8462 28.9553 12.8462C29.6195 12.8462 30.3499 13.0604 31.0105 13.4615C31.011 13.4615 31.0115 13.462 31.012 13.4625C32.4539 14.3329 33.1774 15.8899 32.5925 16.861C32.3294 17.296 31.8815 17.4833 31.5521 17.564C30.7435 17.7623 29.7331 17.5605 28.8497 17.0234C27.9678 16.4898 27.3236 15.6901 27.1258 14.8835C27.044 14.5526 27.0032 14.0668 27.2707 13.6259Z" fill="white"></path> <path d="M32.8725 32.7399C32.8725 32.7399 32.872 32.7399 32.8725 32.7399C31.9273 32.1665 30.8147 31.9966 29.74 32.2606C28.6658 32.5247 27.76 33.1908 27.191 34.133C26.6166 35.0742 26.4437 36.1833 26.7042 37.256C26.9658 38.3332 27.632 39.2435 28.5796 39.8184C29.2473 40.2245 29.9862 40.4178 30.7171 40.4178C32.1166 40.4178 33.4863 39.7083 34.2675 38.4254C35.4509 36.4762 34.8251 33.9262 32.8725 32.7399ZM32.9901 37.6491C32.2297 38.8972 30.5995 39.2978 29.3559 38.5415C28.75 38.1738 28.3245 37.5918 28.1571 36.9032C27.9907 36.2187 28.1008 35.5121 28.469 34.9093C28.8332 34.3059 29.4117 33.8809 30.0978 33.712C30.309 33.6602 30.5223 33.6343 30.734 33.6343C31.2108 33.6343 31.6792 33.7643 32.0972 34.0179C33.3448 34.7762 33.7454 36.4055 32.9901 37.6491Z" fill="white"></path> <path d="M20.0896 28.6309C19.1454 28.0575 18.0338 27.8866 16.9606 28.1501C15.8864 28.4137 14.9801 29.0798 14.4096 30.0235C13.8347 30.9682 13.6628 32.0803 13.9263 33.155C14.1894 34.2282 14.8551 35.136 15.8007 35.7114C16.4544 36.108 17.1883 36.3118 17.9342 36.3118C18.2665 36.3118 18.6013 36.2715 18.9322 36.1898C20.0054 35.9247 20.9127 35.2575 21.4857 34.3124C22.0581 33.3722 22.229 32.2631 21.967 31.1899C21.7039 30.1137 21.0372 29.2049 20.0896 28.6309ZM20.2082 33.5361C19.841 34.142 19.2605 34.5695 18.5739 34.7389C17.8879 34.9078 17.1789 34.8002 16.577 34.4344C15.9721 34.0667 15.5461 33.4858 15.3777 32.7992C15.2093 32.1131 15.3189 31.4036 15.6871 30.7988C16.0518 30.1954 16.6308 29.7704 17.3164 29.602C17.5266 29.5502 17.7394 29.5248 17.9501 29.5248C18.427 29.5248 18.8953 29.6548 19.3128 29.9084C19.3128 29.9084 19.3133 29.9089 19.3138 29.9089C19.9197 30.2756 20.3457 30.8566 20.5141 31.5446C20.682 32.2297 20.5739 32.9362 20.2082 33.5361Z" fill="white"></path> <path d="M15.9696 23.1039C16.5421 22.1608 16.7125 21.0502 16.4494 19.977C16.1859 18.9028 15.5197 17.995 14.5726 17.422C13.6264 16.8475 12.5138 16.6766 11.4401 16.9407C10.3669 17.2048 9.4611 17.8714 8.89062 18.8171C7.70929 20.7632 8.33408 23.3122 10.2842 24.501C10.9384 24.8981 11.6728 25.1019 12.4197 25.1019C12.7515 25.1019 13.0853 25.0615 13.4156 24.9803C14.4899 24.7163 15.3966 24.0496 15.9696 23.1039ZM14.6916 22.3292C14.3249 22.934 13.745 23.36 13.0584 23.5289C12.3728 23.6978 11.6628 23.5892 11.061 23.224C9.81436 22.4647 9.41377 20.8355 10.1691 19.5913C10.5338 18.987 11.1123 18.561 11.7969 18.3926C12.0071 18.3408 12.2199 18.3153 12.4311 18.3153C12.9084 18.3153 13.3778 18.4459 13.7968 18.7C13.7968 18.7 13.7973 18.7 13.7978 18.7005C14.4032 19.0667 14.8292 19.6467 14.9976 20.3332C15.166 21.0183 15.0573 21.7268 14.6916 22.3292Z" fill="white"></path> </svg> 