<?xml version="1.0" encoding="UTF-8"?> <svg xmlns="http://www.w3.org/2000/svg" width="50" height="50" viewBox="0 0 50 50" fill="none"> <path d="M43.7167 10.6665H6.82092C5.38649 10.6665 4.2196 11.7103 4.2196 12.9933V35.6395C4.2196 36.9225 5.38649 37.9669 6.82092 37.9669H43.7167C45.1511 37.9669 46.318 36.9225 46.318 35.6395V12.9933C46.318 11.7103 45.1511 10.6665 43.7167 10.6665ZM44.8233 35.6395C44.8233 36.0905 44.3166 36.4721 43.7167 36.4721H6.82092C6.22104 36.4721 5.71433 36.0905 5.71433 35.6395V12.9933C5.71433 12.5423 6.22104 12.1612 6.82092 12.1612H43.7167C44.3166 12.1612 44.8233 12.5423 44.8233 12.9933V35.6395V35.6395Z" fill="white"></path> <path d="M25.2683 14.3405C19.7677 14.3405 15.2925 18.8158 15.2925 24.3164C15.2925 29.817 19.7677 34.2923 25.2683 34.2923C30.7689 34.2923 35.2441 29.817 35.2441 24.3164C35.2441 18.8158 30.7689 14.3405 25.2683 14.3405ZM25.2683 32.7975C20.5918 32.7975 16.7872 28.9924 16.7872 24.3164C16.7872 19.6404 20.5918 15.8353 25.2683 15.8353C29.9448 15.8353 33.7494 19.6399 33.7494 24.3164C33.7494 28.9929 29.9448 32.7975 25.2683 32.7975Z" fill="white"></path> <path d="M29.6812 23.6841L23.8209 19.9926C23.5912 19.8471 23.2998 19.8387 23.0616 19.9707C22.8229 20.1022 22.6755 20.3529 22.6755 20.6249V28.0079C22.6755 28.28 22.8234 28.5306 23.0616 28.6621C23.1742 28.7244 23.2983 28.7553 23.4228 28.7553C23.5613 28.7553 23.6998 28.7169 23.8209 28.6407L29.6812 24.9487C29.8985 24.8122 30.03 24.573 30.03 24.3164C30.03 24.0598 29.8985 23.8207 29.6812 23.6841ZM24.1702 26.6537V21.9786L27.8806 24.3159L24.1702 26.6537Z" fill="white"></path> </svg> 