<?xml version="1.0" encoding="UTF-8"?> <svg xmlns="http://www.w3.org/2000/svg" width="18" height="992" viewBox="0 0 18 992" fill="none"> <path d="M2.00003 991C22.0001 974.5 22.0001 958 2.00003 941.5C22.0001 925 22.0001 908.5 2.00003 892C22.0001 875.5 22.0001 859 2.00002 842.5C22.0001 826 22.0001 809.5 2.00002 793C22.0001 776.5 22.0001 760 2.00002 743.5C22.0001 727 22.0001 710.5 2.00002 694C22.0001 677.5 22.0001 661 2.00002 644.5C22.0001 628 22.0001 611.5 2.00001 595C22.0001 578.5 22.0001 562 2.00001 545.5C22.0001 529 22.0001 512.5 2.00001 496C22.0001 479.5 22.0001 463 2.00001 446.5C22.0001 430 22.0001 413.5 2 397C22.0001 380.5 22.0001 364 2 347.5C22.0001 331 22.0001 314.5 2 298C22.0001 281.5 22.0001 265 2 248.5C22.0001 232 22.0001 215.5 2 199C22.0001 182.5 22.0001 166 1.99999 149.5C22.0001 133 22 116.5 1.99999 100C22 83.5 22 67 1.99999 50.5C22 34 22 17.5 1.99999 1.00001" stroke="#0937FD" stroke-width="2"></path> </svg> 