<?xml version="1.0" encoding="UTF-8"?> <svg xmlns="http://www.w3.org/2000/svg" width="160" height="160" viewBox="0 0 160 160" fill="none"> <path d="M91.6192 25.7959L109.657 8.40271L110.112 33.4559L110.138 34.8949L111.478 34.3684L134.798 25.2018L125.632 48.5222L125.105 49.8617L126.544 49.8879L151.597 50.3434L134.204 68.3808L133.205 69.4168L134.525 69.9917L157.496 80L134.525 90.0083L133.205 90.5832L134.204 91.6192L151.597 109.657L126.544 110.112L125.105 110.138L125.632 111.478L134.798 134.798L111.478 125.632L110.138 125.105L110.112 126.544L109.657 151.597L91.6192 134.204L90.5832 133.205L90.0083 134.525L80 157.496L69.9917 134.525L69.4168 133.205L68.3808 134.204L50.3434 151.597L49.8879 126.544L49.8617 125.105L48.5222 125.632L25.2018 134.798L34.3684 111.478L34.8949 110.138L33.4559 110.112L8.40271 109.657L25.7959 91.6192L26.7949 90.5832L25.4754 90.0083L2.50366 80L25.4754 69.9917L26.7949 69.4168L25.7959 68.3808L8.40271 50.3434L33.4559 49.8879L34.8949 49.8617L34.3684 48.5222L25.2018 25.2018L48.5222 34.3684L49.8617 34.8949L49.8879 33.4559L50.3434 8.40271L68.3808 25.7959L69.4168 26.7949L69.9917 25.4754L80 2.50366L90.0083 25.4754L90.5832 26.7949L91.6192 25.7959Z" fill="#FF0023" stroke="#201E1E" stroke-width="2"></path> </svg> 