<?xml version="1.0" encoding="UTF-8"?> <svg xmlns="http://www.w3.org/2000/svg" xmlns:xlink="http://www.w3.org/1999/xlink" data-name="Layer 1" width="1200" height="900"> <rect id="backgroundrect" width="100%" height="100%" x="0" y="0" fill="none" stroke="none" class="" style=""></rect> <defs> <linearGradient id="6af09e6e-7617-4e7d-96c6-87d8d61cc5fb" x1="0.49999478459358215" y1="1" x2="0.49999478459358215" y2="0"> <stop offset="0" stop-color="gray" stop-opacity="0.25"></stop> <stop offset="0.54" stop-color="gray" stop-opacity="0.12"></stop> <stop offset="1" stop-color="gray" stop-opacity="0.1"></stop> </linearGradient> <linearGradient id="f366e0cb-9767-4f71-a21d-568f9afb6f3a" x1="475.6499938964844" y1="861.7100219726562" x2="475.6499938964844" y2="223.27999877929688" xlink:href="#6af09e6e-7617-4e7d-96c6-87d8d61cc5fb"></linearGradient> </defs> <title>add to cart</title> <g class="currentLayer" style=""> <title>Layer 1</title> <path d="M1138.7840562438964,606.8001510620118 c-1,0.7300000000000002 -1.92,1.44 -2.9,2.13 a97.79,97.79 0 0 1 -11.33,6.91 c-20.58,10.85 -45.95,16.15 -70.66,19.75 c-55.42,8.08 -112,9.65 -168.34,11.19 C733.3240562438965,650.9601510620117 580.7240562438965,655.1301510620117 428.86405624389647,645.5001510620117 c-60,-3.8 -121.32,-10.16 -175.69,-29.66 q-11.69,-4.18 -22.92,-9.22 c-15.15,-6.8100000000000005 -29.7,-15.1 -41.8,-25 c-11.37,-9.28 -20.59,-19.94 -26.1,-32.06 c-11.49,-25.24 -5.41,-53.59 7.71,-78.33 a243.42,243.42 0 0 1 18.39,-28.77 c10.13,-13.93 21.3,-27.46 31.49,-41.38 C256.2040562438965,351.6001510620117 279.86405624389647,289.0001510620117 246.39405624389647,238.25015106201172 c-9.620000000000001,-14.58 -23.52,-27.38 -31.36,-42.6 c-10,-19.47 -9.23,-41.09 -6.05,-62.09 q0.6200000000000002,-4 1.31,-7.92 C215.72405624389648,94.50015106201172 225.94405624389648,60.95015106201172 257.4540562438965,41.510151062011715 c32.73,-20.2 79.21,-19.18 119.83,-12 C440.4540562438965,40.79015106201172 498.7240562438965,64.27015106201172 557.6140562438965,85.47015106201172 s120.5,40.57 185.22,42.65 c57.15,1.84 123.81,-11.93 161.74,-47.72 c36.84,-34.76 106.09,-37.41 156,-16.41 c34.26,14.41 59.82,40.37 70.6,69.57 a90.81,90.81 0 0 1 4.69,18.12 a83.56,83.56 0 0 1 0.8400000000000002,17.09 c-0.15000000000000005,2.8200000000000003 -0.4400000000000001,5.61 -0.8400000000000002,8.37 c-8.34,57.62 -68.37,103.07 -104.86,154.54 c-17.83,25.14 -30.42,55.34 -18.16,82.45 c18.7,41.31 83.73,56 123,86.74 a92.4,92.4 0 0 1 19.3,19.8 C1174.1940562438965,548.0301510620117 1167.1640562438965,584.9801510620117 1138.7840562438964,606.8001510620118 z" fill="#3c71fb" opacity="0.1" id="svg_1" class=""></path> <g id="d00831fc-a64a-413c-b5dd-d7bd6eafa01d" data-name="flowers" class=""> <path d="M307.61405624389647,348.9201510620117 s-46,-81.52 -115.32,-105 c-29.09,-9.86 -54.48,-28.4 -71.84,-53.74 a238,238 0 0 1 -21.2,-38.12 " fill="none" stroke="#535461" stroke-miterlimit="10" stroke-width="2" id="svg_2"></path> <path d="M55.66405624389648,136.97015106201172 C63.56405624389649,144.60015106201172 100.34405624389649,152.60015106201172 100.34405624389649,152.60015106201172 s-9,-36.52 -16.92,-44.19 a19.93,19.93 0 0 0 -27.76,28.6 z" fill="#3c71fb" id="svg_3"></path> <path d="M76.47405624389648,203.06015106201173 c10.79,2.14 46,-11.19 46,-11.19 S95.02405624389648,166.1101510620117 84.22405624389648,163.97015106201172 a19.93,19.93 0 0 0 -7.75,39.09 z" fill="#3c71fb" id="svg_4"></path> <path d="M152.22405624389648,274.6001510620117 c10.4,-3.6 34,-32.87 34,-32.87 s-36.68,-8.39 -47.07,-4.79 a19.93,19.93 0 1 0 13,37.66 z" fill="#3c71fb" id="svg_5"></path> <path d="M221.72405624389648,315.7901510620117 c10.86,-1.8 39.1,-26.65 39.1,-26.65 s-34.73,-14.47 -45.59,-12.68 A19.93,19.93 0 0 0 221.72405624389648,315.7901510620117 z" fill="#3c71fb" id="svg_6"></path> <path d="M153.11405624389647,163.3301510620117 c0,11 -19.9,42.93 -19.9,42.93 s-19.94,-31.91 -19.95,-42.91 a19.93,19.93 0 1 1 39.85,0 z" fill="#3c71fb" id="svg_7"></path> <path d="M233.79405624389648,212.60015106201172 c-3.29,10.5 -31.84,35 -31.84,35 S192.47405624389648,211.15015106201173 195.72405624389648,200.60015106201172 a19.93,19.93 0 0 1 38,11.91 z" fill="#3c71fb" id="svg_8"></path> <path d="M305.6340562438965,271.15015106201173 c-1.46,10.91 -25.46,39.88 -25.46,39.88 s-15.5,-34.28 -14,-45.19 a19.93,19.93 0 0 1 39.5,5.3100000000000005 z" fill="#3c71fb" id="svg_9"></path> <path d="M55.66405624389648,136.97015106201172 C63.56405624389649,144.60015106201172 100.34405624389649,152.60015106201172 100.34405624389649,152.60015106201172 s-9,-36.52 -16.92,-44.19 a19.93,19.93 0 0 0 -27.76,28.6 z" opacity="0.25" id="svg_10"></path> <path d="M76.47405624389648,203.06015106201173 c10.79,2.14 46,-11.19 46,-11.19 S95.02405624389648,166.1101510620117 84.22405624389648,163.97015106201172 a19.93,19.93 0 0 0 -7.75,39.09 z" opacity="0.25" id="svg_11"></path> <path d="M152.22405624389648,274.6001510620117 c10.4,-3.6 34,-32.87 34,-32.87 s-36.68,-8.39 -47.07,-4.79 a19.93,19.93 0 1 0 13,37.66 z" opacity="0.25" id="svg_12"></path> <path d="M221.72405624389648,315.7901510620117 c10.86,-1.8 39.1,-26.65 39.1,-26.65 s-34.73,-14.47 -45.59,-12.68 A19.93,19.93 0 0 0 221.72405624389648,315.7901510620117 z" opacity="0.25" id="svg_13"></path> <path d="M153.11405624389647,163.3301510620117 c0,11 -19.9,42.93 -19.9,42.93 s-19.94,-31.91 -19.95,-42.91 a19.93,19.93 0 1 1 39.85,0 z" opacity="0.25" id="svg_14"></path> <path d="M233.79405624389648,212.60015106201172 c-3.29,10.5 -31.84,35 -31.84,35 S192.47405624389648,211.15015106201173 195.72405624389648,200.60015106201172 a19.93,19.93 0 0 1 38,11.91 z" opacity="0.25" id="svg_15"></path> <path d="M305.6340562438965,271.15015106201173 c-1.46,10.91 -25.46,39.88 -25.46,39.88 s-15.5,-34.28 -14,-45.19 a19.93,19.93 0 0 1 39.5,5.3100000000000005 z" opacity="0.25" id="svg_16"></path> <path d="M304.9640562438965,347.3001510620117 s-9,-93.18 -62.88,-142.74 c-22.59,-20.8 -38.29,-48 -43.9,-78.24 a238.15,238.15 0 0 1 -3.92,-43.45 " fill="none" stroke="#535461" stroke-miterlimit="10" stroke-width="2" id="svg_17"></path> <path d="M160.51405624389648,51.44015106201172 c4.12,10.21 34.53,32.36 34.53,32.36 s6.55,-37.05 2.44,-47.26 a19.93,19.93 0 0 0 -37,14.9 z" fill="#3c71fb" id="svg_18"></path> <path d="M152.72405624389648,120.29015106201172 c9,6.33 46.57,8.4 46.57,8.4 S184.72405624389648,94.03015106201173 175.72405624389648,87.70015106201171 A19.92,19.92 0 1 0 152.72405624389648,120.29015106201172 z" fill="#3c71fb" id="svg_19"></path> <path d="M193.0340562438965,216.37015106201173 c11,0.93 44.44,-16.26 44.44,-16.26 s-30.13,-22.53 -41.1,-23.45 a19.93,19.93 0 1 0 -3.34,39.71 z" fill="#3c71fb" id="svg_20"></path> <path d="M239.8740562438965,282.21015106201173 c10.66,2.7600000000000002 46.55,-8.52 46.55,-8.52 s-25.89,-27.3 -36.54,-30.06 a19.93,19.93 0 0 0 -10,38.58 z" fill="#3c71fb" id="svg_21"></path> <path d="M238.92405624389647,115.03015106201173 c-4.45,10.06 -35.59,31.17 -35.59,31.17 s-5.3,-37.24 -0.8500000000000002,-47.31 a19.93,19.93 0 1 1 36.44,16.14 z" fill="#3c71fb" id="svg_22"></path> <path d="M292.7240562438965,192.71015106201173 c-7.26,8.27 -43.29,19.1 -43.29,19.1 s6.08,-37.12 13.35,-45.39 A19.92,19.92 0 1 1 292.7240562438965,192.71015106201173 z" fill="#3c71fb" id="svg_23"></path> <path d="M334.7240562438965,275.40015106201173 c-5.76,9.38 -39.44,26.14 -39.44,26.14 s-0.28,-37.62 5.48,-47 a19.93,19.93 0 0 1 34,20.86 z" fill="#3c71fb" id="svg_24"></path> </g> <ellipse cx="457.7840576171875" cy="861.2401123046875" rx="111.52999877929688" ry="14.520000457763672" fill="#3c71fb" opacity="0.1" id="svg_25" class=""></ellipse> <g id="5cfdbbb0-8197-4f02-a5fd-2740d54b5dec" data-name="floor flowers" class=""> <ellipse cx="232.50405883789062" cy="860.1201171875" rx="33.880001068115234" ry="5.800000190734863" fill="#3c71fb" opacity="0.1" id="svg_26"></ellipse> <path d="M239.86405624389647,795.5401510620118 s5.49,7.19 -2.54,18 s-14.65,20 -12,26.77 c0,0 12.11,-20.15 22,-20.43 S250.72405624389648,807.6601510620117 239.86405624389647,795.5401510620118 z" fill="#3c71fb" id="svg_27"></path> <path d="M239.86405624389647,795.5401510620118 a8.83,8.83 0 0 1 1.12,2.26 c9.620000000000001,11.3 14.75,21.85 5.5,22.11 c-8.61,0.25 -18.95,15.65 -21.42,19.54 a9.24,9.24 0 0 0 0.2900000000000001,0.8900000000000002 s12.11,-20.15 22,-20.43 S250.72405624389648,807.6601510620117 239.86405624389647,795.5401510620118 z" opacity="0.1" id="svg_28"></path> <path d="M250.07405624389648,804.7001510620117 c0,2.5300000000000002 -0.28,4.58 -0.6300000000000002,4.58 s-0.6400000000000002,-2 -0.6400000000000002,-4.58 s0.3600000000000001,-1.34 0.7100000000000002,-1.34 S250.07405624389648,802.1701510620118 250.07405624389648,804.7001510620117 z" fill="#ffd037" id="svg_29"></path> <path d="M253.5840562438965,807.7201510620117 c-2.22,1.21 -4.16,1.94 -4.33,1.6300000000000003 s1.5,-1.54 3.72,-2.75 s1.34,-0.3300000000000001 1.51,0 S255.8040562438965,806.5101510620117 253.5840562438965,807.7201510620117 z" fill="#ffd037" id="svg_30"></path> <path d="M210.8440562438965,795.5401510620118 s-5.49,7.19 2.54,18 s14.65,20 12,26.77 c0,0 -12.11,-20.15 -22,-20.43 S200.00405624389649,807.6601510620117 210.8440562438965,795.5401510620118 z" fill="#3c71fb" id="svg_31"></path> <path d="M210.8440562438965,795.5401510620118 A8.83,8.83 0 0 0 209.72405624389648,797.8001510620118 c-9.620000000000001,11.3 -14.75,21.85 -5.5,22.11 c8.620000000000001,0.25 18.95,15.65 21.42,19.54 a7.11,7.11 0 0 1 -0.2900000000000001,0.8900000000000002 s-12.11,-20.15 -22,-20.43 S200.00405624389649,807.6601510620117 210.8440562438965,795.5401510620118 z" opacity="0.1" id="svg_32"></path> <path d="M200.63405624389648,804.7001510620117 c0,2.5300000000000002 0.28,4.58 0.6300000000000002,4.58 s0.6400000000000002,-2 0.6400000000000002,-4.58 s-0.3600000000000001,-1.34 -0.7100000000000002,-1.34 S200.63405624389648,802.1701510620118 200.63405624389648,804.7001510620117 z" fill="#ffd037" id="svg_33"></path> <path d="M197.13405624389648,807.7201510620117 c2.22,1.21 4.15,1.94 4.32,1.6300000000000003 s-1.5,-1.54 -3.72,-2.75 s-1.34,-0.3300000000000001 -1.51,0 S194.91405624389648,806.5101510620117 197.13405624389648,807.7201510620117 z" fill="#ffd037" id="svg_34"></path> <path d="M202.38405624389648,839.4001510620117 s15.36,-0.4800000000000001 20,-3.77 s23.62,-7.24 24.77,-1.9500000000000002 s23.08,26.29 5.74,26.43 s-40.29,-2.7 -44.91,-5.51 S202.38405624389648,839.4001510620117 202.38405624389648,839.4001510620117 z" fill="#a8a8a8" id="svg_35"></path> <path d="M253.19405624389648,858.2701510620117 c-17.34,0.14 -40.29,-2.7 -44.91,-5.51 c-3.52,-2.15 -4.92,-9.84 -5.39,-13.38 l-0.51,0 s1,12.38 5.59,15.2 s27.57,5.65 44.91,5.51 c5,0 6.74,-1.82 6.6400000000000015,-4.46 C258.8340562438965,857.2501510620117 256.9240562438965,858.2401510620117 253.19405624389648,858.2701510620117 z" opacity="0.2" id="svg_36"></path> <path d="M715.3240562438965,838.8101510620118 s-42.28,-2.55 -37.29,27.08 c0,0 -1,5.23 3.75,7.61 c0,0 0.08000000000000003,-2.19 4.34,-1.45 a19.36,19.36 0 0 0 4.59,0.22000000000000006 a9.5,9.5 0 0 0 5.62,-2.3200000000000003 h0 s11.88,-4.9 16.5,-24.33 c0,0 3.42,-4.24 3.29,-5.33 l-7.14,3 s2.44,5.15 0.52,9.43 c0,0 -0.23,-9.24 -1.6,-9 c-0.28,0 -3.71,1.78 -3.71,1.78 s4.2,9 1,15.48 c0,0 1.2,-11 -2.34,-14.83 l-5,2.93 s4.9,9.26 1.58,16.82 c0,0 0.8500000000000002,-11.59 -2.63,-16.11 l-4.55,3.55 s4.6,9.13 1.79,15.4 c0,0 -0.3600000000000001,-13.49 -2.7800000000000002,-14.51 c0,0 -4,3.51 -4.59,5 c0,0 3.15,6.62 1.2,10.12 c0,0 -1.2,-9 -2.19,-9 c0,0 -4,6 -4.38,10 c0,0 0.18000000000000005,-6.07 3.42,-10.61 a11.94,11.94 0 0 0 -6.07,3.15 s0.6200000000000002,-4.21 7,-4.58 c0,0 3.2800000000000002,-4.52 4.16,-4.79 c0,0 -6.4,-0.54 -10.28,1.18 c0,0 3.41,-4 11.45,-2.17 l4.49,-3.66 s-8.42,-1.1600000000000001 -12,0.12000000000000002 c0,0 4.12,-3.52 13.21,-1 l4.9,-2.92 s-7.19,-1.55 -11.47,-1 c0,0 4.52,-2.44 12.9,0.2 l3.5,-1.57 s-5.27,-1 -6.8100000000000005,-1.19 s-1.62,-0.5900000000000002 -1.62,-0.5900000000000002 a18.26,18.26 0 0 1 9.89,1.1 S715.4540562438965,839.2801510620117 715.3240562438965,838.8101510620118 z" fill="#3c71fb" id="svg_37"></path> <ellipse cx="686.2041015625" cy="876.0802001953125" rx="29.920000076293945" ry="5.059999942779541" fill="#3c71fb" opacity="0.1" id="svg_38"></ellipse> <path d="M641.2540562438965,840.3901510620117 s-23.84,-1.44 -21,15.27 a4.08,4.08 0 0 0 2.12,4.29 s0,-1.24 2.45,-0.8200000000000002 a11.67,11.67 0 0 0 2.58,0.13 a5.47,5.47 0 0 0 3.17,-1.31 h0 s6.7,-2.77 9.31,-13.72 c0,0 1.92,-2.39 1.85,-3 l-4,1.71 s1.37,2.91 0.2900000000000001,5.32 c0,0 -0.13,-5.21 -0.9,-5.09 c-0.16000000000000006,0 -2.09,1 -2.09,1 s2.36,5 0.5800000000000002,8.73 c0,0 0.6700000000000004,-6.23 -1.32,-8.37 l-2.83,1.6600000000000001 s2.7600000000000002,5.22 0.8900000000000002,9.48 c0,0 0.4800000000000001,-6.54 -1.49,-9.08 l-2.56,2 s2.59,5.15 1,8.68 c0,0 -0.21000000000000005,-7.61 -1.57,-8.18 a15.64,15.64 0 0 0 -2.59,2.79 s1.78,3.74 0.6800000000000004,5.71 c0,0 -0.6800000000000004,-5.07 -1.23,-5.09 c0,0 -2.24,3.36 -2.47,5.66 a12.15,12.15 0 0 1 1.92,-6 a6.72,6.72 0 0 0 -3.42,1.77 s0.3500000000000001,-2.38 4,-2.58 c0,0 1.84,-2.55 2.34,-2.7 c0,0 -3.6100000000000003,-0.3100000000000001 -5.8,0.6600000000000003 c0,0 1.9300000000000002,-2.24 6.46,-1.22 l2.5300000000000002,-2.07 s-4.75,-0.6500000000000002 -6.76,0.07 c0,0 2.3200000000000003,-2 7.45,-0.54 l2.75,-1.6400000000000001 a24.71,24.71 0 0 0 -6.46,-0.56 s2.55,-1.37 7.27,0.11000000000000003 l2,-0.8800000000000002 s-3,-0.5900000000000002 -3.83,-0.6800000000000004 s-0.92,-0.3300000000000001 -0.92,-0.3300000000000001 a10.32,10.32 0 0 1 5.58,0.6200000000000002 S641.3240562438965,840.6601510620117 641.2540562438965,840.3901510620117 z" fill="#3c71fb" id="svg_39"></path> <ellipse cx="624.8341064453125" cy="861.41015625" rx="16.8700008392334" ry="2.8499999046325684" fill="#3c71fb" opacity="0.1" id="svg_40"></ellipse> <path d="M686.6240562438965,804.9801510620117 s-28.77,-1.7400000000000002 -25.38,18.43 a4.92,4.92 0 0 0 2.56,5.18 s0,-1.49 2.95,-1 a14.19,14.19 0 0 0 3.12,0.15000000000000005 a6.59,6.59 0 0 0 3.83,-1.58 h0 s8.09,-3.34 11.23,-16.57 c0,0 2.33,-2.88 2.24,-3.62 l-4.86,2.07 s1.6600000000000001,3.51 0.3600000000000001,6.42 c0,0 -0.16000000000000006,-6.29 -1.1,-6.14 c-0.18000000000000005,0 -2.52,1.21 -2.52,1.21 s2.8600000000000003,6.11 0.7000000000000002,10.54 c0,0 0.8200000000000002,-7.52 -1.59,-10.1 l-3.42,2 s3.34,6.3 1.08,11.45 c0,0 0.5800000000000002,-7.8900000000000015 -1.8,-11 l-3.1,2.41 s3.14,6.21 1.23,10.48 c0,0 -0.25,-9.18 -1.9,-9.88 c0,0 -2.71,2.39 -3.12,3.37 c0,0 2.15,4.51 0.81,6.8900000000000015 c0,0 -0.81,-6.11 -1.48,-6.14 c0,0 -2.7,4 -3,6.83 a14.71,14.71 0 0 1 2.3200000000000003,-7.22 a8.13,8.13 0 0 0 -4.13,2.14 s0.4200000000000001,-2.87 4.8,-3.12 c0,0 2.23,-3.07 2.83,-3.26 c0,0 -4.36,-0.3600000000000001 -7,0.81 c0,0 2.3200000000000003,-2.71 7.8,-1.48 l3.06,-2.49 s-5.74,-0.79 -8.17,0.08000000000000003 c0,0 2.8,-2.39 9,-0.6500000000000002 l3.33,-2 s-4.8900000000000015,-1 -7.8,-0.6700000000000004 c0,0 3.07,-1.6600000000000001 8.78,0.13 l2.38,-1.06 s-3.59,-0.7100000000000002 -4.6400000000000015,-0.8200000000000002 s-1.1,-0.4 -1.1,-0.4 a12.43,12.43 0 0 1 6.73,0.7500000000000002 S686.7240562438965,805.3001510620118 686.6240562438965,804.9801510620117 z" fill="#3c71fb" id="svg_41"></path> <ellipse cx="666.8140869140625" cy="830.35009765625" rx="20.3700008392334" ry="3.440000057220459" fill="#3c71fb" opacity="0.1" id="svg_42"></ellipse> </g> <g id="1cf578eb-5ffb-4cd7-95b8-45aaaddab7e0" data-name="browser" class=""> <path d="M1137.7240562438965,608.7301510620117 V119.60015106201172 H186.3740562438965 V580.6701510620118 c12.15,10.14 26.76,18.67 42,25.68 q11.26,5.19 23,9.49 h875 z" fill="url(#6af09e6e-7617-4e7d-96c6-87d8d61cc5fb)" id="svg_43"></path> <path d="M1135.8840562438966,608.9301510620118 V133.60015106201172 H188.45405624389647 v448.1 c12.1,9.86 26.65,18.15 41.8,25 q11.22,5 22.92,9.22 h871.38 z" fill="#fff" id="svg_44"></path> <rect x="188.46405029296875" y="120.99015045166016" width="947.4199829101562" height="25.139999389648438" fill="#5a5773" id="svg_45"></rect> </g> <g id="6703b009-63cb-4af0-a0d7-9948e224c180" data-name="buttons" class=""> <circle cx="207.38404846191406" cy="133.56015014648438" r="6.5" fill="#fff" id="svg_46"></circle> <circle cx="224.88404846191406" cy="133.56015014648438" r="6.5" fill="#fff" id="svg_47"></circle> <circle cx="242.38404846191406" cy="133.56015014648438" r="6.5" fill="#fff" id="svg_48"></circle> </g> <g id="8c4e1fb4-b9ff-4530-b767-610e84618ea6" data-name="boxes" class=""> <rect x="430.5740661621094" y="201.38015747070312" width="156.5" height="98.33999633789062" fill="#3c71fb" id="svg_49"></rect> <rect x="213.88404846191406" y="201.38015747070312" width="156.5" height="98.33999633789062" fill="#5a5773" opacity="0.2" id="svg_50"></rect> <rect x="647.2640991210938" y="201.38015747070312" width="156.5" height="98.33999633789062" fill="#5a5773" opacity="0.2" id="svg_51"></rect> <rect x="213.88404846191406" y="341.97015380859375" width="156.5" height="98.33999633789062" fill="#5a5773" opacity="0.2" id="svg_52"></rect> <rect x="430.5740661621094" y="341.97015380859375" width="156.5" height="98.33999633789062" fill="#5a5773" opacity="0.2" id="svg_53"></rect> <rect x="647.2640991210938" y="341.97015380859375" width="156.5" height="98.33999633789062" fill="#5a5773" opacity="0.2" id="svg_54"></rect> <rect x="213.88404846191406" y="482.5501403808594" width="156.5" height="98.33999633789062" fill="#5a5773" opacity="0.2" id="svg_55"></rect> <rect x="430.5740661621094" y="482.5501403808594" width="156.5" height="98.33999633789062" fill="#5a5773" opacity="0.2" id="svg_56"></rect> <rect x="647.2640991210938" y="482.5501403808594" width="156.5" height="98.33999633789062" fill="#5a5773" opacity="0.2" id="svg_57"></rect> </g> <g id="2796dd85-6618-42ad-b8a0-d6b4cc80ab2d" data-name="woman" class=""> <path d="M559.0940562438965,447.8001510620117 S530.9840562438965,396.4201510620117 535.7240562438965,388.0601510620117 S543.9540562438965,367.6001510620117 543.9540562438965,367.6001510620117 s10.38,-7.1 10.38,-10 s8.22,-9.61 12.55,-12.53 s2.16,-16.71 0,-18.38 s-5.59,-7.52 -5.59,-7.52 s3,-8.35 0,-10.86 s0.4400000000000001,-5 0,-7.52 s0,-11.69 0,-11.69 c-3.51,-4.88 -7.4,-7.16 -11.06,-8 l-0.3200000000000001,-1.32 l-1.85,-7.79 s9,-17.25 -5.6,-26.28 a24.4,24.4 0 0 0 -3.23,-1.7000000000000002 s0,-0.4200000000000001 -0.08000000000000003,-1.13 c-0.2,-2.58 -0.81,-9 -2.12,-13.21 c-0.7600000000000002,-2.42 -1.75,-4.05 -3,-3.68 a2,2 0 0 0 -0.8200000000000002,0.4700000000000001 a9.12,9.12 0 0 0 -1.55,1.83 s0,0 0,0 a0.4100000000000001,0.4100000000000001 0 0 1 -0.07,0.11000000000000003 a0,0 0 0 1 0,0 a31.36,31.36 0 0 0 -3.44,9.55 a55.16,55.16 0 0 0 -1,6 a0.08000000000000003,0.08000000000000003 0 0 0 0,0 a33,33 0 0 0 -1.6700000000000004,3.71 c-1.77,4.59 -3.84,12.54 -0.07,18.42 c3.2,5 7.51,11.870000000000001 10.64,16.87 l0.1,0.16000000000000006 l0.19000000000000006,0.3100000000000001 l-0.3300000000000001,0.21000000000000005 l0,0.77 l0.2900000000000001,4.21 L538.7240562438965,324.9901510620117 a15.45,15.45 0 0 0 -2.22,-0.4700000000000001 a20.17,20.17 0 0 0 -3.23,-0.21000000000000005 c-2.11,-8.29 -7.9,-16 -9,-24.66 a22.87,22.87 0 0 1 -0.17,-2.6100000000000003 c0.09000000000000004,-5.45 1.45,-10.92 1.34,-16.36 c0,-1 0,-2 -0.1,-3 v0 c0,-0.27 -0.05000000000000002,-0.55 -0.08000000000000003,-0.8300000000000002 a24.59,24.59 0 0 0 -13.37,-18.63 c-2.51,-1.25 -5.23,-2.08 -7.67,-3.45 c-5.6400000000000015,-3.16 -9.25,-8.86 -14.37,-12.77 c-3.81,-2.91 -9.5,-4.47 -13.75,-3 a63.49,63.49 0 0 0 -6.69,1.3800000000000001 h0 a60.35,60.35 0 0 0 -15.31,6.36 c-0.6500000000000002,0.3900000000000001 -1.3,0.79 -1.92,1.25 a8.46,8.46 0 0 0 -3.09,3.6100000000000003 a9.46,9.46 0 0 0 -0.4800000000000001,3.89 c0,0.9500000000000002 0,1.92 0.06000000000000002,2.87 c-0.28,16 -17.52,28.38 -18.94,44 c0,0.3700000000000001 -0.06000000000000002,0.7400000000000002 -0.08000000000000003,1.11 c0,0.11000000000000003 0,0.22000000000000006 0,0.3400000000000002 c0,0.45 0,0.91 0,1.37 v0 c0,0.21000000000000005 0,0.4100000000000001 0,0.6200000000000002 s0,0.4200000000000001 0,0.6300000000000002 c0.25,6.85 3.81,13.23 4.46,20.05 c0.06000000000000002,0.6100000000000002 0.09000000000000004,1.21 0.1,1.82 a30.24,30.24 0 0 1 -1.77,9.18 a26.87,26.87 0 0 0 -6.21,2.52 c-5.24,3.37 -14.7,9.19 -18.15,20.32 a29.76,29.76 0 0 0 -1.31,8.92 a186.26,186.26 0 0 1 -2.92,31.85 a59.53,59.53 0 0 1 -1.84,7.83 a1.84,1.84 0 0 0 -0.06000000000000002,0.77 l-2.08,27 l-0.3700000000000001,4.75 l-0.52,6.76 s0.15000000000000005,0.4100000000000001 0.3700000000000001,1.1 a31.8,31.8 0 0 1 0.8200000000000002,3.12 a16.78,16.78 0 0 1 0.27,7 a4.82,4.82 0 0 1 -1.46,2.5700000000000003 a1.08,1.08 0 0 0 -0.17,0.19000000000000006 c-0.5900000000000002,0.8300000000000002 -1.12,3.3 -1.58,6.88 c-0.18000000000000005,1.4 -0.3500000000000001,3 -0.52,4.66 c-1,10.65 -1.62,26.59 -2,39.77 c-0.3600000000000001,13 -0.4900000000000001,23.27 -0.4900000000000001,23.27 a26.54,26.54 0 0 0 5.37,2.66 c-0.14,0.3500000000000001 -0.2900000000000001,0.7100000000000002 -0.4300000000000001,1.09 a52.53,52.53 0 0 0 -3.26,13.74 c-0.8400000000000002,9.83 1.9100000000000001,20.75 15.620000000000001,26.37 a22.06,22.06 0 0 0 2.6900000000000004,0.92 c3,0.8 5.21,0.5800000000000002 6.84,-0.4200000000000001 c0,0.5900000000000002 0.07,1.1600000000000001 0.1,1.73 c0.14,2.44 0.26,4.67 0.3200000000000001,6.54 c0.4300000000000001,11.7 3.33,32.16 3.33,32.16 s1,8.36 0.13,10.86 s0,12.53 0,12.53 s3,5 0,7.52 s-3.89,15 -3,16.71 a0.56,0.56 0 0 1 0.05000000000000002,0.19000000000000006 c0.6600000000000003,4.15 -3.07,65.81 -3.07,65.81 s-3.5300000000000002,9.44 -6.34,19.24 c-2.74,9.54 -4.8,19.42 -2.26,21.27 c1.26,0.92 4.19,1.61 7.91,2.14 c0,0.4100000000000001 -0.06000000000000002,0.8200000000000002 -0.1,1.24 c-0.3600000000000001,4.41 -0.93,9.16 -1.75,10.36 c-1.19,1.7000000000000002 -2.44,14.88 -3.05,22 l-0.06000000000000002,0.79 a73.7,73.7 0 0 0 -3.22,9.34 s-9.57,24 -6.33,30.23 a5.11,5.11 0 0 0 1.19,1.47 h0 a2.7,2.7 0 0 0 0.3100000000000001,0.28 c4.61,3.6900000000000004 16.16,4.46 20.35,4.63 l-0.16000000000000006,5.94 v0.22000000000000006 h5.45 v-0.15000000000000005 c0,-0.7500000000000002 0.12000000000000002,-4.19 0.3000000000000001,-8.79 c0,-0.8200000000000002 0.06000000000000002,-1.6800000000000004 0.1,-2.56 c0,-0.6900000000000004 0.07,-1.3900000000000001 0.1,-2.11 A37,37 0 0 0 433.7240562438965,837.3601510620117 a58.58,58.58 0 0 1 2.1,-15.48 a43,43 0 0 1 2.77,-7.55 s1.7000000000000002,-9 -0.6700000000000004,-15.37 a11.1,11.1 0 0 0 -2,-3.46 c0,-0.21000000000000005 0,-0.4200000000000001 0,-0.6400000000000002 s0,-0.4800000000000001 0,-0.7300000000000002 s0,-0.4100000000000001 0,-0.6300000000000002 a57.69,57.69 0 0 1 1.28,-12.82 a1.42,1.42 0 0 1 0,-0.2 c0.08000000000000003,-0.3500000000000001 0.17,-0.6800000000000004 0.26,-1 l0.06000000000000002,-0.22000000000000006 l1.77,0.06000000000000002 c5.43,0.15000000000000005 9.42,0.15000000000000005 9.42,0.15000000000000005 s4.33,-22.14 3.9,-31.74 c0,-0.4200000000000001 0,-0.8600000000000002 0,-1.3 c-0.15000000000000005,-9.54 2.62,-22.51 2.62,-22.51 L458.7240562438965,690.0701510620117 s-1.73,-5.86 0,-10 c1.07,-2.58 3.2800000000000002,-7.37 4.82,-10.67 c0.7200000000000002,-1.53 1.29,-2.73 1.53,-3.25 l0.14,-0.28 a6.47,6.47 0 0 1 -1.54,-0.77 h0 c-1.4100000000000001,-0.9400000000000002 -2.67,-2.7800000000000002 1.55,-5.49 c6.49,-4.18 4.33,-14.620000000000001 4.33,-14.620000000000001 s-1.9100000000000001,-3.7600000000000002 0.3400000000000002,-7.1 s0,-15.870000000000001 0,-15.870000000000001 a52.47,52.47 0 0 0 4.44,-10.45 c1.61,-5 5.68,-29.45 7.6,-41.24 c0.6300000000000002,-3.87 1,-6.37 1,-6.37 l0.06000000000000002,0.6100000000000002 l0.06000000000000002,0.6600000000000003 h0 l0.54,5.57 l0.07,0.7400000000000002 l1,10.53 s2,27.68 0.7500000000000002,38.53 c0,0.07 0,0.14 0,0.2 a12.82,12.82 0 0 1 -0.7300000000000002,3.29 c-2.3,5.2 -1.8800000000000003,25.86 -1.7600000000000002,30.43 c0,0.3700000000000001 0,0.6700000000000004 0,0.92 s-1.6300000000000003,4.08 -1.22,7.06 h0 a4.53,4.53 0 0 0 0.79,2.1 a5.32,5.32 0 0 1 0.77,3.25 v0.1 a11.81,11.81 0 0 1 -0.12000000000000002,1.44 a27.46,27.46 0 0 1 -1.52,5.66 s-2.3200000000000003,6.1 -1.44,9.29 c0,0 0,0 0,0 a2.94,2.94 0 0 0 0.5700000000000002,1.13 a2.67,2.67 0 0 1 0.3300000000000001,1.2 a0.4300000000000001,0.4300000000000001 0 0 0 0,0.11000000000000003 c0.81,6.73 -1.28,36.44 -2.52,52.7 c-0.5,6.42 -0.8600000000000002,10.74 -0.8600000000000002,10.74 l-3.43,35.5 l0.3400000000000002,0.24000000000000005 c0.3900000000000001,0.28 1.12,0.7600000000000002 2.1,1.34 c0,0 0,0 0,0.08000000000000003 l-0.15000000000000005,1.07 c-0.4900000000000001,3.42 -1.15,7.4 -1.87,10.44 c-0.06000000000000002,0.23 -0.11000000000000003,0.45 -0.17,0.6600000000000003 a9.57,9.57 0 0 0 -3.67,1.47 c-7.28,12.93 -4.06,23.18 0,26.16 c1.15,0.8400000000000002 1.9300000000000002,3.19 2.45,6.11 l1,12.89 c0,0.52 0,1 0,1.48 a3.84,3.84 0 0 0 0.19000000000000006,1.18 l0.3100000000000001,3.91 l0.4200000000000001,5.44 h3.3200000000000003 V851.6001510620117 h0.18000000000000005 c5.24,0.18000000000000005 13.69,0.4 17.37,0.11000000000000003 h0.1 c0.3900000000000001,0 0.7200000000000002,-0.07 1,-0.11000000000000003 a2.51,2.51 0 0 0 0.5800000000000002,-0.16000000000000006 c1.9500000000000002,-0.9400000000000002 6.8100000000000005,-14.72 2.43,-17.85 s-5.35,-12 -5.35,-12 c-0.3800000000000001,-1.1600000000000001 -0.7600000000000002,-2.26 -1.15,-3.31 c0,-0.23 0,-0.45 0,-0.6800000000000004 c-0.12000000000000002,-4.29 -0.07,-8.94 0.52,-11.46 c0.6600000000000003,-2.77 1,-8.59 1.1400000000000001,-13.69 c0,-0.3900000000000001 0,-0.77 0,-1.15 v-0.12000000000000002 a17.07,17.07 0 0 0 2.23,-0.7300000000000002 l0.16000000000000006,-0.07 a15.71,15.71 0 0 0 3.73,-2.21 L513.7240562438965,733.9301510620118 l1.29,-6.3100000000000005 l7.35,-35.89 s-2.59,-12.53 0,-14.61 c0.9500000000000002,-0.7600000000000002 1.21,-4 1.15,-7.75 c-0.1,-6.5600000000000005 -1.15,-14.81 -1.15,-14.81 s3.46,-5.43 5.2,-8.77 s0,-12.11 0,-12.11 L530.9740562438965,613.6001510620117 s3.9,-23.81 13.41,-43.86 c7,-14.75 2.54,-54.58 -2,-75.78 c-0.12000000000000002,-0.55 -0.24000000000000005,-1.09 -0.3600000000000001,-1.61 l0,-0.08000000000000003 c2.14,-1.06 4.76,-2.34 7.5600000000000005,-3.68 l1.06,-0.5 c3.55,-1.6700000000000004 7.3100000000000005,-3.39 10.68,-4.82 l0.22000000000000006,-0.09000000000000004 a74.58,74.58 0 0 1 7.43,-2.7800000000000002 a12.47,12.47 0 0 1 2.2800000000000002,-0.4700000000000001 C577.2640562438964,479.5401510620117 559.0940562438965,447.8001510620117 559.0940562438965,447.8001510620117 zM423.7840562438965,515.7501510620117 l1.8,0 c-0.21000000000000005,0.3900000000000001 -0.4100000000000001,0.79 -0.6100000000000002,1.19 c-0.12000000000000002,0.24000000000000005 -0.24000000000000005,0.4700000000000001 -0.3500000000000001,0.7100000000000002 c-0.6600000000000003,1.37 -1.27,2.77 -1.77,4.14 c0.2,-1.48 0.45,-3.09 0.7300000000000002,-4.8100000000000005 C423.6540562438965,516.6001510620117 423.7240562438965,516.1501510620117 423.7840562438965,515.7501510620117 zm-4.86,26.07 a0.7400000000000002,0.7400000000000002 0 0 0 0,-0.14 l-0.15000000000000005,-0.4700000000000001 c-0.11000000000000003,-0.3200000000000001 -0.21000000000000005,-0.6400000000000002 -0.3100000000000001,-1 q0.93,-0.28 1.8900000000000001,-0.6300000000000002 l0.13,0 c0,0.11000000000000003 0,0.22000000000000006 0,0.3300000000000001 c-0.05000000000000002,0.4700000000000001 -0.11000000000000003,0.9400000000000002 -0.17,1.4 h0 a1,1 0 0 1 0,0.18000000000000005 c0,0.3800000000000001 -0.09000000000000004,0.7400000000000002 -0.13,1.1 c-0.09000000000000004,0.7200000000000002 -0.18000000000000005,1.42 -0.26,2.09 c-0.19000000000000006,-0.6300000000000002 -0.3800000000000001,-1.25 -0.5800000000000002,-1.86 C419.1440562438965,542.4901510620117 419.0340562438965,542.1501510620117 418.9240562438965,541.8201510620117 z" fill="url(#f366e0cb-9767-4f71-a21d-568f9afb6f3a)" id="svg_58"></path> <path d="M548.7240562438965,287.52015106201173 l-10.8,3.8200000000000003 l-3.92,-6.5 c-3,-5 -7.16,-11.84 -10.23,-16.81 c-5.42,-8.74 1.6700000000000004,-22.06 1.6700000000000004,-22.06 S526.7240562438965,232.60015106201172 531.2840562438964,228.4801510620117 s5.83,17.49 5.83,17.49 c18.31,8.32 8.5,27.89 8.5,27.89 l1.78,7.76 z" fill="#efb7b9" id="svg_59"></path> <path d="M548.7240562438965,287.52015106201173 l-10.8,3.8200000000000003 l-3.92,-6.5 l0,-0.5700000000000002 s6.19,-4.25 13.41,-2.6500000000000004 z" opacity="0.1" id="svg_60"></path> <path d="M531.2840562438964,331.32015106201175 l5.41,-4.58 l-2.71,-41.22 s14,-9.58 24.36,5.41 c0,0 -0.4200000000000001,9.16 0,11.66 s-2.91,5 0,7.49 s0,10.83 0,10.83 s3.29,5.83 5.37,7.49 s4.17,15.41 0,18.32 S551.7240562438965,356.3001510620117 551.7240562438965,359.21015106201173 s-10,10 -10,10 L532.9440562438965,357.6001510620117 z" fill="#ff6484" id="svg_61"></path> <path d="M414.2840562438965,581.5401510620118 c-20.18,-8.56 -15.7,-29.47 -11.9,-40 a54.46,54.46 0 0 1 2.67,-6.24 l11.32,-6.87 s2.31,5.8900000000000015 4.78,13.79 C426.8840562438965,560.6001510620117 433.4740562438965,589.6901510620118 414.2840562438965,581.5401510620118 z" fill="#efb7b9" id="svg_62"></path> <path d="M442.0240562438965,772.3301510620117 a34,34 0 0 0 -3,8.42 A60.81,60.81 0 0 0 437.7240562438965,795.0801510620117 c0.08000000000000003,3.33 0.3600000000000001,5.51 0.3600000000000001,5.51 l-22.48,15.46 s0.13,-1.81 0.3500000000000001,-4.47 c0.5800000000000002,-7.08 1.79,-20.22 2.93,-21.92 c0.79,-1.18 1.34,-5.92 1.6900000000000004,-10.32 s0.4900000000000001,-8.26 0.4900000000000001,-8.26 S448.11405624389647,760.9401510620118 442.0240562438965,772.3301510620117 z" fill="#efb7b9" id="svg_63"></path> <path d="M495.11405624389647,783.4201510620118 s0,4.3 -0.16000000000000006,9.3 s-0.46,10.9 -1.09,13.65 c-0.5800000000000002,2.52 -0.6200000000000002,7.15 -0.51,11.42 c0.15000000000000005,5 0.51,9.5 0.51,9.5 s-22.95,-21.7 -20.61,-23.42 c0.6300000000000002,-0.46 1.25,-2.31 1.82,-4.77 c0.7000000000000002,-3 1.33,-7 1.8,-10.4 c0.56,-4.05 0.91,-7.3100000000000005 0.91,-7.3100000000000005 z" fill="#efb7b9" id="svg_64"></path> <path d="M442.0240562438965,772.3301510620117 a34,34 0 0 0 -3,8.42 a183.72,183.72 0 0 1 -18.4,-1.4100000000000001 c0.3400000000000002,-4.3 0.4900000000000001,-8.26 0.4900000000000001,-8.26 S448.11405624389647,760.9401510620118 442.0240562438965,772.3301510620117 z" opacity="0.1" id="svg_65"></path> <path d="M495.11405624389647,783.4201510620118 s0,4.3 -0.16000000000000006,9.3 c-7.16,1.83 -14.52,-1.83 -18.08,-4 c0.56,-4.05 0.91,-7.3100000000000005 0.91,-7.3100000000000005 z" opacity="0.1" id="svg_66"></path> <path d="M542.1040562438965,570.7201510620117 c-9.16,20 -12.91,43.72 -12.91,43.72 l-3.33,20 s1.6700000000000004,8.74 0,12.07 s-5,8.75 -5,8.75 s2.5,20.4 0,22.48 s0,14.57 0,14.57 l-8.33,42 l-11.66,54.12 c-11.24,9.17 -26.2,-2.49 -26.2,-2.49 l3.3,-35.39 s5,-62 2.92,-64.54 S481.7240562438965,675.6001510620117 481.7240562438965,675.6001510620117 s2.92,-7.5 0.8400000000000002,-10.41 s0.4100000000000001,-9.16 0.4100000000000001,-9.16 s-0.8300000000000002,-25.4 1.6700000000000004,-31.23 s0,-41.89 0,-41.89 l-1,-11.23 l-0.5800000000000002,-6.22 l-0.05000000000000002,-0.6100000000000002 s-0.3800000000000001,2.49 -1,6.35 c-1.84,11.75 -5.76,36.1 -7.3100000000000005,41.11 a53.53,53.53 0 0 1 -4.27,10.41 s2.16,12.49 0,15.82 s-0.3300000000000001,7.08 -0.3300000000000001,7.08 s2.08,10.41 -4.17,14.57 s0,6.25 0,6.25 s-4.58,10 -6.24,14.15 s0,10 0,10 l-3.33,33.72 s-2.92,14.15 -2.5,23.73 s-3.75,31.64 -3.75,31.64 s-32.06,0 -37,-3.75 S421.36405624389647,735.6001510620117 421.36405624389647,735.6001510620117 s3.75,-64.12 2.91,-65.78 s0,-14.16 2.92,-16.65 s0,-7.5 0,-7.5 s-0.8300000000000002,-10 0,-12.49 s-0.13,-10.83 -0.13,-10.83 s-2.79,-20.4 -3.2,-32.06 s-2.5,-37.88 -2.5,-37.88 s2.18,-16.22 2.51,-23.94 c0.12000000000000002,-2.84 1.3900000000000001,-6.39 3,-9.73 a86.81,86.81 0 0 1 6.2,-10.88 S531.7240562438965,478.70015106201174 535.8640562438965,481.6001510620117 c1.1,0.77 2.7,6 4.28,13.57 C544.5440562438965,516.3201510620117 548.8440562438965,556.0201510620117 542.1040562438965,570.7201510620117 z" fill="#444053" id="svg_67"></path> <circle cx="481.3240661621094" cy="287.5201416015625" r="28.729999542236328" fill="#a1616a" id="svg_68"></circle> <path d="M540.1440562438964,495.1901510620117 c-3.31,1.7000000000000002 -5.53,2.87 -5.53,2.87 S487.9840562438965,520.1301510620117 474.7240562438965,518.8801510620117 c-10.26,-1 -36.45,-0.4300000000000001 -47.86,-0.15000000000000005 a86.81,86.81 0 0 1 6.2,-10.88 S531.7240562438965,478.70015106201174 535.8640562438965,481.6001510620117 C536.9640562438965,482.39015106201174 538.5640562438965,487.6001510620117 540.1440562438964,495.1901510620117 z" opacity="0.1" id="svg_69"></path> <path d="M461.3340562438965,333.40015106201173 S434.7240562438965,337.6001510620117 428.4440562438965,341.7201510620117 S409.7240562438965,353.8001510620117 409.7240562438965,370.8701510620117 s-2.91,34.56 -4.58,39.55 s26.23,45.38 26.23,45.38 l-10,61.21 s40,-1.25 53.32,0 s59.93,-20.82 59.93,-20.82 s27.48,-14.57 33.31,-15 s-11.66,-32.06 -11.66,-32.06 S529.2040562438965,397.9301510620117 533.7840562438964,389.6001510620117 S541.7240562438965,369.20015106201174 541.7240562438965,369.20015106201174 l-5,-42.46 s-7.49,-2.5 -13.74,2.08 s-27.48,2.08 -27.48,2.08 z" fill="#ff6484" id="svg_70"></path> <path d="M416.1640562438965,407.51015106201174 L405.7240562438965,410.4201510620117 L402.8340562438965,449.6001510620117 s3.75,10.41 0,13.74 s-4.58,74.53 -4.58,74.53 s12.08,8.74 26.23,2.08 c0,0 -2.08,-7.91 4.17,-36.64 s6.24,-43.3 6.24,-43.3 s0,-35.81 2.92,-41.64 s0,-20.4 0,-20.4 s-5.83,-7.91 -5.42,-10.82 S416.1640562438965,407.51015106201174 416.1640562438965,407.51015106201174 z" opacity="0.1" id="svg_71"></path> <path d="M421.1540562438965,542.2501510620117 a26.59,26.59 0 0 1 -18.77,-0.6800000000000004 a54.46,54.46 0 0 1 2.67,-6.24 l11.32,-6.87 S418.7240562438965,534.3501510620117 421.1540562438965,542.2501510620117 z" opacity="0.1" id="svg_72"></path> <path d="M415.5340562438965,407.51015106201174 l-10.41,2.91 L402.2140562438965,449.6001510620117 s3.75,10.41 0,13.74 s-4.58,74.53 -4.58,74.53 S409.7240562438965,546.6001510620117 423.86405624389647,539.9101510620117 c0,0 -2.08,-7.91 4.16,-36.64 s6.25,-43.3 6.25,-43.3 s0,-35.81 2.91,-41.64 s0,-20.4 0,-20.4 s-5.83,-7.91 -5.41,-10.82 S415.5340562438965,407.51015106201174 415.5340562438965,407.51015106201174 z" fill="#ff6484" id="svg_73"></path> <path d="M522.1240562438965,413.7501510620117 s-5.41,46.63 -21.24,55.38 C500.8840562438965,469.1301510620117 536.2740562438964,459.14015106201174 522.1240562438965,413.7501510620117 z" opacity="0.1" id="svg_74"></path> <path d="M442.6040562438965,417.9201510620117 s19.56,9.57 15,16.23 S442.6040562438965,417.9201510620117 442.6040562438965,417.9201510620117 z" opacity="0.1" id="svg_75"></path> <path d="M442.6040562438965,437.07015106201175 s12.49,12.91 10,17.49 S442.6040562438965,437.07015106201175 442.6040562438965,437.07015106201175 z" opacity="0.1" id="svg_76"></path> <path d="M543.3540562438965,330.07015106201175 s4.9,8.32 5.37,13.74 S543.3540562438965,330.07015106201175 543.3540562438965,330.07015106201175 z" opacity="0.1" id="svg_77"></path> <path d="M543.3540562438965,318.83015106201174 s2.46,-2.09 8.74,0 S543.3540562438965,318.83015106201174 543.3540562438965,318.83015106201174 z" opacity="0.1" id="svg_78"></path> <path d="M519.3140562438964,562.1801510620118 a57.9,57.9 0 0 1 -30.45,-3.9 l-5.25,13.44 l-0.5800000000000002,-6.22 c0.8600000000000002,-5.22 2.5300000000000002,-10.81 5.83,-12.22 C488.86405624389647,553.2801510620117 500.4240562438965,562.4901510620117 519.3140562438964,562.1801510620118 z" opacity="0.1" id="svg_79"></path> <path d="M433.9040562438965,579.6701510620118 s25.61,5.3100000000000005 32.79,4.37 z" opacity="0.1" id="svg_80"></path> <path d="M436.56405624389646,586.3801510620117 s10.93,-0.4700000000000001 16.39,1.7200000000000002 z" opacity="0.1" id="svg_81"></path> <path d="M437.81405624389646,590.9101510620117 a98,98 0 0 0 15.14,2 z" opacity="0.1" id="svg_82"></path> <path d="M437.18405624389646,648.2101510620117 c0.4700000000000001,-0.3100000000000001 21.86,-5.3100000000000005 24.52,-1.7200000000000002 z" opacity="0.1" id="svg_83"></path> <path d="M437.18405624389646,654.7701510620117 s18.58,-2.19 19.05,0 S437.18405624389646,654.7701510620117 437.18405624389646,654.7701510620117 z" opacity="0.1" id="svg_84"></path> <path d="M437.18405624389646,660.7001510620117 S457.0140562438965,656.6001510620117 459.3540562438965,657.6001510620117 S437.18405624389646,660.7001510620117 437.18405624389646,660.7001510620117 z" opacity="0.1" id="svg_85"></path> <path d="M438.12405624389646,800.6001510620117 l-22.48,15.46 s0.13,-1.81 0.3500000000000001,-4.47 c5,-12.3 11.51,-18.79 11.51,-18.79 c5.07,-1.32 8.27,-0.1 10.26,2.29 C437.8440562438965,798.4101510620117 438.12405624389646,800.6001510620117 438.12405624389646,800.6001510620117 z" opacity="0.1" id="svg_86"></path> <path d="M440.31405624389646,814.4901510620117 a55.79,55.79 0 0 0 -4.69,23 a35.67,35.67 0 0 1 -4.76,18.51 a18.24,18.24 0 0 1 -1.58,2.26 s-15.620000000000001,-0.13 -21.09,-4.66 A5.41,5.41 0 0 1 406.7240562438965,851.8001510620118 c-3.13,-6.24 6.09,-30.13 6.09,-30.13 c4.84,-18.42 14.67,-28.26 14.67,-28.26 C444.99405624389647,788.8801510620117 440.31405624389646,814.4901510620117 440.31405624389646,814.4901510620117 z" fill="#444053" id="svg_87"></path> <path d="M430.86405624389647,855.9501510620117 a18.24,18.24 0 0 1 -1.58,2.26 s-15.620000000000001,-0.13 -21.09,-4.66 c2.6900000000000004,-8.9 11.27,-35.83 15.29,-31.25 C427.2640562438965,826.6001510620117 429.8940562438965,847.2901510620118 430.86405624389647,855.9501510620117 z" opacity="0.1" id="svg_88"></path> <path d="M428.7240562438965,823.9701510620117 l-1.09,40.34 h5.24 s0.8500000000000002,-35.39 3.19,-40.34 S428.7240562438965,823.9701510620117 428.7240562438965,823.9701510620117 z" fill="#444053" id="svg_89"></path> <path d="M493.86405624389647,827.2901510620118 s-22.95,-21.7 -20.61,-23.42 c0.6300000000000002,-0.46 1.25,-2.31 1.82,-4.77 c4.41,-0.77 12,1.07 18.28,18.69 C493.50405624389646,822.7901510620118 493.86405624389647,827.2901510620118 493.86405624389647,827.2901510620118 z" opacity="0.1" id="svg_90"></path> <path d="M497.2940562438965,851.4901510620117 a2.33,2.33 0 0 1 -0.55,0.16000000000000006 c-2.7,0.4700000000000001 -12.65,0.2 -18.22,0 a3.94,3.94 0 0 1 -3.81,-3.93 c0,-1.5 0,-3.33 -0.12000000000000002,-5.28 c-0.26,-6.16 -1,-13.49 -3.21,-15.14 c-3.91,-3 -7,-13.18 0,-26.07 c0,0 13.42,-10.25 23.1,20.56 c0,0 0.9400000000000002,8.79 5.15,11.91 S499.1740562438965,850.6001510620117 497.2940562438965,851.4901510620117 z" fill="#444053" id="svg_91"></path> <path d="M496.7240562438965,851.6501510620117 c-2.7,0.4700000000000001 -12.65,0.2 -18.22,0 a3.94,3.94 0 0 1 -3.81,-3.93 c0,-1.5 0,-3.33 -0.12000000000000002,-5.28 c1.6900000000000004,-7.46 4.12,-15.14 7.25,-16.89 C481.8440562438965,825.5401510620118 491.31405624389646,824.4701510620117 496.7240562438965,851.6501510620117 z" opacity="0.1" id="svg_92"></path> <polygon points="473.0840492248535,824.6401672363281 475.6040687561035,858.2101745605469 478.80405044555664,858.2101745605469 478.80405044555664,821.7801208496094 473.0840492248535,824.6401672363281 " fill="#444053" id="svg_93"></polygon> <path d="M480.9040562438965,241.7401510620117 a57.42,57.42 0 0 0 -25.62,8.23 c-2,1.21 -4,2.68 -4.83,4.85 c-0.7200000000000002,1.8800000000000003 -0.4200000000000001,4 -0.3900000000000001,6 c0.27,17.22 -18.93,30.25 -18.33,47.46 c0.24000000000000005,6.83 3.67,13.19 4.3,20 c1.05,11.36 -5.67,21.81 -12.11,31.22 a25.86,25.86 0 0 0 18.25,-6.05 A138.39,138.39 0 0 1 444.7240562438965,423.20015106201174 l9.21,0 a7,7 0 0 1 2.6900000000000004,0.3300000000000001 a6.76,6.76 0 0 1 2.13,1.59 c8.61,8.57 14.38,21.24 11.09,32.94 l19.6,-7.35 c4.69,-1.7600000000000002 9.45,-3.55 13.53,-6.45 s7.5,-7.11 8.36,-12.05 c0.53,-3 0.3600000000000001,-6.58 2.83,-8.32 a15.4,15.4 0 0 1 3.8600000000000003,-1.4300000000000002 c5.38,-1.9 7.76,-8.12 8.86,-13.72 a79,79 0 0 0 1.25,-20.87 c-0.8700000000000002,-11.7 -4.33,-23.58 -1.48,-35 c1.61,-6.41 5.19,-12.38 5.48,-19 c0.4700000000000001,-10.91 -8.06,-20.31 -9.33,-31.16 c-0.8900000000000002,-7.5600000000000005 1.84,-15.21 0.9500000000000002,-22.77 a24.46,24.46 0 0 0 -12.870000000000001,-18.57 c-2.41,-1.24 -5,-2.07 -7.38,-3.44 c-5.43,-3.15 -8.9,-8.82 -13.83,-12.72 s-13.14,-5.37 -16.85,-0.3000000000000001 z" opacity="0.1" id="svg_94"></path> <path d="M480.9040562438965,240.4901510620117 a57.42,57.42 0 0 0 -25.62,8.23 c-2,1.21 -4,2.68 -4.83,4.85 c-0.7200000000000002,1.8800000000000003 -0.4200000000000001,4 -0.3900000000000001,6 c0.27,17.22 -18.93,30.25 -18.33,47.47 c0.24000000000000005,6.82 3.67,13.18 4.3,20 c1.05,11.36 -5.67,21.81 -12.11,31.23 a26,26 0 0 0 18.25,-6.05 A138.34,138.34 0 0 1 444.7240562438965,421.95015106201174 l9.21,0 a7,7 0 0 1 2.6900000000000004,0.3400000000000002 a6.58,6.58 0 0 1 2.13,1.58 c8.61,8.58 14.38,21.24 11.09,32.94 l19.6,-7.35 c4.69,-1.7600000000000002 9.45,-3.55 13.53,-6.45 s7.5,-7.11 8.36,-12.05 c0.53,-3 0.3600000000000001,-6.58 2.83,-8.32 a15.4,15.4 0 0 1 3.8600000000000003,-1.4300000000000002 c5.38,-1.9 7.76,-8.12 8.86,-13.72 A79,79 0 0 0 528.1640562438965,386.6001510620117 c-0.8700000000000002,-11.7 -4.33,-23.58 -1.48,-35 c1.61,-6.41 5.19,-12.38 5.48,-19 c0.4700000000000001,-10.91 -8.06,-20.31 -9.33,-31.16 c-0.8900000000000002,-7.5600000000000005 1.84,-15.2 0.9500000000000002,-22.77 a24.48,24.48 0 0 0 -12.870000000000001,-18.57 c-2.41,-1.24 -5,-2.07 -7.38,-3.43 c-5.43,-3.16 -8.9,-8.83 -13.83,-12.73 s-13.14,-5.37 -16.85,-0.3000000000000001 z" fill="#925978" id="svg_95"></path> <g opacity="0.1" id="svg_96"> <path d="M450.0440562438965,255.41015106201172 a11.12,11.12 0 0 0 -0.06000000000000002,1.1600000000000001 C450.0140562438965,256.19015106201175 450.0340562438965,255.8001510620117 450.0440562438965,255.41015106201172 z" id="svg_97"></path> <path d="M522.7240562438965,295.4401510620117 c0.3600000000000001,-5.3 1.54,-10.620000000000001 1.1,-15.9 C523.4940562438965,284.8401510620117 522.3140562438965,290.1601510620117 522.7240562438965,295.4401510620117 z" id="svg_98"></path> <path d="M436.0340562438965,321.7901510620117 c-0.5800000000000002,-6.2 -3.47,-12 -4.15,-18.19 a22.8,22.8 0 0 0 -0.15000000000000005,3.42 c0.24000000000000005,6.75 3.59,13.06 4.27,19.78 A27,27 0 0 0 436.0340562438965,321.7901510620117 z" id="svg_99"></path> <path d="M526.7240562438965,346.4201510620117 a42.88,42.88 0 0 0 -1,12.42 a37.65,37.65 0 0 1 1,-7.21 c1.61,-6.41 5.19,-12.38 5.48,-19 a20.61,20.61 0 0 0 -0.16000000000000006,-3.52 C531.2640562438964,335.0601510620117 528.1540562438964,340.6001510620117 526.7240562438965,346.4201510620117 z" id="svg_100"></path> <path d="M442.1740562438965,346.96015106201173 a26,26 0 0 1 -14.76,6 c-1.1400000000000001,1.78 -2.3200000000000003,3.52 -3.49,5.24 a26,26 0 0 0 18.25,-6.05 A138,138 0 0 1 447.99405624389647,389.6001510620117 A138.31,138.31 0 0 0 442.1740562438965,346.96015106201173 z" id="svg_101"></path> <path d="M526.9140562438965,402.2501510620117 c-1.1,5.6 -3.48,11.82 -8.86,13.71 a15,15 0 0 0 -3.8600000000000003,1.44 c-2.47,1.7400000000000002 -2.3,5.34 -2.83,8.32 c-0.8600000000000002,4.94 -4.27,9.14 -8.36,12 s-8.84,4.7 -13.53,6.46 l-18.7,7 a25.81,25.81 0 0 1 -0.9,5.55 l19.6,-7.35 c4.69,-1.7600000000000002 9.45,-3.55 13.53,-6.45 s7.5,-7.11 8.36,-12.05 c0.53,-3 0.3600000000000001,-6.58 2.83,-8.32 a15.4,15.4 0 0 1 3.8600000000000003,-1.4300000000000002 c5.38,-1.9 7.76,-8.12 8.86,-13.72 a78.42,78.42 0 0 0 1.4100000000000001,-17.7 A78.3,78.3 0 0 1 526.9140562438965,402.2501510620117 z" id="svg_102"></path> <path d="M458.7840562438965,418.6001510620117 a6.61,6.61 0 0 0 -2.13,-1.59 a7.15,7.15 0 0 0 -2.6900000000000004,-0.3400000000000002 l-8.17,0 c-0.3200000000000001,1.7400000000000002 -0.6600000000000003,3.48 -1,5.21 l9.21,0 a7,7 0 0 1 2.6900000000000004,0.3400000000000002 a6.58,6.58 0 0 1 2.13,1.58 c6.3,6.28 11.07,14.74 11.89,23.42 C471.7240562438965,436.8401510620117 466.3440562438965,426.1601510620117 458.7840562438965,418.6001510620117 z" id="svg_103"></path> </g> <path d="M413.0940562438965,452.6801510620117 s7.44,-3.12 9.1,0 S413.0940562438965,452.6801510620117 413.0940562438965,452.6801510620117 z" opacity="0.1" id="svg_104"></path> <path d="M415.7240562438965,458.0301510620117 s7.44,-3.12 9.11,0 S415.7240562438965,458.0301510620117 415.7240562438965,458.0301510620117 z" opacity="0.1" id="svg_105"></path> </g> <g id="5f43f84a-a268-4bb5-a31a-6b0c09aee323" data-name="leaves" class=""> <path d="M876.8340562438965,54.28015106201172 s-38.05,-2.29 -33.56,24.37 c0,0 -0.8900000000000002,4.71 3.38,6.85 c0,0 0.07,-2 3.9,-1.31 a17.51,17.51 0 0 0 4.13,0.2 A8.57,8.57 0 0 0 859.7240562438965,82.30015106201172 h0 s10.69,-4.41 14.85,-21.89 c0,0 3.08,-3.8200000000000003 3,-4.8 l-6.42,2.75 s2.19,4.63 0.46,8.48 c0,0 -0.2,-8.32 -1.44,-8.12 c-0.25,0 -3.33,1.6 -3.33,1.6 s3.77,8.07 0.92,13.94 c0,0 1.08,-9.94 -2.1,-13.35 L861.1240562438965,63.60015106201172 s4.41,8.33 1.42,15.13 c0,0 0.77,-10.43 -2.37,-14.49 l-4.1,3.19 S860.2240562438965,75.60015106201172 857.7240562438965,81.24015106201172 c0,0 -0.3300000000000001,-12.15 -2.51,-13.06 c0,0 -3.58,3.16 -4.12,4.46 c0,0 2.83,6 1.07,9.1 c0,0 -1.08,-8.08 -2,-8.12 c0,0 -3.5700000000000003,5.36 -3.94,9 a19.51,19.51 0 0 1 3.07,-9.55 a10.67,10.67 0 0 0 -5.46,2.84 s0.55,-3.79 6.34,-4.13 c0,0 2.95,-4.06 3.74,-4.3100000000000005 c0,0 -5.76,-0.4800000000000001 -9.25,1.07 c0,0 3.07,-3.58 10.31,-2 l4,-3.3 s-7.58,-1 -10.8,0.11000000000000003 c0,0 3.7,-3.16 11.89,-0.8600000000000002 l4.4,-2.63 s-6.46,-1.4 -10.31,-0.8900000000000002 c0,0 4.06,-2.19 11.6,0.18000000000000005 l3.15,-1.4100000000000001 s-4.74,-0.93 -6.12,-1.08 s-1.46,-0.53 -1.46,-0.53 a16.36,16.36 0 0 1 8.89,1 S876.9440562438965,54.70015106201172 876.8340562438965,54.28015106201172 z" fill="#3c71fb" opacity="0.1" id="svg_106"></path> <path d="M822.6040562438965,32.66015106201172 s-32,20.71 -12.59,39.52 c0,0 2.07,4.32 6.78,3.52 c0,0 -1.12,-1.6400000000000001 2.37,-3.37 a17.36,17.36 0 0 0 3.45,-2.29 a8.61,8.61 0 0 0 2.83,-4.67 h0 s6,-9.9 -1,-26.44 c0,0 0.22000000000000006,-4.9 -0.46,-5.62 l-3.54,6 s4.51,2.43 5.4,6.55 c0,0 -5.09,-6.57 -6,-5.68 c-0.18000000000000005,0.18000000000000005 -1.7400000000000002,3.27 -1.7400000000000002,3.27 s7.83,4.26 9,10.67 c0,0 -5,-8.65 -9.61,-9.5 l-2.08,4.8 s8.5,4.1 10.12,11.35 c0,0 -5.57,-8.86 -10.5,-10.27 l-1.4,5 s8.2,4.16 9.51,10.2 c0,0 -7.46,-9.58 -9.76,-9 c0,0 -1,4.66 -0.6800000000000004,6 c0,0 5.82,3.12 6.26,6.7 c0,0 -5.66,-5.87 -6.39,-5.38 c0,0 0.3000000000000001,6.43 2.17,9.61 a19.53,19.53 0 0 1 -3.18,-9.51 a10.7,10.7 0 0 0 -2.72,5.52 s-1.8,-3.38 2.67,-7.08 c0,0 0,-5 0.45,-5.69 c0,0 -4.92,3 -6.82,6.34 c0,0 0.3600000000000001,-4.7 7.15,-7.68 l1.3,-5.05 s-6.72,3.66 -8.63,6.49 c0,0 1.11,-4.74 9.06,-7.74 l2,-4.73 s-6,2.71 -8.84,5.4 c0,0 2,-4.18 9.46,-6.73 l1.7000000000000002,-3 s-4.37,2.06 -5.57,2.7600000000000002 s-1.49,0.4400000000000001 -1.49,0.4400000000000001 a16.39,16.39 0 0 1 7.75,-4.47 S822.9440562438965,32.94015106201172 822.6040562438965,32.66015106201172 z" fill="#3c71fb" opacity="0.1" id="svg_107"></path> <path d="M773.9040562438964,56.79015106201172 s-19.13,33 6.7,40.93 c0,0 3.81,2.91 7.6400000000000015,0 c0,0 -1.73,-0.9400000000000002 0.5900000000000002,-4.07 a17.51,17.51 0 0 0 2,-3.6 a8.64,8.64 0 0 0 0.4100000000000001,-5.45 h0 s0.8500000000000002,-11.54 -12.9,-23.11 c0,0 -2,-4.46 -3,-4.79 l-0.4300000000000001,7 s5.12,0.12000000000000002 7.79,3.39 c0,0 -7.52,-3.55 -7.9,-2.36 c-0.08000000000000003,0.24000000000000005 -0.07,3.7 -0.07,3.7 S783.7240562438965,68.70015106201171 787.7240562438965,73.88015106201172 c0,0 -8.4,-5.43 -12.870000000000001,-4.11 l0.3200000000000001,5.22 s9.43,-0.2 14.16,5.53 c0,0 -9,-5.37 -14,-4.39 l1,5.09 s9.2,0 13.1,4.78 c0,0 -11,-5.16 -12.79,-3.63 c0,0 1.21,4.62 2.13,5.69 c0,0 6.6,0.14 8.620000000000001,3.13 c0,0 -7.71,-2.67 -8.14,-1.8900000000000001 c0,0 3.19,5.59 6.3,7.57 a19.53,19.53 0 0 1 -7.15,-7 a10.71,10.71 0 0 0 0.08000000000000003,6.15 s-3.14,-2.19 -0.8400000000000002,-7.52 c0,0 -2.3,-4.46 -2.17,-5.27 c0,0 -3,4.93 -3.2,8.74 c0,0 -1.82,-4.35 2.88,-10.08 l-1.13,-5.1 s-4.33,6.3100000000000005 -4.75,9.7 c0,0 -1.1600000000000001,-4.73 4.57,-11 l-0.3800000000000001,-5.11 s-4.14,5.15 -5.42,8.82 c0,0 -0.14,-4.62 5.37,-10.29 l0.15000000000000005,-3.45 s-3,3.81 -3.71,5 S768.7240562438965,71.48015106201171 768.7240562438965,71.48015106201171 a16.46,16.46 0 0 1 4.88,-7.51 S774.3240562438965,56.88015106201172 773.9040562438964,56.79015106201172 z" fill="#3c71fb" opacity="0.1" id="svg_108"></path> </g> <path d="M938.1540562438964,432.9701510620117 a14.31,14.31 0 1 0 14.31,14.31 A14.35,14.35 0 0 0 938.1540562438964,432.9701510620117 zM896.3140562438965,320.6801510620117 v14.31 H910.6240562438965 l25.76,52.18 L925.6140562438965,404.70015106201174 a13.76,13.76 0 0 0 -1.79,6.8 c0,9.58 6.55,14.31 15.43,14.31 h83.67 V412.0501510620117 H941.0040562438965 a1.6900000000000004,1.6900000000000004 0 0 1 -1.79,-1.79 a9,9 0 0 1 0.7600000000000002,-1.78 l7.15,-11.29 h53.31 a14,14 0 0 0 12.52,-7.51 L1038.7240562438965,345.3701510620117 a8.31,8.31 0 0 0 0.7200000000000002,-3.58 a6.88,6.88 0 0 0 -7.16,-6.8 H926.3740562438965 l-6.8,-14.31 zm112.29,112.29 a14.31,14.31 0 1 0 14.32,14.31 A14.35,14.35 0 0 0 1008.6040562438965,432.9701510620117 z" fill="#3c71fb" id="svg_109" class=""></path> <polygon points="990.2940406799316,360.2701416015625 978.2940406799316,360.2701416015625 978.2940406799316,348.2701416015625 969.2940406799316,348.2701416015625 969.2940406799316,360.2701416015625 957.2940406799316,360.2701416015625 957.2940406799316,369.2701416015625 969.2940406799316,369.2701416015625 969.2940406799316,381.2701416015625 978.2940406799316,381.2701416015625 978.2940406799316,369.2701416015625 990.2940406799316,369.2701416015625 990.2940406799316,360.2701416015625 " fill="#fff" id="svg_110" class=""></polygon> </g> </svg> 