<?xml version="1.0" encoding="UTF-8"?> <svg xmlns="http://www.w3.org/2000/svg" xmlns:xlink="http://www.w3.org/1999/xlink" data-name="Layer 1" width="1200" height="900"> <rect id="backgroundrect" width="100%" height="100%" x="0" y="0" fill="none" stroke="none" class="" style=""></rect> <defs> <linearGradient id="e166b746-489b-40ec-b044-481417f87da8" x1="0.49986158354581134" y1="0.9999974119256361" x2="0.49986158354581134" y2="-0.00010997122763158033"> <stop offset="0" stop-color="gray" stop-opacity="0.25"></stop> <stop offset="0.54" stop-color="gray" stop-opacity="0.12"></stop> <stop offset="1" stop-color="gray" stop-opacity="0.1"></stop> </linearGradient> <linearGradient id="fb002706-ca86-4a39-b11f-6baa546b4cba" x1="612.52001953125" y1="436.0199890136719" x2="612.52001953125" y2="230.97000122070312" xlink:href="#e166b746-489b-40ec-b044-481417f87da8"></linearGradient> <radialGradient id="bfe43627-fb64-451a-a60b-63ec0f3e2f01" cx="626.9199829101562" cy="274.4100036621094" r="10.140000343322754" gradientUnits="userSpaceOnUse"> <stop offset="0" stop-color="#fff"></stop> <stop offset="1"></stop> </radialGradient> <radialGradient id="e811d1d0-4999-4f48-8b1f-72c39353b589" cx="1932.9200439453125" cy="274.4100036621094" r="10.140000343322754" gradientTransform="matrix(-1, 0, 0, 1, 2529, 0)" xlink:href="#bfe43627-fb64-451a-a60b-63ec0f3e2f01"></radialGradient> </defs> <title>making art</title> <g class="currentLayer" style=""> <title>Layer 1</title> <path d="M447.7848864746094,74.7827815246582 c29.21,-26 75.07,-31.33 116.8,-29.26 C695.6748864746094,52.032781524658205 814.0048864746094,115.3227815246582 916.4148864746094,186.91278152465821 c37.06,25.91 73.54,53.84 97.59,89.53 c49,72.64 34.44,173.28 -33.64,233.13 c-23.17,20.36 -51.25,36 -80.08,49.81 c-51.26,24.61 -106.57,44.36 -164.74,50 c-41.49,4 -83.49,0.7500000000000002 -124.73,-4.85 C495.5248864746094,588.8927815246582 382.4148864746094,554.3327815246582 287.61488647460936,495.2027815246582 c-41.59,-25.93 -80.78,-58.17 -97.92,-100.12 s-6.17,-95.11 36.29,-119.94 c17.56,-10.27 38.56,-14.91 59.11,-19.26 c30.26,-6.41 61,-12.73 88.31,-25.77 c28.2,-13.46 61.59,-39.49 56,-69.28 C423.4148864746094,128.8627815246582 418.61488647460936,100.7827815246582 447.7848864746094,74.7827815246582 z" fill="#3c71fb" opacity="0.1" id="svg_1" class="selected"></path> <path d="M857.0048864746094,280.3127815246582 s-10.58,-4.29 -44.24,11.14 S774.9048864746094,304.9327815246582 766.1948864746093,302.6127815246582 s-13.57,-2.92 -22.91,-15.81 c0,0 -6.59,-35.71 -13,-41.25 s-33.47,3.16 -33.47,3.16 s-32.49,7.45 -38.68,-36 c0,0 4.39,-32.72 -1.59,-42.76 c0,0 12.08,5.2 32,-3.2 S724.4148864746094,175.8027815246582 724.4148864746094,175.8027815246582 s5,13 4.5,20.76 s2.66,10.67 12.16,6.92 c0,0 4.67,-6.6400000000000015 -1.94,-17.62 s-11.33,-19.15 -9.49,-27.67 s7.15,-20.35 24.2,-26.26 s40.2,-7 51.31,-11.67 S819.0048864746094,112.6127815246582 819.0048864746094,112.6127815246582 s-6.84,6.85 9.27,35.9 s5.84,41.65 5.84,41.65 s-8.57,20.43 -46.41,18.77 c0,0 -36.46,1.33 -16.58,16.79 c0,0 12.73,-2.59 31.76,-8.64 s32.77,18.92 36.18,36.29 S857.0048864746094,280.3127815246582 857.0048864746094,280.3127815246582 z" fill="#3c71fb" id="svg_2" class="selected"></path> <path d="M807.9948864746094,134.6127815246582 l0.2,-0.06000000000000002 c1.46,5.54 -14.83,27.82 -28.76,45.53 l-0.16000000000000006,-0.13 C798.9148864746094,155.0127815246582 809.1248864746094,138.9027815246582 807.9948864746094,134.6127815246582 z" fill="#444053" id="svg_3" class="selected"></path> <path d="M779.5548864746094,179.6127815246582 l0.09000000000000004,0.22000000000000006 c-11.13,14.14 -25.12,31 -36.32,43.53 c-1.07,1.19 -2.13,2.44 -3.15,3.72 l-0.3200000000000001,-0.26 c1,-1.28 2.09,-2.54 3.16,-3.73 C754.2048864746093,210.6127815246582 768.4148864746094,193.7627815246582 779.5548864746094,179.6127815246582 z" fill="#444053" id="svg_4" class="selected"></path> <path d="M740.1248864746094,226.5027815246582 l0.22000000000000006,0.3800000000000001 c-20.38,25.45 -21.73,65 -21.78,65.31 l-4.3,-5 C714.3148864746094,286.8727815246582 719.6048864746094,252.1327815246582 740.1248864746094,226.5027815246582 z" fill="#444053" id="svg_5" class="selected"></path> <path d="M833.4148864746094,266.5127815246582 s-24,-12.5 -42.76,-8 S729.7048864746093,242.6127815246582 729.7048864746093,242.6127815246582 s-17.9,-7.27 -21.5,-15.56 c0,0 -12.29,-13 -13,-19.71 s-12.66,-23.62 -20.46,-24.27 " fill="none" stroke="#444053" stroke-miterlimit="10" id="svg_6" class="selected"></path> <path d="M829.8848864746094,278.5427815246582 s-12.1,-8.16 -10.69,-17.66 " fill="none" stroke="#444053" stroke-miterlimit="10" id="svg_7" class="selected"></path> <path d="M811.3248864746093,289.0727815246582 s-17.31,-6.28 -19,-30.92 " fill="none" stroke="#444053" stroke-miterlimit="10" id="svg_8" class="selected"></path> <path d="M783.4148864746094,295.4527815246582 s-16.54,-13.72 -11.05,-37.7 " fill="none" stroke="#444053" stroke-miterlimit="10" id="svg_9" class="selected"></path> <path d="M749.8248864746093,288.7527815246582 s-11,-23.1 -1.21,-38.13 " fill="none" stroke="#444053" stroke-miterlimit="10" id="svg_10" class="selected"></path> <path d="M833.6448864746094,251.2827815246582 s-12.51,4 -9.83,10.56 " fill="none" stroke="#444053" stroke-miterlimit="10" id="svg_11" class="selected"></path> <path d="M818.5448864746094,228.6127815246582 s-16.75,5.3100000000000005 -17.14,29 " fill="none" stroke="#444053" stroke-miterlimit="10" id="svg_12" class="selected"></path> <path d="M795.1848864746094,223.0927815246582 s-15.25,18.82 -14.13,35.92 " fill="none" stroke="#444053" stroke-miterlimit="10" id="svg_13" class="selected"></path> <path d="M768.4848864746094,230.47278152465822 s-15.14,14.48 -13.21,22.53 " fill="none" stroke="#444053" stroke-miterlimit="10" id="svg_14" class="selected"></path> <path d="M759.3548864746094,225.3627815246582 s-14.2,2.54 -16.19,-2.12 " fill="none" stroke="#444053" stroke-miterlimit="10" id="svg_15" class="selected"></path> <path d="M740.9048864746094,208.22278152465822 s7.17,9.5 9,7.37 " fill="none" stroke="#444053" stroke-miterlimit="10" id="svg_16" class="selected"></path> <path d="M812.0248864746094,202.2127815246582 s-35.8,2.6 -43.9,-8.2 " fill="none" stroke="#444053" stroke-miterlimit="10" id="svg_17" class="selected"></path> <path d="M733.4148864746094,160.3427815246582 s16.79,36.05 29,40.64 " fill="none" stroke="#444053" stroke-miterlimit="10" id="svg_18" class="selected"></path> <path d="M750.9948864746094,143.1727815246582 s10.31,33.16 23.09,43.51 " fill="none" stroke="#444053" stroke-miterlimit="10" id="svg_19" class="selected"></path> <path d="M827.0848864746093,174.8427815246582 s-27.22,11.68 -43.56,-0.14 " fill="none" stroke="#444053" stroke-miterlimit="10" stroke-width="0.75" id="svg_20" class="selected"></path> <path d="M775.2348864746094,136.1027815246582 s6.22,24.37 14.6,30.26 " fill="none" stroke="#444053" stroke-miterlimit="10" stroke-width="0.75" id="svg_21" class="selected"></path> <path d="M822.9748864746093,147.5327815246582 s-15.3,5.8 -21,1.36 " fill="none" stroke="#444053" stroke-miterlimit="10" stroke-width="0.75" id="svg_22" class="selected"></path> <path d="M727.7948864746094,216.1827815246582 s0,21.25 -5.78,22.76 " fill="none" stroke="#444053" stroke-miterlimit="10" id="svg_23" class="selected"></path> <path d="M680.5048864746094,243.7127815246582 s23,2 33.57,-9.89 " fill="none" stroke="#444053" stroke-miterlimit="10" id="svg_24" class="selected"></path> <path d="M721.8748864746094,191.0827815246582 s-5.5600000000000005,21.55 -20.9,27.36 " fill="none" stroke="#444053" stroke-miterlimit="10" id="svg_25" class="selected"></path> <path d="M666.7248864746093,221.0127815246582 s16.26,5.65 30.25,-8.74 " fill="none" stroke="#444053" stroke-miterlimit="10" id="svg_26" class="selected"></path> <path d="M703.7848864746094,172.5527815246582 s-1.53,18.3 -11.48,26.87 " fill="none" stroke="#444053" stroke-miterlimit="10" id="svg_27" class="selected"></path> <path d="M667.3448864746093,193.1227815246582 s13.49,0.09000000000000004 16.65,-4.3100000000000005 " fill="none" stroke="#444053" stroke-miterlimit="10" id="svg_28" class="selected"></path> <ellipse cx="606.4348907470703" cy="783.1027717590332" rx="376" ry="73" fill="#3c71fb" opacity="0.1" id="svg_29" class="selected"></ellipse> <polygon points="629.0148773193359,480.1427803039551 628.9048919677734,484.0327949523926 622.1448822021484,722.5527839660645 610.7848663330078,722.5527839660645 616.3448944091797,484.0327949523926 616.4548797607422,479.54277420043945 629.0148773193359,480.1427803039551 " fill="#504f60" id="svg_30" class="selected"></polygon> <polygon points="629.0148773193359,480.1427803039551 628.9048919677734,484.0327949523926 622.1448822021484,722.5527839660645 610.7848663330078,722.5527839660645 616.3448944091797,484.0327949523926 616.4548797607422,479.54277420043945 629.0148773193359,480.1427803039551 " opacity="0.1" id="svg_31" class="selected"></polygon> <polygon points="694.7748870849609,682.202808380127 686.2748870849609,682.182788848877 559.8348846435547,681.912769317627 553.0948944091797,681.902759552002 556.6848907470703,670.8427619934082 693.8848724365234,670.8427619934082 694.7748870849609,682.202808380127 " fill="#504f60" id="svg_32" class="selected"></polygon> <polygon points="629.0148773193359,480.1427803039551 628.9048919677734,484.0327949523926 616.3448944091797,484.0327949523926 616.4548797607422,479.54277420043945 629.0148773193359,480.1427803039551 " opacity="0.1" id="svg_33" class="selected"></polygon> <rect x="612.7248687744141" y="474.31279373168945" width="21.06999969482422" height="7.929999828338623" fill="#504f60" id="svg_34" class="selected"></rect> <polygon points="560.9548797607422,670.8427619934082 559.8348846435547,681.912769317627 553.0948944091797,681.902759552002 556.6848907470703,670.8427619934082 560.9548797607422,670.8427619934082 " opacity="0.1" id="svg_35" class="selected"></polygon> <polygon points="579.0948944091797,474.16276931762695 578.7548675537109,477.6027717590332 550.7048797607422,754.2427864074707 537.8548736572266,753.6328010559082 567.4048919677734,477.6027717590332 567.7348785400391,474.4627876281738 579.0948944091797,474.16276931762695 " fill="#504f60" id="svg_36" class="selected"></polygon> <polygon points="694.7748870849609,682.202808380127 686.2748870849609,682.182788848877 685.1148834228516,670.8427619934082 693.8848724365234,670.8427619934082 694.7748870849609,682.202808380127 " opacity="0.1" id="svg_37" class="selected"></polygon> <polygon points="708.2248992919922,753.6328010559082 695.3648529052734,754.2427864074707 667.3248748779297,477.6027717590332 666.9748687744141,474.16276931762695 678.3348846435547,474.4627876281738 678.6648712158203,477.6027717590332 708.2248992919922,753.6328010559082 " fill="#504f60" id="svg_38" class="selected"></polygon> <rect x="479.5648651123047" y="201.41278457641602" width="283.3599853515625" height="271.70001220703125" fill="#fff" id="svg_39" class="selected"></rect> <rect x="479.5648651123047" y="201.41278457641602" width="283.3599853515625" height="271.70001220703125" fill="#fff" id="svg_40" class="selected"></rect> <path d="M626.7648864746094,110.5527815246582 v65.6 H615.7148864746093 v-65.6 a5.53,5.53 0 1 1 11.05,0 z" fill="#504f60" id="svg_41" class="selected"></path> <rect x="615.7148895263672" y="170.18278121948242" width="11.0600004196167" height="5.96999979019165" opacity="0.1" id="svg_42" class="selected"></rect> <path d="M631.1048864746094,174.66278152465821 v21.67 H611.4148864746094 V174.66278152465821 a2.6900000000000004,2.6900000000000004 0 0 1 2.6900000000000004,-2.6900000000000004 H628.4148864746094 A2.7,2.7 0 0 1 631.1048864746094,174.66278152465821 z" fill="#504f60" id="svg_43" class="selected"></path> <circle cx="621.2448883056641" cy="185.72278213500977" r="4.179999828338623" opacity="0.1" id="svg_44" class="selected"></circle> <circle cx="621.2448883056641" cy="184.8227882385254" r="4.179999828338623" fill="#3f3d56" id="svg_45" class="selected"></circle> <rect x="611.3848724365234" y="193.64278030395508" width="19.729999542236328" height="2.690000057220459" opacity="0.1" id="svg_46" class="selected"></rect> <rect x="603.3048858642578" y="197.2327766418457" width="35.869998931884766" height="5.980000019073486" opacity="0.1" id="svg_47" class="selected"></rect> <rect x="603.3048858642578" y="195.43278884887695" width="35.869998931884766" height="5.980000019073486" fill="#504f60" id="svg_48" class="selected"></rect> <path d="M548.6848797607422,466.1127815246582 H699.3348797607422 a6.5,6.5 0 0 1 6.5,6.5 v1.42 a0,0 0 0 1 0,0 H542.1848797607422 a0,0 0 0 1 0,0 v-1.42 A6.5,6.5 0 0 1 548.6848797607422,466.1127815246582 z" opacity="0.1" id="svg_49" class="selected"></path> <polygon points="567.7348785400391,474.4627876281738 579.0948944091797,474.16276931762695 578.7548675537109,477.6027717590332 567.4048919677734,477.6027717590332 567.7348785400391,474.4627876281738 " opacity="0.1" id="svg_50" class="selected"></polygon> <rect x="612.7248687744141" y="474.31279373168945" width="21.06999969482422" height="3.2899999618530273" opacity="0.1" id="svg_51" class="selected"></rect> <polygon points="678.6648712158203,477.6027717590332 667.3248748779297,477.6027717590332 666.9748687744141,474.16276931762695 678.3348846435547,474.4627876281738 678.6648712158203,477.6027717590332 " opacity="0.1" id="svg_52" class="selected"></polygon> <path d="M548.6848797607422,467.8827815246582 H699.3348797607422 a6.5,6.5 0 0 1 6.5,6.5 v1.42 a0,0 0 0 1 0,0 H542.1848797607422 a0,0 0 0 1 0,0 v-1.42 A6.5,6.5 0 0 1 548.6848797607422,467.8827815246582 z" fill="#504f60" id="svg_53" class="selected"></path> <path d="M569.9548864746093,229.7427815246582 c8.78,-11.09 22.55,-13.34 35.09,-12.46 c39.38,2.77 74.93,29.72 105.68,60.2 c11.13,11 22.09,22.92 29.32,38.12 c14.71,30.93 10.34,73.78 -10.11,99.26 c-7,8.67 -15.4,15.32 -24.06,21.21 c-15.39,10.48 -32,18.88 -49.49,21.28 c-12.46,1.71 -25.08,0.3200000000000001 -37.47,-2.06 c-34.61,-6.66 -68.59,-21.37 -97.07,-46.55 c-12.5,-11 -24.27,-24.76 -29.42,-42.62 s-1.85,-40.5 10.9,-51.07 c5.28,-4.38 11.59,-6.35 17.76,-8.21 c9.09,-2.72 18.33,-5.42 26.53,-11 c8.47,-5.74 18.5,-16.82 16.82,-29.51 C562.6348864746094,252.7627815246582 561.1948864746093,240.8127815246582 569.9548864746093,229.7427815246582 z" fill="#3c71fb" opacity="0.05" id="svg_54" class="selected"></path> <path d="M561.4148864746094,361.3427815246582 l-81.79,21.7 l-2.93,9.9 a37.37,37.37 0 0 1 -10.23,-2.56 c-1.58,-0.6600000000000003 -7,-4 -11.52,-5.84 a14.6,14.6 0 0 1 1.82,-6.78 c4.21,-7.46 10.27,-14.59 10.06,-23.09 c-0.07,-3 -0.91,-6 -1.44,-9 a88,88 0 0 1 -0.8200000000000002,-16.32 c0,-2.8600000000000003 0.07,-5.71 0.1,-8.56 c0.46,0.17 0.93,0.3400000000000002 1.4300000000000002,0.4900000000000001 c0.7300000000000002,0.23 1.3800000000000001,0.45 2,0.6800000000000004 c0,0.06000000000000002 0,0.11000000000000003 0,0.16000000000000006 a5.82,5.82 0 0 0 -0.2,1.44 c7.58,2.92 7,5.76 7,5.76 l0.7200000000000002,0.15000000000000005 c1.1,-5 0.56,-9 -0.8700000000000002,-12 l-0.4,-0.08000000000000003 a14.2,14.2 0 0 0 -7.23,-7.16 c-0.81,-0.3900000000000001 -1.57,-0.79 -2.2800000000000002,-1.19 q0.11000000000000003,-9.27 0.2,-18.53 a20.76,20.76 0 0 0 -0.55,-6.24 a27.39,27.39 0 0 0 -3.22,-6.06 c-1.2,-2 -2.29,-4 -3.55,-6 a26.64,26.64 0 0 1 3.6500000000000004,-3.16 c0.7400000000000002,-0.54 1.5,-1.06 2.26,-1.58 l1.15,-0.79 c1.15,-0.79 2.29,-1.59 3.36,-2.45 a21.83,21.83 0 0 0 2.94,-2.8200000000000003 a15.66,15.66 0 0 0 1.25,-1.7200000000000002 l0.2,-0.3000000000000001 a16.71,16.71 0 0 0 1,-1.77 c0.06000000000000002,-0.11000000000000003 0.1,-0.22000000000000006 0.15000000000000005,-0.3300000000000001 a19.9,19.9 0 0 0 0.7500000000000002,-1.94 a0.06000000000000002,0.06000000000000002 0 0 0 0,0 a21,21 0 0 0 0.55,-2.07 a1.8900000000000001,1.8900000000000001 0 0 1 0.05000000000000002,-0.23 c0.14,-0.7000000000000002 0.25,-1.4100000000000001 0.3400000000000002,-2.12 l0,-0.24000000000000005 a35.59,35.59 0 0 0 0,-7 h0 c-0.11000000000000003,-1.18 -0.25,-2.36 -0.4400000000000001,-3.51 c-1.19,-7.33 -3.55,-14.6 -3,-22 c0,-0.3100000000000001 0.07,-0.6300000000000002 0.11000000000000003,-0.9400000000000002 h0 c0.5,-4.74 2.09,-9.44 3.56,-14.1 c0.12000000000000002,-0.4 0.25,-0.79 0.3700000000000001,-1.19 c0.06000000000000002,-0.18000000000000005 0.11000000000000003,-0.3600000000000001 0.17,-0.54 c0.18000000000000005,-0.5900000000000002 0.3500000000000001,-1.18 0.52,-1.77 l0,-0.08000000000000003 c1.29,-4.51 2.14,-9 1.46,-13.42 h0 a19.46,19.46 0 0 0 -0.6400000000000002,-2.85 c-1.9500000000000002,-6.11 -7,-10.73 -12,-14.88 c-8.85,-7.38 -18.27,-14.37 -29.07,-18.58 a50.84,50.84 0 0 0 -29.76,-2.47 c-10.1,2.23 -20,1.6500000000000004 -29.9,5.86 c-3.3200000000000003,1.42 -6.77,3.39 -8.08,6.7 c-0.8200000000000002,2.08 -0.6800000000000004,4.37 -0.8600000000000002,6.59 a22.85,22.85 0 0 1 -6.49,14.08 c-2.6900000000000004,2.71 -6,4.73 -8.66,7.5 a18.86,18.86 0 0 0 -4.73,9 h0 a16.53,16.53 0 0 0 -0.2900000000000001,5.05 v0.05000000000000002 c0,0.3800000000000001 0.1,0.7500000000000002 0.17,1.12 c0,0.05000000000000002 0,0.1 0,0.14 c0.07,0.3600000000000001 0.16000000000000006,0.7100000000000002 0.25,1.06 a1.1600000000000001,1.1600000000000001 0 0 1 0,0.18000000000000005 c0.1,0.3400000000000002 0.22000000000000006,0.6800000000000004 0.3500000000000001,1 l0.06000000000000002,0.2 a12.31,12.31 0 0 0 0.53,1.17 c1,1.9300000000000002 2.37,3.63 3.41,5.52 c0.25,0.46 0.4800000000000001,0.92 0.6800000000000004,1.3900000000000001 a24.36,24.36 0 0 1 1.6700000000000004,5.95 c0.16000000000000006,1 0.28,2.06 0.3800000000000001,3.09 c0.05000000000000002,0.52 0.09000000000000004,1 0.13,1.55 a109.39,109.39 0 0 1 -0.5900000000000002,21.63 c-0.22000000000000006,1.77 -0.4800000000000001,3.56 -0.6600000000000003,5.34 h0 c0,0.2900000000000001 -0.05000000000000002,0.5800000000000002 -0.08000000000000003,0.8700000000000002 c-2.83,1.21 -5.26,3.08 -6.37,5.85 c-0.93,2.2800000000000002 -0.81,4.8 -0.91,7.24 c-0.12000000000000002,3.6500000000000004 -0.8,7.39 -2.91,10.39 c-2.6900000000000004,1.23 -3.7800000000000002,3.92 -4.25,6.78 a40.65,40.65 0 0 0 -0.53,6.88 c0,2.89 0.08000000000000003,5.84 0.3100000000000001,8.77 h0 c-0.19000000000000006,0.3500000000000001 -0.3700000000000001,0.7200000000000002 -0.54,1.1 c0,0.07 0,0.13 -0.08000000000000003,0.19000000000000006 c-0.14,0.3300000000000001 -0.27,0.6600000000000003 -0.4,1 c0,0.06000000000000002 -0.05000000000000002,0.12000000000000002 -0.07,0.19000000000000006 c-0.15000000000000005,0.3900000000000001 -0.28,0.79 -0.4100000000000001,1.19 h0 c-0.12000000000000002,0.3800000000000001 -0.23,0.77 -0.3300000000000001,1.1600000000000001 l-0.06000000000000002,0.25 c-0.09000000000000004,0.3500000000000001 -0.17,0.6900000000000004 -0.25,1 l0,0.14 c-0.08000000000000003,0.3800000000000001 -0.15000000000000005,0.7500000000000002 -0.22000000000000006,1.11 a1.7000000000000002,1.7000000000000002 0 0 1 0,0.22000000000000006 c0,0.28 -0.09000000000000004,0.56 -0.13,0.8200000000000002 l0,0.26 c-0.05000000000000002,0.3200000000000001 -0.08000000000000003,0.6300000000000002 -0.11000000000000003,0.92 s0,0.4700000000000001 -0.06000000000000002,0.7100000000000002 a15.68,15.68 0 0 1 -0.8300000000000002,4.92 a17,17 0 0 1 -1.1,2.06 c-0.13,0.23 -0.26,0.46 -0.3700000000000001,0.6900000000000004 a11.76,11.76 0 0 0 -1,3.12 a14.870000000000001,14.870000000000001 0 0 0 -0.23,1.6300000000000003 c-0.1,1.1 -0.12000000000000002,2.23 -0.11000000000000003,3.35 c0,0.5700000000000002 0,1.13 0,1.7000000000000002 c0,1.13 0,2.26 0,3.37 a34.2,34.2 0 0 1 -0.4800000000000001,3.7600000000000002 q-0.17,0.93 -0.3600000000000001,1.86 c-0.13,0.6200000000000002 -0.27,1.24 -0.4100000000000001,1.86 q-0.8400000000000002,3.84 -1.6900000000000004,7.69 c-0.5700000000000002,2.56 -1.1400000000000001,5.12 -1.73,7.67 c-1.18,5.12 -2.4,10.22 -3.72,15.3 a39,39 0 0 0 -0.8700000000000002,3.92 a13.19,13.19 0 0 0 -0.09000000000000004,3.91 a7.8,7.8 0 0 0 0.7600000000000002,2.46 c0.2,0.4 0.45,0.79 0.6800000000000004,1.18 a9.14,9.14 0 0 1 0.6300000000000002,1.2 c0.7000000000000002,1.73 0.3900000000000001,3.6900000000000004 0.53,5.55 a7.34,7.34 0 0 0 0.3500000000000001,1.81 a5.84,5.84 0 0 0 5,3.73 a4.83,4.83 0 0 0 0.8500000000000002,0 l0.78,1.85 c0.8,1.8800000000000003 1.6500000000000004,3.84 3.27,5.12 a8.69,8.69 0 0 0 7.16,1.28 a25.26,25.26 0 0 0 6.85,-3 c5.17,-2.88 10.35,-5.77 15.45,-8.78 a11.15,11.15 0 0 1 2.34,3.49 a3.2,3.2 0 0 1 0.17,1.1600000000000001 a6.24,6.24 0 0 1 -0.7100000000000002,2.24 c-1.25,2.66 -2.48,5.32 -3.71,8 c-8.61,18.52 -6.6,40.09 -4.79,60.36 c0.78,8.57 2.1,17.07 2.8200000000000003,25.64 c1.8,21.26 0,42.73 2.44,63.92 c1.33,11.42 3.92,22.66 5.68,34 a239.56,239.56 0 0 1 2.7600000000000002,31.3 c1,-0.3000000000000001 1.9500000000000002,-0.56 2.93,-0.8 l1.07,-0.26 c0.7400000000000002,-0.17 1.48,-0.3100000000000001 2.22,-0.45 s1.35,-0.23 2,-0.3300000000000001 h0 a68.2,68.2 0 0 1 13.71,-0.56 l1.83,0.15000000000000005 c0.17,1.42 0.3400000000000002,2.8 0.4700000000000001,4.08 c0,0.3500000000000001 0.07,0.7000000000000002 0.1,1 a182.71,182.71 0 0 0 2.4,18.22 a14.78,14.78 0 0 1 0.3600000000000001,5 c-0.46,2.73 -2.46,4.94 -4.4,7 c-5.42,5.5600000000000005 -11.19,10.9 -15.3,17.45 c-4.91,7.82 -7.18,16.91 -9.37,25.83 c-3.2800000000000002,13.25 -6.53,26.52 -8.41,40 a7.13,7.13 0 0 0 0,2.48 a1.62,1.62 0 0 0 -0.1,0.18000000000000005 c-2.26,3.7800000000000002 -5.42,7.1 -6.82,11.33 a29.08,29.08 0 0 0 -1,8.58 q-0.13,7.5 -0.28,15 c-0.21000000000000005,10.870000000000001 -0.3800000000000001,21.94 2.88,32.33 a26.15,26.15 0 0 0 5.24,9.89 a13.8,13.8 0 0 0 10,4.75 a17.65,17.65 0 0 0 4.67,-0.8 l0.7600000000000002,-0.24000000000000005 a13.42,13.42 0 0 0 0.3400000000000002,6.71 a4.71,4.71 0 0 0 1.19,2.08 a5.3,5.3 0 0 0 1.7400000000000002,1 c9.79,3.8 21,0.4900000000000001 31.33,2.31 c12.05,2.11 22.22,11 34.41,12 c2.6,0.22000000000000006 5.42,0 7.45,-1.61 a7.67,7.67 0 0 0 2.41,-7.35 a8.46,8.46 0 0 0 -0.4900000000000001,-1.61 a10.42,10.42 0 0 0 -8.24,-6.2 a38.82,38.82 0 0 1 -27.28,-17.61 c-5,-8.07 -6.61,-17.77 -6.3100000000000005,-27.18 s2.4,-18.68 4.51,-27.87 q6.34,-27.66 12.7,-55.31 a199.83,199.83 0 0 0 4,-21.08 c0.4200000000000001,-3.62 0.6400000000000002,-7.27 0.7500000000000002,-10.93 c0.3100000000000001,-0.54 0.6100000000000002,-1.08 0.91,-1.6300000000000003 c3.6,-6.61 7,-13.46 8.4,-20.82 a81.54,81.54 0 0 0 1,-11.88 c0,-0.3600000000000001 0,-0.6900000000000004 0,-1 c0.05000000000000002,-1.36 0.1,-2.73 0.16000000000000006,-4.09 c0.3300000000000001,0 0.6600000000000003,0 1,-0.06000000000000002 c11.56,-1.19 21.36,-11.06 32.94,-10.06 c1,0.8300000000000002 1.75,-0.7600000000000002 2.34,-1.8800000000000003 c5.92,-11.15 3.23,-24.58 0.92,-36.94 a471.23,471.23 0 0 1 -7.95,-101.34 c0.4400000000000001,-14.66 1.3900000000000001,-30 -1.4,-44.2 l75.57,-25 zm-38.82,19 c0,1.17 -1.51,2.16 -3.62,2.54 a14.78,14.78 0 0 1 0.16000000000000006,-2.67 a3.48,3.48 0 0 0 -1,-2.5300000000000002 C520.6748864746094,377.9027815246582 522.6148864746094,379.0027815246582 522.6148864746094,380.3227815246582 zM514.4148864746094,377.9727815246582 a3.55,3.55 0 0 0 -0.7600000000000002,2.22 a3.37,3.37 0 0 1 0,1.6300000000000003 a3.36,3.36 0 0 0 0.06000000000000002,0.6300000000000002 c-1.29,-0.5 -2.14,-1.26 -2.14,-2.13 S512.6748864746094,378.4427815246582 514.4148864746094,377.9727815246582 zM355.9148864746094,353.1927815246582 l0.13,0.4900000000000001 l-0.93,0 zm28.32,449.19 c-1.7000000000000002,-8 -1.6400000000000001,-16.33 -1.57,-24.55 q0.08000000000000003,-10.15 0.17,-20.31 a48.52,48.52 0 0 1 0.54,-8.26 c0.26,-1.45 0.6500000000000002,-2.89 0.9400000000000002,-4.33 a52.5,52.5 0 0 1 4.06,-8 s0,0.07 0,0.1 c-0.6300000000000002,11.91 -2.84,24.27 -0.7000000000000002,35.95 A51.16,51.16 0 0 1 384.23488647460937,802.3827815246582 zm83.27,-391.1 c-0.26,-0.4400000000000001 -0.53,-0.8600000000000002 -0.8,-1.29 c1.52,0.45 3,0.8900000000000002 4.57,1.32 l-1.36,4.61 C469.17488647460937,414.3527815246582 468.4148864746094,412.8027815246582 467.50488647460935,411.2827815246582 z" fill="url(#e166b746-489b-40ec-b044-481417f87da8)" id="svg_55" class="selected"></path> <path d="M377.12488647460935,155.7727815246582 c-3.24,1.4100000000000001 -6.6,3.38 -7.88,6.68 c-0.8,2.06 -0.6600000000000003,4.35 -0.8300000000000002,6.55 a22.94,22.94 0 0 1 -6.33,14 c-2.62,2.7 -5.88,4.72 -8.43,7.47 c-4.6400000000000015,5 -6.53,12.8 -3.51,18.92 c0.9400000000000002,1.92 2.31,3.6100000000000003 3.3200000000000003,5.5 c1.9500000000000002,3.62 2.5,7.82 2.7800000000000002,11.93 a111.58,111.58 0 0 1 -0.56,21.54 c-0.5700000000000002,4.57 -1.4100000000000001,9.25 -0.3400000000000002,13.73 a30,30 0 0 0 4.26,8.94 c4.9,7.7 10.59,15.13 18.16,20.24 c7.8100000000000005,5.27 17.23,7.79 26.62,8.53 s18.84,-0.18000000000000005 28.19,-1.31 c7,-0.8400000000000002 15.18,-2.59 18.17,-9 c1.6600000000000001,-3.59 1.23,-7.86 2.79,-11.49 c2.81,-6.55 10.91,-9 15.44,-14.44 c4.72,-5.69 4.92,-13.870000000000001 3.7600000000000002,-21.17 s-3.46,-14.55 -2.92,-21.93 c0.8600000000000002,-11.85 9,-23.41 5.42,-34.76 c-1.8900000000000001,-6.09 -6.82,-10.68 -11.68,-14.82 c-8.620000000000001,-7.35 -17.79,-14.32 -28.32,-18.5 a48.47,48.47 0 0 0 -29,-2.47 C396.4148864746094,152.16278152465821 386.73488647460937,151.6127815246582 377.12488647460935,155.7727815246582 z" fill="#2f2e41" id="svg_56" class="selected"></path> <g opacity="0.08" id="svg_57" class="selected"> <path d="M356.4148864746094,231.4027815246582 a109.46,109.46 0 0 0 -0.21000000000000005,-11.31 c-0.28,-4.1 -0.8300000000000002,-8.3 -2.7800000000000002,-11.93 c-1,-1.8900000000000001 -2.38,-3.5700000000000003 -3.3200000000000003,-5.49 a13.86,13.86 0 0 1 -1.1,-3.19 a15.38,15.38 0 0 0 1.1,9.94 c0.9400000000000002,1.92 2.31,3.6100000000000003 3.3200000000000003,5.5 c1.9500000000000002,3.62 2.5,7.82 2.7800000000000002,11.93 C356.3548864746094,228.3627815246582 356.4148864746094,229.8827815246582 356.4148864746094,231.4027815246582 z" id="svg_58"></path> <path d="M469.81488647460935,213.7327815246582 a35.22,35.22 0 0 0 0.1,5.8100000000000005 c1.1,-10.53 7.48,-20.84 5.95,-31 C474.7748864746094,196.8227815246582 470.4148864746094,205.2027815246582 469.81488647460935,213.7327815246582 z" id="svg_59"></path> <path d="M468.9748864746094,256.83278152465823 c-4.53,5.49 -12.63,7.8900000000000015 -15.44,14.43 c-1.56,3.64 -1.13,7.91 -2.79,11.5 c-3,6.41 -11.14,8.16 -18.17,9 c-9.35,1.13 -18.79,2.06 -28.19,1.31 s-18.81,-3.26 -26.62,-8.53 c-7.57,-5.11 -13.26,-12.54 -18.16,-20.25 a30,30 0 0 1 -4.26,-8.93 a15.64,15.64 0 0 1 -0.3100000000000001,-1.6600000000000001 a25.23,25.23 0 0 0 0.3100000000000001,8.41 a30,30 0 0 0 4.26,8.94 c4.9,7.7 10.59,15.13 18.16,20.24 c7.8100000000000005,5.27 17.23,7.79 26.62,8.53 s18.84,-0.18000000000000005 28.19,-1.31 c7,-0.8400000000000002 15.18,-2.59 18.17,-9 c1.6600000000000001,-3.59 1.23,-7.86 2.79,-11.49 c2.81,-6.55 10.91,-9 15.44,-14.44 c4,-4.8 4.74,-11.37 4.19,-17.68 A19.91,19.91 0 0 1 468.9748864746094,256.83278152465823 z" id="svg_60"></path> </g> <path d="M446.98488647460937,302.8627815246582 c-3.59,4 -9,6.09 -14.4,6.36 a35.87,35.87 0 0 1 -15.68,-3.26 a57.93,57.93 0 0 1 -34.08,-45.06 a9.49,9.49 0 0 1 0.19000000000000006,-4.47 c1.45,-4.08 6.84,-4.74 10.46,-7.16 c3.3,-2.19 5.15,-6 6.07,-9.89 c0.24000000000000005,-1.05 0.4400000000000001,-2.1 0.6000000000000002,-3.17 c0.4200000000000001,-2.85 0.6400000000000002,-5.74 1.1400000000000001,-8.58 a9.11,9.11 0 0 1 1.3800000000000001,-3.85 a8.51,8.51 0 0 1 3.63,-2.62 c8.45,-3.67 19.46,-2 27.86,1.18 c2.81,1.07 2.27,1.3900000000000001 1.2,4.15 a55.4,55.4 0 0 0 -1.79,5.37 c-0.15000000000000005,0.51 -0.2900000000000001,1 -0.4200000000000001,1.54 a60,60 0 0 0 -1.84,14.37 c0,4.44 0.51,9.09 2.94,12.82 c3.87,5.91 11.74,8.4 15.26,14.53 a20.58,20.58 0 0 1 2.29,7.86 C452.6448864746094,289.9527815246582 451.67488647460937,297.6127815246582 446.98488647460937,302.8627815246582 z" fill="#fbbebe" id="svg_61" class="selected"></path> <path d="M356.4748864746094,748.4627815246582 a29.47,29.47 0 0 0 -1,8.54 l-0.28,15 c-0.2,10.82 -0.3700000000000001,21.85 2.8200000000000003,32.19 a26.08,26.08 0 0 0 5.1,9.86 a13.3,13.3 0 0 0 9.76,4.73 a16.87,16.87 0 0 0 4.55,-0.81 c2.68,-0.78 5.48,-2 6.93,-4.38 c1.9300000000000002,-3.18 0.8600000000000002,-7.22 0.09000000000000004,-10.86 c-1.71,-8.1 -1.6500000000000004,-16.45 -1.58,-24.73 l0.17,-20.23 a49,49 0 0 1 0.52,-8.22 c0.3900000000000001,-2.17 1.07,-4.3 1.24,-6.49 a7,7 0 0 0 -1.13,-4.85 a6.73,6.73 0 0 0 -3.71,-2.17 c-2.5700000000000003,-0.6600000000000003 -5.27,-0.4900000000000001 -7.9,-0.8900000000000002 a11.3,11.3 0 0 1 -3.4,-1 c-0.6400000000000002,-0.3100000000000001 -2,-1.7400000000000002 -2.66,-1.73 c-1.3,0 -2.15,3.5700000000000003 -2.87,4.8 C360.9148864746094,740.9327815246583 357.8348864746094,744.2427815246582 356.4748864746094,748.4627815246582 z" fill="#fbbebe" id="svg_62" class="selected"></path> <path d="M439.3248864746094,609.4527815246582 c-7.12,21.26 -2.2800000000000002,44.72 -4.86,67.08 a200,200 0 0 1 -3.93,21 L418.1648864746094,752.6127815246582 c-2.05,9.16 -4.12,18.38 -4.4,27.76 s1.32,19 6.16,27.07 a37.76,37.76 0 0 0 26.57,17.54 a10.19,10.19 0 0 1 8,6.18 a8.8,8.8 0 0 1 0.4700000000000001,1.6 a7.72,7.72 0 0 1 -2.35,7.32 c-2,1.6 -4.72,1.82 -7.25,1.61 c-11.88,-1 -21.79,-9.88 -33.53,-12 c-10.1,-1.81 -21,1.49 -30.52,-2.3 a5.17,5.17 0 0 1 -1.6900000000000004,-1 a4.68,4.68 0 0 1 -1.1600000000000001,-2.06 c-2.24,-7 2.36,-14.08 5.4,-20.76 a51.92,51.92 0 0 0 3.84,-30.48 c-2.08,-11.64 0.07,-23.94 0.6900000000000004,-35.8 A216.62,216.62 0 0 1 392.87488647460935,704.6127815246582 c1.5,-7.19 2.77,-14.54 5.69,-21.29 c1.75,-4 4.06,-7.8100000000000005 5.9,-11.8 c3.4,-7.37 5.14,-15.38 6.82,-23.32 c3.38,-16 6.66,-32.13 6.66,-48.47 a50.11,50.11 0 0 1 18.39,3.45 A5.15,5.15 0 0 1 439.3248864746094,609.4527815246582 z" fill="#fbbebe" id="svg_63" class="selected"></path> <path d="M439.3248864746094,609.4527815246582 c-7.12,21.26 -2.2800000000000002,44.72 -4.86,67.08 a200,200 0 0 1 -3.93,21 L418.1648864746094,752.6127815246582 c-2.05,9.16 -4.12,18.38 -4.4,27.76 s1.32,19 6.16,27.07 a37.76,37.76 0 0 0 26.57,17.54 a10.19,10.19 0 0 1 8,6.18 a8.8,8.8 0 0 1 0.4700000000000001,1.6 a7.72,7.72 0 0 1 -2.35,7.32 c-2,1.6 -4.72,1.82 -7.25,1.61 c-11.88,-1 -21.79,-9.88 -33.53,-12 c-10.1,-1.81 -21,1.49 -30.52,-2.3 a5.17,5.17 0 0 1 -1.6900000000000004,-1 a4.68,4.68 0 0 1 -1.1600000000000001,-2.06 c-2.24,-7 2.36,-14.08 5.4,-20.76 a51.92,51.92 0 0 0 3.84,-30.48 c-2.08,-11.64 0.07,-23.94 0.6900000000000004,-35.8 A216.62,216.62 0 0 1 392.87488647460935,704.6127815246582 c1.5,-7.19 2.77,-14.54 5.69,-21.29 c1.75,-4 4.06,-7.8100000000000005 5.9,-11.8 c3.4,-7.37 5.14,-15.38 6.82,-23.32 c3.38,-16 6.66,-32.13 6.66,-48.47 a50.11,50.11 0 0 1 18.39,3.45 A5.15,5.15 0 0 1 439.3248864746094,609.4527815246582 z" opacity="0.08" id="svg_64" class="selected"></path> <path d="M446.4748864746094,599.4127815246582 q-0.6000000000000002,15.5 -1.15,31 c0,0.3500000000000001 0,0.6900000000000004 0,1 a82.12,82.12 0 0 1 -1,11.83 c-1.35,7.34 -4.67,14.16 -8.18,20.75 a46.53,46.53 0 0 1 -3.59,6 c-1.18,1.6 -2.55,3.06 -3.6500000000000004,4.7 c-2.85,4.26 -3.73,9.48 -5.4,14.32 c-7.63,22.08 -31.44,35.4 -39.42,57.34 a126.44,126.44 0 0 1 -17.68,-6.39 a4.15,4.15 0 0 1 -3.09,-5.43 c1.82,-13.43 5,-26.65 8.18,-39.85 c2.13,-8.89 4.35,-17.93 9.13,-25.73 c4,-6.52 9.63,-11.84 14.91,-17.38 c1.8900000000000001,-2 3.84,-4.2 4.28,-6.91 a14.620000000000001,14.620000000000001 0 0 0 -0.3500000000000001,-5 q-1.62,-9 -2.34,-18.15 c0,-0.3400000000000002 0,-0.6900000000000004 -0.09000000000000004,-1 c-0.45,-4.59 -1.54,-10.56 -0.54,-14.85 c1.81,-7.8 17,-9.4 23.65,-9.56 C428.9548864746094,595.8527815246582 437.7648864746094,597.6127815246582 446.4748864746094,599.4127815246582 z" fill="#fbbebe" id="svg_65" class="selected"></path> <path d="M464.5248864746094,392.0527815246582 c10.09,4.29 21.65,3.06 32.36,0.6500000000000002 s21.31,-5.91 32.28,-6 c3.07,0 6.93,0.91 7.46,3.94 c0.28,1.58 -0.55,3.13 -1.35,4.53 c-1.47,2.59 -3.05,5.29 -5.58,6.85 c-2,1.21 -4.3,1.61 -6.52,2.24 c-4.15,1.18 -8,3.24 -12,4.82 c-6.79,2.68 -14,4 -21.23,5.26 a40.51,40.51 0 0 1 -10.22,0.93 a37.13,37.13 0 0 1 -6.76,-1.35 q-9.75,-2.64 -19.28,-6 c-1.26,-0.45 -2.66,-1 -3.16,-2.2800000000000002 a5.29,5.29 0 0 1 -0.15000000000000005,-2.38 a29.09,29.09 0 0 0 -0.8400000000000002,-9.57 c-0.4100000000000001,-1.56 -3.62,-7.13 -2.54,-8.26 C449.48488647460937,382.8027815246582 462.00488647460935,390.9827815246582 464.5248864746094,392.0527815246582 z" fill="#fbbebe" id="svg_66" class="selected"></path> <path d="M464.5248864746094,392.0527815246582 c10.09,4.29 21.65,3.06 32.36,0.6500000000000002 s21.31,-5.91 32.28,-6 c3.07,0 6.93,0.91 7.46,3.94 c0.28,1.58 -0.55,3.13 -1.35,4.53 c-1.47,2.59 -3.05,5.29 -5.58,6.85 c-2,1.21 -4.3,1.61 -6.52,2.24 c-4.15,1.18 -8,3.24 -12,4.82 c-6.79,2.68 -14,4 -21.23,5.26 a40.51,40.51 0 0 1 -10.22,0.93 a37.13,37.13 0 0 1 -6.76,-1.35 q-9.75,-2.64 -19.28,-6 c-1.26,-0.45 -2.66,-1 -3.16,-2.2800000000000002 a5.29,5.29 0 0 1 -0.15000000000000005,-2.38 a29.09,29.09 0 0 0 -0.8400000000000002,-9.57 c-0.4100000000000001,-1.56 -3.62,-7.13 -2.54,-8.26 C449.48488647460937,382.8027815246582 462.00488647460935,390.9827815246582 464.5248864746094,392.0527815246582 z" opacity="0.08" id="svg_67" class="selected"></path> <path d="M435.3548864746094,226.4927815246582 a55.4,55.4 0 0 0 -1.79,5.37 a33.12,33.12 0 0 1 -33.42,4.35 c0.4200000000000001,-2.85 0.6400000000000002,-5.74 1.1400000000000001,-8.58 a9.11,9.11 0 0 1 1.3800000000000001,-3.85 a8.51,8.51 0 0 1 3.63,-2.62 c8.45,-3.67 19.46,-2 27.86,1.18 C436.9648864746094,223.41278152465821 436.4148864746094,223.7327815246582 435.3548864746094,226.4927815246582 z" opacity="0.1" id="svg_68" class="selected"></path> <circle cx="413.19488525390625" cy="204.4427833557129" r="33.09000015258789" fill="#fbbebe" id="svg_69" class="selected"></circle> <path d="M446.4748864746094,599.4127815246582 q-0.6000000000000002,15.5 -1.15,31 c-5.3100000000000005,0.3000000000000001 -10.59,-1.25 -15.69,-2.77 c-10.620000000000001,-3.14 -21.69,-6.23 -32.66,-7.15 c-0.45,-4.59 -1.54,-10.56 -0.54,-14.85 c1.81,-7.8 17,-9.4 23.65,-9.56 C428.9548864746094,595.8527815246582 437.7648864746094,597.6127815246582 446.4748864746094,599.4127815246582 z" opacity="0.08" id="svg_70" class="selected"></path> <path d="M480.81488647460935,614.3827815246582 c-0.5800000000000002,1.12 -1.34,2.7 -2.2800000000000002,1.8800000000000003 c-11.28,-1 -20.83,8.83 -32.09,10 c-5.69,0.5900000000000002 -11.35,-1.07 -16.81,-2.6900000000000004 c-18.36,-5.44 -38.06,-10.71 -56.29,-4.93 a244.57,244.57 0 0 0 -2.6900000000000004,-31.17 c-1.7200000000000002,-11.31 -4.24,-22.51 -5.54,-33.88 c-2.42,-21.11 -0.6200000000000002,-42.49 -2.38,-63.66 c-0.7000000000000002,-8.54 -2,-17 -2.74,-25.54 c-1.77,-20.19 -3.73,-41.68 4.66,-60.13 q1.8,-4 3.62,-7.95 a6.22,6.22 0 0 0 0.6900000000000004,-2.23 a3.39,3.39 0 0 0 -0.16000000000000006,-1.1600000000000001 c-0.4900000000000001,-1.6800000000000004 -2.11,-3 -3.08,-4.58 c-1.6400000000000001,-2.58 -1.46,-5.88 -1.23,-8.93 c0.11000000000000003,-1.29 0.45,-2.35 0.54,-3.64 c-3.51,-4.87 -5.5600000000000005,-10.43 -7.1,-16.25 c-1.77,-6.6 -2.89,-13.52 -4.85,-20.06 c-3.15,-10.5 -8.54,-20.27 -11.18,-30.91 c-1.36,-5.47 -1.46,-11.36 -1.53,-17 a42.65,42.65 0 0 1 0.51,-6.86 c0.46,-2.85 1.53,-5.52 4.15,-6.75 c2.05,-3 2.71,-6.71 2.83,-10.35 c0.1,-2.43 0,-4.94 0.8800000000000002,-7.21 c1.79,-4.52 7,-6.66 11.78,-7.37 s9.870000000000001,-0.54 14.29,-2.5700000000000003 a30.33,30.33 0 0 0 4.74,-2.89 a168.64,168.64 0 0 0 16.35,-12.38 a1,1 0 0 1 0.45,-0.26 c0.23,0 0.4300000000000001,0.15000000000000005 0.6100000000000002,0.3000000000000001 c4.16,3.7 8.3,7.4 12.46,11.09 c2.27,2 4.54,4 6.63,6.23 a54.1,54.1 0 0 1 7.71,10.35 a48.62,48.62 0 0 1 2.72,5.27 a55.53,55.53 0 0 1 3.05,8.65 c0.4200000000000001,1.57 0.7600000000000002,3.15 1,4.74 c0.19000000000000006,1.15 0.3500000000000001,2.31 0.46,3.49 q0.08000000000000003,0.5800000000000002 0.12000000000000002,1.17 a5,5 0 0 0 1.9300000000000002,-0.8500000000000002 A3.92,3.92 0 0 0 434.4148864746094,283.6127815246582 a8.82,8.82 0 0 0 0.53,-2 a20.72,20.72 0 0 0 0.2,-2.62 c0,-1 0.07,-2.09 0.07,-3.13 a28.22,28.22 0 0 0 -0.51,-5.43 c-0.6700000000000004,-3.2800000000000002 -2.12,-6.35 -3,-9.58 s-1.1600000000000001,-6.86 0.4800000000000001,-9.79 c0.6200000000000002,-1.11 1.77,-2.19 3,-1.9300000000000002 a3.23,3.23 0 0 1 2,2 a10.22,10.22 0 0 1 0.8400000000000002,4.19 c0,0.7000000000000002 0,1.27 0.6400000000000002,1.62 c0.15000000000000005,3.2800000000000002 2.68,6 5.42,7.77 s5.86,3.06 8.31,5.25 c3.12,2.7600000000000002 4.84,6.7 7,10.26 a27.73,27.73 0 0 1 3.13,6 a21.22,21.22 0 0 1 0.54,6.21 q-0.19000000000000006,19.37 -0.4200000000000001,38.72 a89.09,89.09 0 0 0 0.8,16.26 c0.51,3 1.34,5.93 1.4,9 c0.21000000000000005,8.46 -5.7,15.57 -9.8,23 c-3,5.37 -1.8900000000000001,12.16 0.7400000000000002,17.73 s6.63,10.33 9.7,15.65 c10.870000000000001,18.84 9.09,42 8.45,63.79 A480.35,480.35 0 0 0 481.7048864746094,577.6127815246582 C483.9648864746094,589.9027815246582 486.5848864746094,603.2827815246582 480.81488647460935,614.3827815246582 z" fill="#3f3d56" id="svg_71" class="selected"></path> <path d="M430.56488647460935,281.6127815246582 c-1.1,0 -2.18,0.11000000000000003 -3.27,0.23 q0,1.5 0,3 c1.22,0 2.47,0.11000000000000003 3.7,0.26 c0.6800000000000004,0.08000000000000003 1.37,0.17 2.05,0.3200000000000001 a15,15 0 0 1 6,2.45 c3.36,2.39 5.34,7.13 3.43,10.77 l-1.25,0.52 a6.65,6.65 0 0 1 0.15000000000000005,4.22 c-0.5900000000000002,1.31 -2.54,2.07 -3.5,1 c-1.08,-1.23 -0.11000000000000003,-3.7 -1.56,-4.46 a2,2 0 0 0 -2.5300000000000002,1 a5.18,5.18 0 0 0 -0.27,3 c1,7.91 4.78,15.38 4.92,23.36 c0.05000000000000002,2.5700000000000003 0.1,5.61 -1.7000000000000002,7.43 q-5.17,5.28 -10.38,10.57 c-6.46,6.58 -12.93,13.17 -19.75,19.37 a245.22,245.22 0 0 1 -34,25.93 c-1.27,0.81 -2.55,1.59 -3.83,2.38 c-0.4900000000000001,-1.6800000000000004 -2.11,-3 -3.08,-4.58 c-1.6400000000000001,-2.58 -1.46,-5.88 -1.23,-8.93 c0.11000000000000003,-1.29 0.45,-2.35 0.54,-3.64 c-3.51,-4.87 -5.5600000000000005,-10.43 -7.1,-16.25 c0.46,0 0.9,0 1.35,0 c4.82,-0.07 9.44,-1.81 13.93,-3.5300000000000002 a100.78,100.78 0 0 0 11.81,-5.05 a86.49,86.49 0 0 0 16,-11.56 c3.07,-2.66 6.74,-5.2 10.79,-5.44 c2.42,-2.49 6.16,-3.89 7.41,-7.13 a11.13,11.13 0 0 0 0.17,-5.59 a107.42,107.42 0 0 0 -2.81,-13 c-1,-3.35 -0.7300000000000002,-6.65 -1.36,-10.08 a48.42,48.42 0 0 1 -1.1600000000000001,-11.49 c0.4400000000000001,-7.23 4.09,-13.8 7.65,-20.1 c0.7100000000000002,-1.21 1.4,-2.44 2.08,-3.67 c0.5700000000000002,-1 1.15,-2 1.7200000000000002,-3 a3.07,3.07 0 0 1 2.47,2.91 a9,9 0 0 1 -0.92,4 c-0.19000000000000006,0.46 -0.3600000000000001,0.92 -0.55,1.3800000000000001 c-1.62,4.07 -3.26,8.14 -4.88,12.22 a51.62,51.62 0 0 1 7.93,-3.5700000000000003 a22.05,22.05 0 0 1 3.5300000000000002,-0.81 a14.21,14.21 0 0 1 2.17,-0.13 c3.43,0 6.8900000000000015,1.21 9,3.89 c0.8,1 1.34,2.55 0.4900000000000001,3.51 a46.56,46.56 0 0 0 -9.75,-1.6500000000000004 C433.50488647460935,281.5527815246582 432.0348864746094,281.5227815246582 430.56488647460935,281.6127815246582 z" opacity="0.08" id="svg_72" class="selected"></path> <path d="M477.3448864746094,384.7427815246582 l-14.86,51.32 l83.74,-28.36 l10.8,-44.57 zm36.46,0 c-3,0 -5.4,-1.21 -5.4,-2.7 s2.42,-2.7 5.4,-2.7 s5.41,1.21 5.41,2.7 S516.7948864746094,384.7427815246582 513.8048864746094,384.7427815246582 z" fill="#464353" id="svg_73" class="selected"></path> <ellipse cx="416.5748748779297" cy="184.18278884887695" rx="35.790000915527344" ry="17.559999465942383" fill="#2f2e41" id="svg_74" class="selected"></ellipse> <ellipse cx="489.49488830566406" cy="394.8727912902832" rx="4.730000019073486" ry="1.350000023841858" fill="#3c71fb" opacity="0.9" id="svg_75" class="selected"></ellipse> <ellipse cx="484.0948944091797" cy="401.6227912902832" rx="4.730000019073486" ry="1.350000023841858" fill="#fbbebe" opacity="0.9" id="svg_76" class="selected"></ellipse> <ellipse cx="519.2148895263672" cy="392.16276931762695" rx="4.730000019073486" ry="1.350000023841858" fill="#fbbebe" opacity="0.9" id="svg_77" class="selected"></ellipse> <ellipse cx="488.14488220214844" cy="401.6227912902832" rx="4.730000019073486" ry="1.350000023841858" fill="#fbbebe" opacity="0.9" id="svg_78" class="selected"></ellipse> <ellipse cx="480.0448760986328" cy="400.2727851867676" rx="4.730000019073486" ry="1.350000023841858" fill="#fbbebe" opacity="0.9" id="svg_79" class="selected"></ellipse> <ellipse cx="480.0448760986328" cy="404.3227729797363" rx="4.730000019073486" ry="1.350000023841858" fill="#fbbebe" opacity="0.9" id="svg_80" class="selected"></ellipse> <ellipse cx="490.8448944091797" cy="398.92277908325195" rx="4.730000019073486" ry="1.350000023841858" fill="#fbbebe" opacity="0.9" id="svg_81" class="selected"></ellipse> <ellipse cx="482.74488830566406" cy="396.2227668762207" rx="4.730000019073486" ry="1.350000023841858" fill="#fbbebe" opacity="0.9" id="svg_82" class="selected"></ellipse> <ellipse cx="492.2048797607422" cy="400.2727851867676" rx="4.730000019073486" ry="1.350000023841858" fill="#3c71fb" opacity="0.9" id="svg_83" class="selected"></ellipse> <ellipse cx="494.90489196777344" cy="393.5127754211426" rx="4.730000019073486" ry="1.350000023841858" fill="#3c71fb" opacity="0.9" id="svg_84" class="selected"></ellipse> <ellipse cx="494.90489196777344" cy="396.2227668762207" rx="4.730000019073486" ry="1.350000023841858" fill="#3c71fb" opacity="0.9" id="svg_85" class="selected"></ellipse> <ellipse cx="496.25486755371094" cy="400.2727851867676" rx="4.730000019073486" ry="1.350000023841858" fill="#3c71fb" opacity="0.9" id="svg_86" class="selected"></ellipse> <ellipse cx="509.75486755371094" cy="394.8727912902832" rx="4.730000019073486" ry="1.350000023841858" fill="#3c71fb" opacity="0.9" id="svg_87" class="selected"></ellipse> <ellipse cx="515.1548919677734" cy="393.5127754211426" rx="4.730000019073486" ry="1.350000023841858" fill="#3c71fb" opacity="0.9" id="svg_88" class="selected"></ellipse> <ellipse cx="515.1548919677734" cy="396.2227668762207" rx="4.730000019073486" ry="1.350000023841858" fill="#3c71fb" opacity="0.9" id="svg_89" class="selected"></ellipse> <ellipse cx="508.40489196777344" cy="400.2727851867676" rx="4.730000019073486" ry="1.350000023841858" fill="#3c71fb" opacity="0.9" id="svg_90" class="selected"></ellipse> <ellipse cx="509.75486755371094" cy="400.2727851867676" rx="4.730000019073486" ry="1.350000023841858" fill="#3c71fb" opacity="0.9" id="svg_91" class="selected"></ellipse> <ellipse cx="508.40489196777344" cy="400.2727851867676" rx="4.730000019073486" ry="1.350000023841858" fill="#3c71fb" opacity="0.9" id="svg_92" class="selected"></ellipse> <ellipse cx="504.35487365722656" cy="400.2727851867676" rx="4.730000019073486" ry="1.350000023841858" fill="#3c71fb" opacity="0.9" id="svg_93" class="selected"></ellipse> <ellipse cx="498.9548797607422" cy="394.8727912902832" rx="4.730000019073486" ry="1.350000023841858" fill="#3c71fb" opacity="0.9" id="svg_94" class="selected"></ellipse> <ellipse cx="500.3048858642578" cy="397.5727729797363" rx="4.730000019073486" ry="1.350000023841858" fill="#3c71fb" opacity="0.9" id="svg_95" class="selected"></ellipse> <ellipse cx="504.35487365722656" cy="393.5127754211426" rx="4.730000019073486" ry="1.350000023841858" fill="#3f3d56" opacity="0.9" id="svg_96" class="selected"></ellipse> <ellipse cx="504.35487365722656" cy="396.2227668762207" rx="4.730000019073486" ry="1.350000023841858" fill="#3c71fb" opacity="0.9" id="svg_97" class="selected"></ellipse> <ellipse cx="503.00486755371094" cy="397.5727729797363" rx="4.730000019073486" ry="1.350000023841858" fill="#f86d70" id="svg_98" class="selected"></ellipse> <ellipse cx="508.40489196777344" cy="397.5727729797363" rx="4.730000019073486" ry="1.350000023841858" fill="#3c71fb" opacity="0.9" id="svg_99" class="selected"></ellipse> <ellipse cx="511.10487365722656" cy="402.9727668762207" rx="4.730000019073486" ry="1.350000023841858" fill="#3c71fb" opacity="0.9" id="svg_100" class="selected"></ellipse> <ellipse cx="513.8048858642578" cy="396.2227668762207" rx="4.730000019073486" ry="1.350000023841858" fill="#3c71fb" opacity="0.9" id="svg_101" class="selected"></ellipse> <ellipse cx="513.8048858642578" cy="398.92277908325195" rx="4.730000019073486" ry="1.350000023841858" fill="#3c71fb" opacity="0.9" id="svg_102" class="selected"></ellipse> <ellipse cx="515.1548919677734" cy="402.9727668762207" rx="4.730000019073486" ry="1.350000023841858" fill="#3c71fb" opacity="0.9" id="svg_103" class="selected"></ellipse> <ellipse cx="528.6648712158203" cy="397.5727729797363" rx="4.730000019073486" ry="1.350000023841858" fill="#3c71fb" opacity="0.9" id="svg_104" class="selected"></ellipse> <ellipse cx="534.0648651123047" cy="396.2227668762207" rx="4.730000019073486" ry="1.350000023841858" fill="#3c71fb" opacity="0.9" id="svg_105" class="selected"></ellipse> <ellipse cx="534.0648651123047" cy="398.92277908325195" rx="4.730000019073486" ry="1.350000023841858" fill="#a1616a" opacity="0.9" id="svg_106" class="selected"></ellipse> <ellipse cx="527.3148651123047" cy="402.9727668762207" rx="4.730000019073486" ry="1.350000023841858" fill="#3c71fb" opacity="0.9" id="svg_107" class="selected"></ellipse> <ellipse cx="528.6648712158203" cy="402.9727668762207" rx="4.730000019073486" ry="1.350000023841858" fill="#3c71fb" opacity="0.9" id="svg_108" class="selected"></ellipse> <ellipse cx="527.3148651123047" cy="402.9727668762207" rx="4.730000019073486" ry="1.350000023841858" fill="#3c71fb" opacity="0.9" id="svg_109" class="selected"></ellipse> <ellipse cx="523.2648773193359" cy="402.9727668762207" rx="4.730000019073486" ry="1.350000023841858" fill="#f86d70" id="svg_110" class="selected"></ellipse> <ellipse cx="517.8648834228516" cy="397.5727729797363" rx="4.730000019073486" ry="1.350000023841858" fill="#3c71fb" opacity="0.9" id="svg_111" class="selected"></ellipse> <ellipse cx="519.2148895263672" cy="400.2727851867676" rx="4.730000019073486" ry="1.350000023841858" fill="#3c71fb" opacity="0.9" id="svg_112" class="selected"></ellipse> <ellipse cx="523.2648773193359" cy="396.2227668762207" rx="4.730000019073486" ry="1.350000023841858" fill="#a1616a" opacity="0.9" id="svg_113" class="selected"></ellipse> <ellipse cx="523.2648773193359" cy="398.92277908325195" rx="4.730000019073486" ry="1.350000023841858" fill="#f86d70" id="svg_114" class="selected"></ellipse> <ellipse cx="521.9148712158203" cy="400.2727851867676" rx="4.730000019073486" ry="1.350000023841858" fill="#f86d70" id="svg_115" class="selected"></ellipse> <ellipse cx="408.2048797607422" cy="502.35279083251953" rx="4.730000019073486" ry="1.350000023841858" transform="rotate(-10.630000114440918 -55.1351165771486,93.1227798461914) " fill="#3c71fb" opacity="0.9" id="svg_116" class="selected"></ellipse> <ellipse cx="411.0248718261719" cy="507.92279052734375" rx="4.730000019073486" ry="1.350000023841858" transform="rotate(-10.630000114440918 -55.965118408203246,93.88278198242189) " fill="#3c71fb" opacity="0.9" id="svg_117" class="selected"></ellipse> <ellipse cx="413.7748718261719" cy="500.9327850341797" rx="4.730000019073486" ry="1.350000023841858" transform="rotate(-10.630000114440918 -54.62512207031277,94.02278137207027) " fill="#3c71fb" opacity="0.9" id="svg_118" class="selected"></ellipse> <ellipse cx="640.3297697738906" cy="487.0805497857277" rx="4.730000019073486" ry="1.350000023841858" transform="matrix(0.98,-0.18,0.18,0.98,-237.06,49.04) " fill="#3c71fb" opacity="0.9" id="svg_119" class="selected"></ellipse> <ellipse cx="415.2148742675781" cy="507.90277099609375" rx="4.730000019073486" ry="1.350000023841858" transform="rotate(-10.630000114440918 -55.755126953125156,94.60278320312497) " fill="#3c71fb" opacity="0.9" id="svg_120" class="selected"></ellipse> <ellipse cx="429.14488220214844" cy="502.22277069091797" rx="4.730000019073486" ry="1.350000023841858" transform="rotate(-10.630000114440918 -54.105117797851634,96.73278045654297) " fill="#3c71fb" opacity="0.9" id="svg_121" class="selected"></ellipse> <ellipse cx="434.7248840332031" cy="500.80279541015625" rx="4.730000019073486" ry="1.350000023841858" transform="rotate(-10.630000114440918 -53.585113525390696,97.63278198242188) " fill="#3c71fb" opacity="0.9" id="svg_122" class="selected"></ellipse> <ellipse cx="434.73487854003906" cy="503.59276962280273" rx="4.730000019073486" ry="1.350000023841858" transform="rotate(-10.630000114440918 -54.07511901855479,97.76278686523439) " fill="#3c71fb" opacity="0.9" id="svg_123" class="selected"></ellipse> <ellipse cx="427.78489685058594" cy="507.82276916503906" rx="4.730000019073486" ry="1.350000023841858" transform="rotate(-10.630000114440918 -55.1351165771486,96.77278137207034) " fill="#3c71fb" opacity="0.9" id="svg_124" class="selected"></ellipse> <ellipse cx="429.17486572265625" cy="507.81277084350586" rx="4.730000019073486" ry="1.350000023841858" transform="rotate(-10.630000114440918 -55.06512451171874,97.01278686523438) " fill="#3c71fb" opacity="0.9" id="svg_125" class="selected"></ellipse> <ellipse cx="427.78489685058594" cy="507.82276916503906" rx="4.730000019073486" ry="1.350000023841858" transform="rotate(-10.630000114440918 -55.1351165771486,96.77278137207034) " fill="#3c71fb" opacity="0.9" id="svg_126" class="selected"></ellipse> <ellipse cx="423.5948791503906" cy="507.84276962280273" rx="4.730000019073486" ry="1.350000023841858" transform="rotate(-10.630000114440918 -55.34512329101561,96.04278564453122) " fill="#3c71fb" opacity="0.9" id="svg_127" class="selected"></ellipse> <ellipse cx="417.9748840332031" cy="502.30277252197266" rx="4.730000019073486" ry="1.350000023841858" transform="rotate(-10.630000114440918 -54.65512084960961,94.81278228759764) " fill="#3f3d56" opacity="0.9" id="svg_128" class="selected"></ellipse> <ellipse cx="419.3948669433594" cy="505.0727958679199" rx="4.730000019073486" ry="1.350000023841858" transform="rotate(-10.630000114440918 -55.06512451171895,95.18278503417966) " fill="#3c71fb" opacity="0.9" id="svg_129" class="selected"></ellipse> <ellipse cx="423.5548858642578" cy="500.86278533935547" rx="4.730000019073486" ry="1.350000023841858" transform="rotate(-10.630000114440918 -54.13511657714847,95.70278167724611) " fill="#3f3d56" opacity="0.9" id="svg_130" class="selected"></ellipse> <ellipse cx="423.56488037109375" cy="503.6627883911133" rx="4.730000019073486" ry="1.350000023841858" transform="rotate(-10.630000114440918 -54.625122070312564,95.84278106689452) " fill="#3c71fb" opacity="0.9" id="svg_131" class="selected"></ellipse> <ellipse cx="422.1848602294922" cy="505.0727767944336" rx="4.730000019073486" ry="1.350000023841858" transform="rotate(-10.630000114440918 -54.92512512207051,95.67278289794922) " fill="#3f3d56" opacity="0.9" id="svg_132" class="selected"></ellipse> <ellipse cx="427.764892578125" cy="505.03277587890625" rx="4.730000019073486" ry="1.350000023841858" transform="rotate(-10.630000114440918 -54.6551208496094,96.6327819824219) " fill="#3c71fb" opacity="0.9" id="svg_133" class="selected"></ellipse> <ellipse cx="430.5948944091797" cy="510.5927734375" rx="4.730000019073486" ry="1.350000023841858" transform="rotate(-10.630000114440918 -55.475112915039155,97.38278198242188) " fill="#3c71fb" opacity="0.9" id="svg_134" class="selected"></ellipse> <ellipse cx="433.3448944091797" cy="503.59278869628906" rx="4.730000019073486" ry="1.350000023841858" transform="rotate(-10.630000114440918 -54.13511657714847,97.52278137207031) " fill="#3c71fb" opacity="0.9" id="svg_135" class="selected"></ellipse> <ellipse cx="433.3548889160156" cy="506.3927917480469" rx="4.730000019073486" ry="1.350000023841858" transform="rotate(-10.630000114440918 -54.625122070312564,97.66278076171874) " fill="#3c71fb" opacity="0.9" id="svg_136" class="selected"></ellipse> <ellipse cx="434.7748718261719" cy="510.5727729797363" rx="4.730000019073486" ry="1.350000023841858" transform="rotate(-10.630000114440918 -55.27511596679704,98.1127777099609) " fill="#3c71fb" opacity="0.9" id="svg_137" class="selected"></ellipse> <ellipse cx="448.7048645019531" cy="504.9027862548828" rx="4.730000019073486" ry="1.350000023841858" transform="rotate(-10.630000114440918 -53.62512207031264,100.24278259277345) " fill="#3c71fb" opacity="0.9" id="svg_138" class="selected"></ellipse> <ellipse cx="454.28489685058594" cy="503.4727783203125" rx="4.730000019073486" ry="1.350000023841858" transform="rotate(-10.630000114440918 -53.105117797851705,101.13278198242188) " fill="#3c71fb" opacity="0.9" id="svg_139" class="selected"></ellipse> <ellipse cx="454.3049011230469" cy="506.2627716064453" rx="4.730000019073486" ry="1.350000023841858" transform="rotate(-10.630000114440918 -53.5851135253909,101.27278137207027) " fill="#a1616a" opacity="0.9" id="svg_140" class="selected"></ellipse> <ellipse cx="447.3448791503906" cy="510.49278259277344" rx="4.730000019073486" ry="1.350000023841858" transform="rotate(-10.630000114440918 -54.6551208496094,100.27278137207031) " fill="#3c71fb" opacity="0.9" id="svg_141" class="selected"></ellipse> <ellipse cx="448.744873046875" cy="510.48278427124023" rx="4.730000019073486" ry="1.350000023841858" transform="rotate(-10.630000114440918 -54.58511352539062,100.51278686523439) " fill="#3c71fb" opacity="0.9" id="svg_142" class="selected"></ellipse> <ellipse cx="447.3448791503906" cy="510.49278259277344" rx="4.730000019073486" ry="1.350000023841858" transform="rotate(-10.630000114440918 -54.6551208496094,100.27278137207031) " fill="#3c71fb" opacity="0.9" id="svg_143" class="selected"></ellipse> <ellipse cx="443.1548614501953" cy="510.5227813720703" rx="4.730000019073486" ry="1.350000023841858" transform="rotate(-10.630000114440918 -54.86512756347663,99.55278015136717) " fill="#3c71fb" opacity="0.9" id="svg_144" class="selected"></ellipse> <ellipse cx="663.1397673324843" cy="484.17054612361835" rx="4.730000019073486" ry="1.350000023841858" transform="matrix(0.98,-0.18,0.18,0.98,-236.13,53.2) " fill="#a1616a" opacity="0.9" id="svg_145" class="selected"></ellipse> <ellipse cx="438.95489501953125" cy="507.75278091430664" rx="4.730000019073486" ry="1.350000023841858" transform="rotate(-10.630000114440918 -54.58511352539062,98.6927795410156) " fill="#3c71fb" opacity="0.9" id="svg_146" class="selected"></ellipse> <path d="M397.48488647460937,226.8627815246582 l-1,1 s45.39,71 55.44,78.55 l3.09,-2.5 S443.4148864746094,282.6127815246582 397.48488647460937,226.8627815246582 z" fill="#2f2e41" id="svg_147" class="selected"></path> <path d="M457.67488647460937,306.5227815246582 s-2.39,-4.32 -3.31,-3.46 s-3.88,2.8600000000000003 -3.49,3.49 s3,4.09 3,4.09 s3.42,-0.1 4.47,-3.08 z" fill="#464353" id="svg_148" class="selected"></path> <path d="M472.80488647460936,329.1827815246582 l-0.51,-0.12000000000000002 s0.4,-2.31 -5.07,-4.69 a30.89,30.89 0 0 0 -3.06,-1.13 c-8.4,-2.6500000000000004 -11.68,-8.47 -10,-12.63 a3.47,3.47 0 0 1 0.16000000000000006,-0.4100000000000001 l3.5,-2.75 l0.4100000000000001,0.3500000000000001 a35.24,35.24 0 0 0 6.9,4.39 a14,14 0 0 1 7.06,7.18 A16.9,16.9 0 0 1 472.80488647460936,329.1827815246582 z" fill="#fdd8d8" opacity="0.9" id="svg_149" class="selected"></path> <path d="M457.55488647460936,308.1927815246582 s1.19,2.6 7.45,5.67 s7.59,12 7.59,12 s-3.26,-8.27 -8.27,-9.79 s-7.23,-7.41 -7.23,-7.41 z" fill="none" stroke="#2f2e41" stroke-miterlimit="10" stroke-width="0.25" opacity="0.2" id="svg_150" class="selected"></path> <path d="M456.6048864746094,309.2227815246582 s-0.28,3.51 3.8200000000000003,6.62 s11.89,8.13 12.06,10.49 c0,0 -3.75,-3.91 -7,-5.21 s-7.68,-3.93 -8.18,-6.37 c0,0 -1.8,-3.8200000000000003 -1.27,-5.3100000000000005 z" fill="none" stroke="#2f2e41" stroke-miterlimit="10" stroke-width="0.25" opacity="0.2" id="svg_151" class="selected"></path> <path d="M455.3448864746094,310.0027815246582 s-1.6800000000000004,3.37 2.42,8.08 a17.55,17.55 0 0 0 6.95,3.94 a16.9,16.9 0 0 1 7.4,5.12 " fill="none" stroke="#2f2e41" stroke-miterlimit="10" stroke-width="0.25" opacity="0.2" id="svg_152" class="selected"></path> <ellipse cx="443.1148681640625" cy="503.5427665710449" rx="4.730000019073486" ry="1.350000023841858" transform="rotate(-10.630000114440918 -53.65512084960948,99.21277618408202) " fill="#3f3d56" opacity="0.9" id="svg_153" class="selected"></ellipse> <ellipse cx="443.13487243652344" cy="506.32279205322266" rx="4.730000019073486" ry="1.350000023841858" transform="rotate(-10.630000114440918 -54.13511657714847,99.34278106689452) " fill="#3c71fb" opacity="0.9" id="svg_154" class="selected"></ellipse> <ellipse cx="441.74488830566406" cy="507.73278045654297" rx="4.730000019073486" ry="1.350000023841858" transform="rotate(-10.630000114440918 -54.44511413574218,99.1727828979492) " fill="#3c71fb" opacity="0.9" id="svg_155" class="selected"></ellipse> <path d="M338.04488647460937,309.8627815246582 a19.85,19.85 0 0 1 -0.8600000000000002,5.61 c-0.3900000000000001,0.9500000000000002 -1,1.81 -1.44,2.74 c-1.9500000000000002,4 -1.09,8.69 -1.36,13.12 a51.19,51.19 0 0 1 -1.22,7.45 c-2.19,10.2 -4.38,20.41 -7,30.53 c-0.8600000000000002,3.39 -1.73,7.12 -0.19000000000000006,10.25 c0.4,0.81 0.9400000000000002,1.54 1.27,2.38 c0.92,2.3 0.07,5 0.8700000000000002,7.33 a5.6400000000000015,5.6400000000000015 0 0 0 5.8100000000000005,3.6900000000000004 c0.56,-9.57 5.05,-18.51 10.52,-26.39 c2.6,-3.74 5.51,-7.39 9.36,-9.82 c1.8900000000000001,-1.19 4,-2.1 5.52,-3.75 a12.88,12.88 0 0 0 2.7600000000000002,-6.59 c2.64,-14.78 -3.6900000000000004,-29.64 -11,-42.77 c-1.52,-2.73 -4.74,-8.8 -7.95,-6.51 S338.4148864746094,306.1827815246582 338.04488647460937,309.8627815246582 z" fill="#3f3d56" id="svg_156" class="selected"></path> <path d="M416.5748864746094,196.3427815246582 c-17.9,0 -32.72,-6.44 -35.37,-14.85 a8.85,8.85 0 0 0 -0.4200000000000001,2.7 c0,9.69 16,17.55 35.79,17.55 s35.78,-7.86 35.78,-17.55 a8.85,8.85 0 0 0 -0.4200000000000001,-2.7 C449.2848864746094,189.9027815246582 434.4648864746094,196.3427815246582 416.5748864746094,196.3427815246582 z" opacity="0.1" id="svg_157" class="selected"></path> <g opacity="0.1" id="svg_158" class="selected"> <path d="M335.4148864746094,381.9427815246582 c-0.3400000000000002,-0.8400000000000002 -0.8800000000000002,-1.57 -1.28,-2.38 c-1.54,-3.13 -0.6700000000000004,-6.86 0.2,-10.25 c2.5700000000000003,-10.12 4.76,-20.33 7,-30.53 a49.85,49.85 0 0 0 1.21,-7.45 c0.27,-4.43 -0.5800000000000002,-9.14 1.36,-13.12 c0.46,-0.93 1.05,-1.79 1.44,-2.74 a19.5,19.5 0 0 0 0.8600000000000002,-5.61 a28.37,28.37 0 0 1 2.63,-9.54 c-0.22000000000000006,-2.92 -0.26,-5.86 -0.3000000000000001,-8.74 a41.54,41.54 0 0 1 0.52,-6.86 c0.45,-2.85 1.52,-5.52 4.14,-6.75 c2,-3 2.72,-6.71 2.84,-10.35 c0.09000000000000004,-2.43 0,-4.94 0.8800000000000002,-7.21 c1.78,-4.52 7,-6.66 11.77,-7.37 s9.870000000000001,-0.54 14.29,-2.5700000000000003 a30.33,30.33 0 0 0 4.74,-2.89 c4.3100000000000005,-3 8.63,-6 12.71,-9.31 l-3.4,-3 c-0.18000000000000005,-0.15000000000000005 -0.3800000000000001,-0.3300000000000001 -0.6100000000000002,-0.3000000000000001 a1,1 0 0 0 -0.45,0.26 A168.64,168.64 0 0 1 379.55488647460936,247.6127815246582 a30.33,30.33 0 0 1 -4.74,2.89 c-4.42,2 -9.48,1.85 -14.29,2.5700000000000003 s-10,2.85 -11.78,7.37 c-0.9,2.27 -0.78,4.78 -0.8800000000000002,7.21 c-0.12000000000000002,3.64 -0.78,7.36 -2.83,10.35 c-2.62,1.23 -3.6900000000000004,3.9 -4.15,6.75 A42.65,42.65 0 0 0 340.4148864746094,291.6127815246582 c0,2.88 0.08000000000000003,5.82 0.3000000000000001,8.74 a28.14,28.14 0 0 0 -2.63,9.54 a19.85,19.85 0 0 1 -0.8600000000000002,5.61 c-0.3900000000000001,0.9500000000000002 -1,1.81 -1.44,2.74 c-1.9500000000000002,4 -1.09,8.69 -1.36,13.12 a51.19,51.19 0 0 1 -1.22,7.45 c-2.19,10.2 -4.38,20.41 -7,30.53 c-0.8600000000000002,3.39 -1.73,7.12 -0.19000000000000006,10.25 c0.4,0.81 0.9400000000000002,1.54 1.27,2.38 c0.92,2.3 0.07,5 0.8700000000000002,7.33 a5.6400000000000015,5.6400000000000015 0 0 0 5.8100000000000005,3.6900000000000004 a38.82,38.82 0 0 1 1.8,-9.44 A6.16,6.16 0 0 0 335.4148864746094,381.9427815246582 z" id="svg_159"></path> <path d="M433.1448864746094,265.2127815246582 c0.51,1 1,2 1.44,3 a54.51,54.51 0 0 1 3.05,8.65 c0.4200000000000001,1.57 0.7600000000000002,3.15 1,4.74 c0.19000000000000006,1.15 0.3500000000000001,2.31 0.46,3.49 q0.07,0.5800000000000002 0.12000000000000002,1.17 a5,5 0 0 0 1.9300000000000002,-0.8500000000000002 a3.93,3.93 0 0 0 1.37,-1.77 a9.37,9.37 0 0 0 0.52,-2 a20.72,20.72 0 0 0 0.21000000000000005,-2.62 c0,-1 0.06000000000000002,-2.09 0.06000000000000002,-3.13 a28.22,28.22 0 0 0 -0.51,-5.43 c-0.6600000000000003,-3.2800000000000002 -2.12,-6.35 -3,-9.58 c-0.07,-0.23 -0.12000000000000002,-0.4800000000000001 -0.18000000000000005,-0.7200000000000002 a7.47,7.47 0 0 1 -0.92,-3.14 c-0.6200000000000002,-0.3500000000000001 -0.6600000000000003,-0.92 -0.6400000000000002,-1.62 a10.22,10.22 0 0 0 -0.8400000000000002,-4.19 a3.23,3.23 0 0 0 -2,-2 c-1.25,-0.26 -2.4,0.8200000000000002 -3,1.9300000000000002 c-1.6400000000000001,2.93 -1.37,6.57 -0.4800000000000001,9.79 C432.11488647460936,262.3527815246582 432.6348864746094,263.7827815246582 433.1448864746094,265.2127815246582 z" id="svg_160"></path> <path d="M378.75488647460935,587.4927815246582 c-1.71,-11.31 -4.24,-22.51 -5.54,-33.88 c-2.41,-21.11 -0.6200000000000002,-42.49 -2.37,-63.66 c-0.7100000000000002,-8.54 -2,-17 -2.74,-25.54 c-1.77,-20.19 -3.73,-41.68 4.65,-60.13 c1.21,-2.66 2.41,-5.3100000000000005 3.62,-7.95 a6.22,6.22 0 0 0 0.6900000000000004,-2.23 a3.17,3.17 0 0 0 -0.16000000000000006,-1.1600000000000001 c-0.4900000000000001,-1.6800000000000004 -2.11,-3 -3.08,-4.58 c-1.6300000000000003,-2.58 -1.46,-5.88 -1.23,-8.93 c0.11000000000000003,-1.29 0.45,-2.35 0.54,-3.64 c-3.51,-4.87 -5.5600000000000005,-10.43 -7.1,-16.25 c-0.4,-1.5 -0.77,-3 -1.12,-4.53 c-1,0.6000000000000002 -2,1.13 -3,1.7400000000000002 a23.26,23.26 0 0 0 -3.91,3.15 a47.63,47.63 0 0 0 7,15.89 c-0.09000000000000004,1.29 -0.4300000000000001,2.35 -0.54,3.64 c-0.23,3.05 -0.4100000000000001,6.35 1.23,8.93 c1,1.57 2.59,2.9 3.08,4.58 a3.39,3.39 0 0 1 0.16000000000000006,1.1600000000000001 a6.22,6.22 0 0 1 -0.6900000000000004,2.23 q-1.82,4 -3.62,7.95 c-8.39,18.45 -6.43,39.94 -4.66,60.13 c0.7600000000000002,8.53 2,17 2.74,25.54 c1.7600000000000002,21.17 0,42.55 2.38,63.66 c1.3,11.37 3.8200000000000003,22.57 5.54,33.88 a244.57,244.57 0 0 1 2.6900000000000004,31.17 a52.35,52.35 0 0 1 8,-1.83 A242.43,242.43 0 0 0 378.75488647460935,587.4927815246582 z" id="svg_161"></path> <path d="M437.73488647460937,623.6127815246582 c-14,-4.14 -28.71,-8.16 -43,-7.3100000000000005 c11.7,0.6600000000000003 23.56,4 34.9,7.3100000000000005 c5.46,1.62 11.12,3.2800000000000002 16.81,2.6900000000000004 c0.4700000000000001,0 0.9400000000000002,-0.14 1.4100000000000001,-0.21000000000000005 A73.59,73.59 0 0 1 437.73488647460937,623.6127815246582 z" id="svg_162"></path> </g> <path d="M330.23488647460937,384.1627815246582 l4.4,10.64 c0.78,1.87 1.61,3.83 3.19,5.1 a8.27,8.27 0 0 0 7,1.28 a24.58,24.58 0 0 0 6.67,-3 c6.67,-3.79 13.34,-7.59 19.83,-11.7 a247.3,247.3 0 0 0 34,-25.93 c6.82,-6.2 13.29,-12.79 19.75,-19.37 L435.4148864746094,330.6127815246582 c1.8,-1.82 1.7400000000000002,-4.87 1.7000000000000002,-7.43 c-0.14,-8 -4,-15.44 -4.93,-23.36 a5.26,5.26 0 0 1 0.27,-3 a2,2 0 0 1 2.54,-1 c1.45,0.7500000000000002 0.4800000000000001,3.23 1.56,4.46 c1,1.07 2.91,0.3300000000000001 3.49,-1 a6.51,6.51 0 0 0 -0.14,-4.22 l1.25,-0.52 c1.9100000000000001,-3.64 -0.07,-8.39 -3.43,-10.78 s-7.66,-2.92 -11.78,-3 l0,-3 A46.18,46.18 0 0 1 443.4148864746094,279.2427815246582 c0.8600000000000002,-1 0.3100000000000001,-2.5 -0.4900000000000001,-3.51 c-2.55,-3.23 -7.09,-4.32 -11.16,-3.7600000000000002 s-7.82,2.48 -11.46,4.38 l5.43,-13.61 a8.93,8.93 0 0 0 0.91,-4 a3.06,3.06 0 0 0 -2.46,-2.91 l-3.8,6.71 c-3.56,6.29 -7.21,12.870000000000001 -7.65,20.08 a47.49,47.49 0 0 0 1.1600000000000001,11.5 c0.6300000000000002,3.43 0.4100000000000001,6.72 1.36,10.08 a105,105 0 0 1 2.81,13 a11,11 0 0 1 -0.18000000000000005,5.59 c-1.24,3.24 -5,4.65 -7.4,7.14 c-4,0.24000000000000005 -7.72,2.7800000000000002 -10.79,5.44 a86.49,86.49 0 0 1 -16,11.56 a104.28,104.28 0 0 1 -11.81,5.05 c-4.5,1.7200000000000002 -9.12,3.45 -13.93,3.5300000000000002 c-3.59,0 -7.29,-0.81 -10.71,0.27 c-5.15,1.61 -8,7 -10.3,11.84 l-3.81,8 A58.92,58.92 0 0 0 330.23488647460937,384.1627815246582 z" fill="#fbbebe" id="svg_163" class="selected"></path> <path d="M344.1448864746094,365.9527815246582 c2.67,-3.83 5.67,-7.5600000000000005 9.63,-10 c0.7400000000000002,-0.46 1.5,-0.8800000000000002 2.25,-1.31 c-3.07,-0.15000000000000005 -6.16,-0.5800000000000002 -9.07,0.3200000000000001 c-5.29,1.6600000000000001 -8.22,7.14 -10.6,12.13 L332.4148864746094,375.2627815246582 a60.23,60.23 0 0 0 -3,8.7 l3.75,9 h0.09000000000000004 C333.87488647460935,383.1627815246582 338.50488647460935,374.0227815246582 344.1448864746094,365.9527815246582 z" fill="#3f3d56" id="svg_164" class="selected"></path> <ellipse cx="513.1348724365234" cy="381.9027900695801" rx="2.700000047683716" ry="3.240000009536743" fill="#fbbebe" id="svg_165" class="selected"></ellipse> <ellipse cx="513.1348724365234" cy="383.5227851867676" rx="2.700000047683716" ry="3.240000009536743" fill="#fbbebe" id="svg_166" class="selected"></ellipse> <path d="M473.4148864746094,331.3927815246582 l-0.6900000000000004,-0.14 s0.54,-2.83 -6.84,-5.73 a6.18,6.18 0 0 1 0.2,-1.44 a5.21,5.21 0 0 1 0.3500000000000001,-1.12 a5.09,5.09 0 0 1 0.53,-1 a5.52,5.52 0 0 1 1.6700000000000004,-1.82 a4.78,4.78 0 0 1 1.5,-0.7000000000000002 a4.29,4.29 0 0 1 1.2,-0.16000000000000006 a5.69,5.69 0 0 1 1.24,0.16000000000000006 C473.94488647460935,322.4827815246582 474.4748864746094,326.4127815246582 473.4148864746094,331.3927815246582 z" fill="#3c71fb" opacity="0.9" id="svg_167" class="selected"></path> <path d="M303.4148864746094,705.6127815246582 s6.22,8.13 -2.87,20.41 s-16.58,22.64 -13.55,30.3 c0,0 13.71,-22.8 24.87,-23.12 S315.6648864746094,719.3327815246582 303.4148864746094,705.6127815246582 z" fill="#3c71fb" id="svg_168" class="selected"></path> <path d="M303.4148864746094,705.6127815246582 a10,10 0 0 1 1.27,2.55 c10.89,12.8 16.69,24.74 6.23,25 c-9.75,0.27 -21.45,17.71 -24.25,22.11 a9.16,9.16 0 0 0 0.3300000000000001,1 s13.71,-22.8 24.87,-23.12 S315.6648864746094,719.3327815246582 303.4148864746094,705.6127815246582 z" opacity="0.1" id="svg_169" class="selected"></path> <path d="M314.94488647460935,715.9927815246582 c0,2.8600000000000003 -0.3200000000000001,5.18 -0.7200000000000002,5.18 s-0.7100000000000002,-2.3200000000000003 -0.7100000000000002,-5.18 s0.4,-1.52 0.79,-1.52 S314.94488647460935,713.1227815246582 314.94488647460935,715.9927815246582 z" fill="#ffd037" id="svg_170" class="selected"></path> <path d="M318.9148864746094,719.4027815246582 c-2.51,1.37 -4.71,2.2 -4.8900000000000015,1.85 s1.6900000000000004,-1.7400000000000002 4.2,-3.11 s1.52,-0.3700000000000001 1.71,0 S321.4148864746094,718.0327815246582 318.9148864746094,719.4027815246582 z" fill="#ffd037" id="svg_171" class="selected"></path> <path d="M270.54488647460937,705.6127815246582 s-6.22,8.13 2.87,20.41 s16.58,22.64 13.55,30.3 c0,0 -13.71,-22.8 -24.87,-23.12 S258.2648864746094,719.3327815246582 270.54488647460937,705.6127815246582 z" fill="#3c71fb" id="svg_172" class="selected"></path> <path d="M270.54488647460937,705.6127815246582 a10,10 0 0 0 -1.27,2.55 c-10.89,12.8 -16.69,24.74 -6.23,25 c9.75,0.27 21.45,17.71 24.25,22.11 a9.16,9.16 0 0 1 -0.3300000000000001,1 s-13.71,-22.8 -24.87,-23.12 S258.2648864746094,719.3327815246582 270.54488647460937,705.6127815246582 z" opacity="0.1" id="svg_173" class="selected"></path> <path d="M258.98488647460937,715.9927815246582 c0,2.8600000000000003 0.3200000000000001,5.18 0.7200000000000002,5.18 s0.7100000000000002,-2.3200000000000003 0.7100000000000002,-5.18 s-0.4,-1.52 -0.79,-1.52 S258.98488647460937,713.1227815246582 258.98488647460937,715.9927815246582 z" fill="#ffd037" id="svg_174" class="selected"></path> <path d="M255.01488647460937,719.4027815246582 c2.51,1.37 4.7,2.2 4.8900000000000015,1.85 s-1.6900000000000004,-1.7400000000000002 -4.2,-3.11 s-1.52,-0.3700000000000001 -1.71,0 S252.50488647460938,718.0327815246582 255.01488647460937,719.4027815246582 z" fill="#ffd037" id="svg_175" class="selected"></path> <path d="M260.9648864746094,755.2627815246582 s17.38,-0.53 22.62,-4.27 s26.75,-8.18 28.05,-2.2 s26.12,29.76 6.49,29.92 s-45.6,-3.06 -50.83,-6.24 S260.9648864746094,755.2627815246582 260.9648864746094,755.2627815246582 z" fill="#a8a8a8" id="svg_176" class="selected"></path> <path d="M318.4748864746094,776.6127815246582 c-19.62,0.16000000000000006 -45.6,-3.06 -50.83,-6.24 c-4,-2.43 -5.57,-11.14 -6.1,-15.15 l-0.5800000000000002,0 s1.1,14 6.33,17.21 s31.21,6.4 50.83,6.24 c5.67,0 7.63,-2.06 7.52,-5.05 C324.8548864746094,775.4727815246582 322.69488647460935,776.6127815246582 318.4748864746094,776.6127815246582 z" opacity="0.2" id="svg_177" class="selected"></path> <path d="M747.9548864746093,734.8027815246583 s-11.11,-37.73 2.08,-65.5 a59.59,59.59 0 0 0 4.82,-37.39 a100.34,100.34 0 0 0 -5.29,-17.55 " fill="none" stroke="#535461" stroke-miterlimit="10" stroke-width="2" id="svg_178" class="selected"></path> <path d="M757.7748864746094,596.8127815246582 c0,4.63 -8.37,18 -8.37,18 s-8.38,-13.41 -8.38,-18 a8.38,8.38 0 0 1 16.75,0 z" fill="#3c71fb" id="svg_179" class="selected"></path> <path d="M771.6148864746094,622.4327815246583 c-2.51,3.88 -16.83,10.58 -16.83,10.58 s0.26,-15.8 2.77,-19.68 a8.37,8.37 0 0 1 14.06,9.1 z" fill="#3c71fb" id="svg_180" class="selected"></path> <path d="M771.0048864746094,666.2027815246582 c-4.12,2.08 -19.87,0.6400000000000002 -19.87,0.6400000000000002 s8.21,-13.51 12.33,-15.6 a8.38,8.38 0 1 1 7.54,15 z" fill="#3c71fb" id="svg_181" class="selected"></path> <path d="M763.0948864746093,699.2127815246582 c-3.72,2.75 -19.48,4 -19.48,4 s5.8,-14.7 9.52,-17.45 a8.37,8.37 0 1 1 10,13.46 z" fill="#3c71fb" id="svg_182" class="selected"></path> <path d="M737.2048864746093,633.9127815246582 c3.3200000000000003,3.22 18.77,6.5600000000000005 18.77,6.5600000000000005 s-3.79,-15.35 -7.1,-18.57 a8.37,8.37 0 1 0 -11.67,12 z" fill="#3c71fb" id="svg_183" class="selected"></path> <path d="M728.4148864746094,672.6127815246582 c4.13,2.08 19.87,0.6400000000000002 19.87,0.6400000000000002 s-8.2,-13.51 -12.33,-15.6 A8.38,8.38 0 0 0 728.4148864746094,672.6127815246582 z" fill="#3c71fb" id="svg_184" class="selected"></path> <path d="M725.0848864746093,711.4527815246582 c3.71,2.75 19.47,4 19.47,4 s-5.8,-14.71 -9.52,-17.46 a8.37,8.37 0 0 0 -10,13.47 z" fill="#3c71fb" id="svg_185" class="selected"></path> <path d="M757.7748864746094,596.8127815246582 c0,4.63 -8.37,18 -8.37,18 s-8.38,-13.41 -8.38,-18 a8.38,8.38 0 0 1 16.75,0 z" fill="#3c71fb" id="svg_186" class="selected"></path> <path d="M771.6148864746094,622.4327815246583 c-2.51,3.88 -16.83,10.58 -16.83,10.58 s0.26,-15.8 2.77,-19.68 a8.37,8.37 0 0 1 14.06,9.1 z" fill="#3c71fb" id="svg_187" class="selected"></path> <path d="M771.0048864746094,666.2027815246582 c-4.12,2.08 -19.87,0.6400000000000002 -19.87,0.6400000000000002 s8.21,-13.51 12.33,-15.6 a8.38,8.38 0 1 1 7.54,15 z" fill="#3c71fb" id="svg_188" class="selected"></path> <path d="M763.0948864746093,699.2127815246582 c-3.72,2.75 -19.48,4 -19.48,4 s5.8,-14.7 9.52,-17.45 a8.37,8.37 0 1 1 10,13.46 z" fill="#3c71fb" id="svg_189" class="selected"></path> <path d="M737.2048864746093,633.9127815246582 c3.3200000000000003,3.22 18.77,6.5600000000000005 18.77,6.5600000000000005 s-3.79,-15.35 -7.1,-18.57 a8.37,8.37 0 1 0 -11.67,12 z" fill="#3c71fb" id="svg_190" class="selected"></path> <path d="M728.4148864746094,672.6127815246582 c4.13,2.08 19.87,0.6400000000000002 19.87,0.6400000000000002 s-8.2,-13.51 -12.33,-15.6 A8.38,8.38 0 0 0 728.4148864746094,672.6127815246582 z" fill="#3c71fb" id="svg_191" class="selected"></path> <path d="M725.0848864746093,711.4527815246582 c3.71,2.75 19.47,4 19.47,4 s-5.8,-14.71 -9.52,-17.46 a8.37,8.37 0 0 0 -10,13.47 z" fill="#3c71fb" id="svg_192" class="selected"></path> <path d="M721.6848864746094,732.4227815246581 s13.54,-2.6900000000000004 17.14,-6.27 s19.85,-9.85 21.66,-5.37 s24.35,19.7 9,22.39 s-36.09,3.58 -40.6,1.79 S721.6848864746094,732.4227815246581 721.6848864746094,732.4227815246581 z" fill="#a8a8a8" id="svg_193" class="selected"></path> <path d="M769.5048864746094,741.5027815246582 c-15.34,2.6900000000000004 -36.09,3.59 -40.6,1.8 c-3.43,-1.37 -5.82,-7.92 -6.77,-11 l-0.45,0.09000000000000004 s2.71,10.75 7.22,12.54 s25.26,0.9 40.6,-1.79 c4.42,-0.78 5.69,-2.6 5.21,-4.9 C774.3348864746093,739.7727815246582 772.7948864746094,740.9327815246583 769.5048864746094,741.5027815246582 z" opacity="0.2" id="svg_194" class="selected"></path> <g opacity="0.75" id="svg_195" class="selected"> <path d="M692.5048864746094,429.5027815246582 a10.85,10.85 0 0 1 -0.5900000000000002,-1.52 c-0.3100000000000001,-1.21 0.07,-2.47 0.09000000000000004,-3.72 a13.14,13.14 0 0 0 -0.2900000000000001,-2.5700000000000003 c-0.5900000000000002,-3.23 -1.17,-6.47 -1.7600000000000002,-9.71 c-0.27,-1.49 -0.54,-3 -0.6700000000000004,-4.49 s-0.11000000000000003,-3.1 -0.14,-4.65 c-0.07,-5 -1,-10 -1.15,-15.05 c-0.11000000000000003,-2.6100000000000003 -0.3100000000000001,-5.22 -0.52,-7.83 c-0.3700000000000001,-4.48 -0.7600000000000002,-9 -1.55,-13.38 c-0.6200000000000002,-3.51 -2.38,-6.79 -2.42,-10.35 c0,-1.85 0,-3.7 -0.05000000000000002,-5.55 a10.64,10.64 0 0 0 -0.7400000000000002,-4.66 a10.24,10.24 0 0 0 -2.74,-3.13 q-4.72,-4.08 -9.78,-7.75 a6,6 0 0 0 3.06,-0.23 a2,2 0 0 0 1.17,-2.52 a2.52,2.52 0 0 0 -1.55,-1.12 a14.18,14.18 0 0 0 -3.72,-0.6000000000000002 a13.74,13.74 0 0 0 0.27,-1.45 c0.6600000000000003,-5.16 -1.9300000000000002,-10.22 -1.92,-15.42 c0,-5.36 2.72,-10.27 4.29,-15.39 a37.18,37.18 0 0 0 -1.1,-24.73 c-1.6900000000000004,-4.16 -4.16,-8.07 -5,-12.48 c-0.6500000000000002,-3.46 -0.24000000000000005,-7 -0.8300000000000002,-10.51 c-1.48,-8.83 -9.35,-15.620000000000001 -18,-18 c-6.67,-1.81 -13.46,-1.23 -20.17,0 c-5.77,1.07 -11,-1.29 -16.8,-0.53 c-2.26,0.2900000000000001 -4.61,1 -6.07,2.7800000000000002 a32.94,32.94 0 0 0 -2,3.39 c-2.5700000000000003,4 -7.67,5.37 -11.91,7.5600000000000005 c-6.44,3.34 -11.57,9.57 -12.53,16.75 c-0.8900000000000002,6.66 1.73,13.26 2.13,20 c0.51,8.56 -2.6,16.86 -5.23,25 a19.53,19.53 0 0 0 -1.31,7 a18.81,18.81 0 0 0 1.08,4.78 c0.8300000000000002,2.52 1.77,5 2.84,7.45 a24.81,24.81 0 0 1 -6.22,1.6300000000000003 c-2.18,0.25 -4.51,0.16000000000000006 -6.4,1.27 a7.48,7.48 0 0 0 -2.22,2.12 a11.65,11.65 0 0 0 -2,8.79 a2.73,2.73 0 0 0 -1.27,2.34 c-0.05000000000000002,0.93 0.16000000000000006,1.85 0.2,2.7800000000000002 a17.57,17.57 0 0 1 -1,5.14 a43.59,43.59 0 0 0 -1.1400000000000001,17.46 c1.28,9.34 1.53,18.61 1.94,28 c0.27,6.17 -0.24000000000000005,12.41 0.78,18.51 c0.3400000000000002,2 1,4.2 2.58,5.48 a11.23,11.23 0 0 1 1.1600000000000001,0.9 c0.9,0.9400000000000002 0.93,2.39 1.23,3.66 a7.88,7.88 0 0 0 8.12,5.79 h0 l0,0 h0 c-0.6700000000000004,2 -1.33,3.85 -2,5.77 H673.4148864746094 c-0.06000000000000002,-0.24000000000000005 -0.12000000000000002,-0.4800000000000001 -0.17,-0.7200000000000002 a10.81,10.81 0 0 1 -0.07,-3.06 c0.8600000000000002,1 0.7100000000000002,2.47 0.9400000000000002,3.7800000000000002 H693.4148864746094 A16.64,16.64 0 0 0 692.5048864746094,429.5027815246582 z" fill="url(#fb002706-ca86-4a39-b11f-6baa546b4cba)" id="svg_196"></path> <path d="M610.4148864746094,233.3827815246582 c-2.25,0.3000000000000001 -4.58,1 -6,2.77 a31.47,31.47 0 0 0 -2,3.37 c-2.55,4 -7.62,5.33 -11.82,7.51 c-6.4,3.31 -11.49,9.51 -12.44,16.64 c-0.8900000000000002,6.62 1.71,13.18 2.11,19.84 c0.5,8.5 -2.58,16.75 -5.19,24.86 a19.48,19.48 0 0 0 -1.31,7 a18.59,18.59 0 0 0 1.08,4.75 c2.4,7.27 5.65,14.35 10.49,20.28 s11.38,10.67 18.83,12.42 a53.87,53.87 0 0 0 10.38,1.1 q8,0.3000000000000001 16,0.3000000000000001 a45.82,45.82 0 0 0 8.76,-0.5900000000000002 c6.11,-1.19 11.49,-4.6400000000000015 16.71,-8 c6,-3.9 12.6,-8.69 13.51,-15.8 c0.6500000000000002,-5.12 -1.9100000000000001,-10.15 -1.9100000000000001,-15.32 s2.7,-10.2 4.26,-15.28 A37,37 0 0 0 670.7748864746094,274.6127815246582 c-1.6800000000000004,-4.14 -4.13,-8 -5,-12.41 c-0.6500000000000002,-3.43 -0.25,-7 -0.8300000000000002,-10.44 c-1.47,-8.77 -9.28,-15.51 -17.86,-17.84 c-6.63,-1.79 -13.37,-1.23 -20,0 C621.4148864746094,234.97278152465822 616.1448864746094,232.6127815246582 610.4148864746094,233.3827815246582 z" fill="#3f3d56" id="svg_197"></path> <path d="M612.2348864746094,306.8727815246582 a21.59,21.59 0 0 1 -2.6900000000000004,16.27 a26.18,26.18 0 0 1 -5.79,6.05 a37.05,37.05 0 0 1 -11.42,6.3100000000000005 a23,23 0 0 0 8.78,4.27 a41.78,41.78 0 0 0 7.49,0.91 a213,213 0 0 0 37.87,-1.37 c4.2,-0.53 8.58,-1.26 12,-3.79 a1.7000000000000002,1.7000000000000002 0 0 0 0.6700000000000004,-0.79 c0.24000000000000005,-0.8300000000000002 -0.7500000000000002,-1.46 -1.57,-1.7400000000000002 c-4,-1.3900000000000001 -8.41,-2.18 -11.91,-4.6400000000000015 c-5.36,-3.77 -7.6,-10.68 -8.08,-17.21 s0.46,-13.12 -0.18000000000000005,-19.65 q-13,-0.19000000000000006 -26,0.7600000000000002 c-1,0.07 -5.32,-0.17 -5.84,0.6600000000000003 s1.84,3.24 2.44,4.15 A28.83,28.83 0 0 1 612.2348864746094,306.8727815246582 z" fill="#fbbebe" id="svg_198"></path> <circle cx="624.2248687744141" cy="277.4927864074707" r="29.56999969482422" opacity="0.1" id="svg_199"></circle> <circle cx="624.2248687744141" cy="276.4427833557129" r="29.56999969482422" fill="#fbbebe" id="svg_200"></circle> <path d="M665.7448864746094,385.3127815246582 c-2.42,9.9 -3.94,20.15 -2.92,30.3 c0.6800000000000004,6.72 3,14 3.16,20.88 H592.6648864746094 c0,-3.7 0,-7.53 0,-11.35 c0,-0.7100000000000002 0,-1.4100000000000001 0,-2.11 c0,-0.91 0,-1.82 0,-2.73 c0,-2.77 0,-5.51 0,-8.17 c0,-4.79 0,-9.6 -0.51,-14.37 a105.06,105.06 0 0 0 -5.86,-24.87 l-0.6300000000000002,-1.7600000000000002 h0 c0,-0.07 0,-0.13 -0.08000000000000003,-0.19000000000000006 c-0.21000000000000005,-0.6000000000000002 -0.4400000000000001,-1.19 -0.6600000000000003,-1.79 c-3.5700000000000003,-9.48 -7.65,-19.32 -5.69,-29.18 A25.27,25.27 0 0 1 591.4148864746094,323.0627815246582 a13.73,13.73 0 0 1 6.3100000000000005,-1.94 c3.81,-0.06000000000000002 7.24,2.18 10.42,4.3 c1.51,1 3,2 4.59,3 a50.62,50.62 0 0 0 11.76,5.62 c5.91,1.79 12.6,1.86 18,-1.12 a21.09,21.09 0 0 0 3,-2.06 a34.25,34.25 0 0 0 4.94,-5.2 c1.44,2.8 4.5600000000000005,4 7.15,5.75 A22.36,22.36 0 0 1 665.4148864746094,341.8627815246582 a57.62,57.62 0 0 1 3,12.88 a67.07,67.07 0 0 1 0.8600000000000002,13 C668.8948864746094,373.7427815246582 667.1548864746094,379.5127815246582 665.7448864746094,385.3127815246582 z" fill="#3f3d56" id="svg_201"></path> <path d="M621.6748864746094,436.4927815246582 H571.5048864746094 c0.6700000000000004,-1.92 1.32,-3.79 2,-5.74 h0 a0,0 0 0 0 0,0 H573.4148864746094 a7.8100000000000005,7.8100000000000005 0 0 1 -8.06,-5.76 c-0.3000000000000001,-1.26 -0.3300000000000001,-2.6900000000000004 -1.23,-3.63 a10,10 0 0 0 -1.1400000000000001,-0.8900000000000002 c-1.62,-1.27 -2.23,-3.42 -2.56,-5.45 c-1,-6.06 -0.52,-12.25 -0.78,-18.39 c-0.4100000000000001,-9.36 -0.6600000000000003,-18.58 -1.9300000000000002,-27.86 a43.35,43.35 0 0 1 1.13,-17.34 a17.37,17.37 0 0 0 1,-5.11 c0,-0.92 -0.25,-1.84 -0.2,-2.7600000000000002 a2.6900000000000004,2.6900000000000004 0 0 1 1.26,-2.3200000000000003 a11.61,11.61 0 0 1 2,-8.74 a7.65,7.65 0 0 1 2.21,-2.11 c1.8800000000000003,-1.1 4.19,-1 6.35,-1.26 c10.1,-1.1400000000000001 18.1,-10 28.21,-11 a38.15,38.15 0 0 1 6.84,0.16000000000000006 c3.72,0.3100000000000001 5.08,5 5.94,8.66 c0.12000000000000002,0.4800000000000001 0.22000000000000006,1 0.3200000000000001,1.44 c1.9,9 1.55,18.4 1.55,27.65 a23.38,23.38 0 0 0 0.8600000000000002,6.28 c1.53,5.58 1.6900000000000004,11.42 2,17.2 a389.7,389.7 0 0 0 4.06,40.34 a73.94,73.94 0 0 1 0.93,7.5600000000000005 A45.8,45.8 0 0 1 621.6748864746094,436.4927815246582 z" fill="#f86d70" id="svg_202"></path> <path d="M610.9948864746094,363.33278152465823 a28.77,28.77 0 0 1 2.92,3.95 c0.4,0.6600000000000003 0.7300000000000002,1.62 0.14,2.12 a1.75,1.75 0 0 1 -1.08,0.3000000000000001 l-7,0.3000000000000001 a8.15,8.15 0 0 1 -3.16,-0.2900000000000001 a8,8 0 0 1 -3.2800000000000002,-2.93 L596.4148864746094,362.7027815246582 a9.23,9.23 0 0 1 -2,-3.52 a3.16,3.16 0 0 1 1.4,-3.5 a4.65,4.65 0 0 1 3.44,0.24000000000000005 c2.12,0.7200000000000002 4.6400000000000015,1.2 6.51,2.43 A26.88,26.88 0 0 1 610.9948864746094,363.33278152465823 z" fill="#f86d70" id="svg_203"></path> <path d="M610.9948864746094,363.33278152465823 a28.77,28.77 0 0 1 2.92,3.95 c0.4,0.6600000000000003 0.7300000000000002,1.62 0.14,2.12 a1.75,1.75 0 0 1 -1.08,0.3000000000000001 l-7,0.3000000000000001 a8.15,8.15 0 0 1 -3.16,-0.2900000000000001 a8,8 0 0 1 -3.2800000000000002,-2.93 L596.4148864746094,362.7027815246582 a9.23,9.23 0 0 1 -2,-3.52 a3.16,3.16 0 0 1 1.4,-3.5 a4.65,4.65 0 0 1 3.44,0.24000000000000005 c2.12,0.7200000000000002 4.6400000000000015,1.2 6.51,2.43 A26.88,26.88 0 0 1 610.9948864746094,363.33278152465823 z" opacity="0.1" id="svg_204"></path> <path d="M606.9948864746094,363.8027815246582 a100.14,100.14 0 0 1 3.5300000000000002,-13.54 a31.71,31.71 0 0 0 1.77,-6.58 c0.19000000000000006,-1.77 0,-3.56 0.18000000000000005,-5.33 c0.14,-1.53 0.51,-3 0.7400000000000002,-4.54 a22.81,22.81 0 0 0 -0.55,-9.23 c-0.6400000000000002,-2.39 0,-5.3 -1.56,-7.24 c-0.6200000000000002,-0.79 -1.45,-1.3900000000000001 -2.1,-2.16 a3,3 0 0 1 -0.79,-2.77 a17.46,17.46 0 0 0 6.6400000000000015,0.21000000000000005 a4.36,4.36 0 0 0 1.86,-0.6500000000000002 a1.75,1.75 0 0 0 0.78,-1.6900000000000004 a2.44,2.44 0 0 0 -1.27,-1.45 a15.57,15.57 0 0 0 -13.23,-1.48 a0.77,0.77 0 0 1 0.3300000000000001,-0.9400000000000002 a2.83,2.83 0 0 1 1,-0.3300000000000001 a6.9,6.9 0 0 0 4.93,-4.28 a1.46,1.46 0 0 0 0.1,-0.9400000000000002 c-0.26,-0.7300000000000002 -1.3,-0.6900000000000004 -2.05,-0.5 l-4.08,1 a9.58,9.58 0 0 0 -2.2800000000000002,0.77 a9.38,9.38 0 0 0 -2.33,2 c-2.14,2.31 -4.32,4.69 -5.5,7.61 c-0.53,1.32 -0.8400000000000002,2.72 -1.3900000000000001,4 a6.16,6.16 0 0 1 -2.68,3.21 a3.47,3.47 0 0 0 -1.75,3.68 a10.3,10.3 0 0 0 1.86,4 a48.84,48.84 0 0 0 5.13,6.67 a18.6,18.6 0 0 1 3.5,4.29 c0.5800000000000002,1.18 0.8300000000000002,2.5 1.34,3.7 a8.11,8.11 0 0 1 0.6500000000000002,1.7600000000000002 a4.5,4.5 0 0 1 0,1.32 c-0.8500000000000002,6.65 -5.78,12.07 -7.62,18.51 a1.81,1.81 0 0 0 1,2.37 c3.58,2.71 8,4.11 12.24,5.46 A46.25,46.25 0 0 0 606.9948864746094,363.8027815246582 z" opacity="0.1" id="svg_205"></path> <path d="M606.4148864746094,363.5027815246582 a100.14,100.14 0 0 1 3.5300000000000002,-13.54 a31.1,31.1 0 0 0 1.77,-6.58 c0.19000000000000006,-1.77 0,-3.56 0.18000000000000005,-5.33 c0.14,-1.53 0.51,-3 0.7400000000000002,-4.54 a22.81,22.81 0 0 0 -0.55,-9.23 c-0.6400000000000002,-2.39 0,-5.3 -1.56,-7.24 c-0.6200000000000002,-0.79 -1.45,-1.3900000000000001 -2.1,-2.16 a3,3 0 0 1 -0.79,-2.77 a17.46,17.46 0 0 0 6.6400000000000015,0.21000000000000005 a4.36,4.36 0 0 0 1.86,-0.6500000000000002 a1.78,1.78 0 0 0 0.79,-1.6900000000000004 a2.49,2.49 0 0 0 -1.28,-1.45 A15.57,15.57 0 0 0 602.4148864746094,307.0527815246582 a0.77,0.77 0 0 1 0.3300000000000001,-0.9400000000000002 a2.8200000000000003,2.8200000000000003 0 0 1 1,-0.3300000000000001 a6.9,6.9 0 0 0 4.92,-4.28 a1.44,1.44 0 0 0 0.1,-0.93 c-0.26,-0.7400000000000002 -1.3,-0.7000000000000002 -2,-0.51 l-4.07,1 a9.5,9.5 0 0 0 -2.29,0.77 a9.38,9.38 0 0 0 -2.33,2 c-2.14,2.31 -4.32,4.69 -5.5,7.61 c-0.53,1.32 -0.8400000000000002,2.72 -1.3900000000000001,4 a6.16,6.16 0 0 1 -2.68,3.21 a3.49,3.49 0 0 0 -1.75,3.68 a10.3,10.3 0 0 0 1.86,4 a49.65,49.65 0 0 0 5.13,6.67 a18.6,18.6 0 0 1 3.5,4.29 c0.5800000000000002,1.18 0.8300000000000002,2.5 1.34,3.71 a7.84,7.84 0 0 1 0.6500000000000002,1.75 a4.5,4.5 0 0 1 0,1.32 c-0.8500000000000002,6.65 -5.78,12.07 -7.62,18.51 a1.81,1.81 0 0 0 1,2.37 c3.58,2.71 8,4.11 12.24,5.46 A46.25,46.25 0 0 0 606.4148864746094,363.5027815246582 z" fill="#fbbebe" id="svg_206"></path> <path d="M609.1048864746094,361.83278152465823 a0.7300000000000002,0.7300000000000002 0 0 1 0.3400000000000002,0.3100000000000001 a0.7500000000000002,0.7500000000000002 0 0 1 0,0.53 a44,44 0 0 1 -3.8600000000000003,8.5 q-4.77,-2.62 -9.31,-5.61 a5,5 0 0 1 -1.87,-1.7600000000000002 C589.9348864746094,355.1727815246582 606.1348864746094,360.1027815246582 609.1048864746094,361.83278152465823 z" fill="#3f3d56" id="svg_207"></path> <path d="M591.2648864746094,366.0127815246582 c-1.05,1.4 -2.26,2.66 -3.3,4.07 a63.61,63.61 0 0 0 -4.55,8.21 a56.38,56.38 0 0 1 -6.91,10.21 c-2.6900000000000004,3.16 -5.91,6.4 -6.21,10.54 a3.3,3.3 0 0 1 -0.3700000000000001,1.71 c-0.3000000000000001,0.4400000000000001 -0.8300000000000002,0.6600000000000003 -1.22,1 s-0.6300000000000002,1 -0.23,1.4100000000000001 c-1.54,0.16000000000000006 -2.18,2 -2.48,3.5300000000000002 l-0.6800000000000004,3.5 a13.81,13.81 0 0 0 -0.3300000000000001,2.79 a11.56,11.56 0 0 0 0.91,3.68 a59.56,59.56 0 0 0 6.32,12.2 c1.23,1.82 2.6500000000000004,3.6500000000000004 4.67,4.52 a12.870000000000001,12.870000000000001 0 0 0 6,0.56 c2.85,-0.18000000000000005 6.16,-0.6300000000000002 7.58,-3.11 c0.9,-1.57 0.7600000000000002,-3.6 1.7400000000000002,-5.12 a17.48,17.48 0 0 1 1.8800000000000003,-2.07 a13.37,13.37 0 0 0 2.31,-4.5600000000000005 a170.5,170.5 0 0 0 6.24,-22.75 a36.72,36.72 0 0 1 2.05,-7.63 a42.73,42.73 0 0 1 3.8,-6.27 c2.5300000000000002,-3.83 2.91,-7.15 4.66,-11.39 c-3.8600000000000003,-0.9 -5.6400000000000015,-3.46 -8.93,-5.63 c-3.1,-2.05 -7.69,-6.41 -11,-8 C592.1248864746094,360.1427815246582 593.0348864746094,363.6127815246582 591.2648864746094,366.0127815246582 z" opacity="0.1" id="svg_208"></path> <path d="M588.9048864746094,363.9127815246582 c-1,1.4 -2.26,2.67 -3.29,4.08 a62.32,62.32 0 0 0 -4.55,8.2 a56.11,56.11 0 0 1 -6.91,10.22 c-2.7,3.16 -5.91,6.39 -6.21,10.54 a3.35,3.35 0 0 1 -0.3700000000000001,1.7000000000000002 a7.22,7.22 0 0 1 -1.23,1 c-0.3900000000000001,0.3600000000000001 -0.6200000000000002,1 -0.23,1.4 c-1.54,0.17 -2.18,2 -2.47,3.54 l-0.6800000000000004,3.5 a12.5,12.5 0 0 0 -0.3300000000000001,2.7800000000000002 a11.36,11.36 0 0 0 0.91,3.6900000000000004 a59.78,59.78 0 0 0 6.3100000000000005,12.2 c1.23,1.82 2.66,3.6500000000000004 4.68,4.52 a12.870000000000001,12.870000000000001 0 0 0 6,0.56 c2.84,-0.18000000000000005 6.16,-0.6400000000000002 7.57,-3.11 c0.9,-1.58 0.7600000000000002,-3.6 1.7400000000000002,-5.13 a20.31,20.31 0 0 1 1.8800000000000003,-2.06 a13.39,13.39 0 0 0 2.3200000000000003,-4.5600000000000005 a170.87,170.87 0 0 0 6.23,-22.75 a37,37 0 0 1 2,-7.6400000000000015 a43.52,43.52 0 0 1 3.8,-6.26 c2.54,-3.83 2.39,-6.1 4.14,-10.35 c-3.8600000000000003,-0.8900000000000002 -5.12,-4.5 -8.41,-6.67 c-3.1,-2.05 -7.68,-6.41 -11,-8 C589.7748864746094,358.0527815246582 590.6848864746094,361.5327815246582 588.9048864746094,363.9127815246582 z" opacity="0.1" id="svg_209"></path> <path d="M590.2148864746093,364.9627815246582 c-1,1.4 -2.26,2.67 -3.29,4.07 a61.93,61.93 0 0 0 -4.55,8.21 a55.69,55.69 0 0 1 -6.91,10.21 c-2.7,3.17 -5.91,6.4 -6.21,10.54 a3.38,3.38 0 0 1 -0.3700000000000001,1.71 a7.72,7.72 0 0 1 -1.23,1 c-0.3900000000000001,0.3600000000000001 -0.6200000000000002,1 -0.23,1.4 c-1.54,0.16000000000000006 -2.18,2 -2.47,3.54 l-0.6800000000000004,3.5 a12.43,12.43 0 0 0 -0.3300000000000001,2.7800000000000002 a11.6,11.6 0 0 0 0.9,3.6900000000000004 a60,60 0 0 0 6.32,12.19 c1.23,1.83 2.66,3.66 4.68,4.53 a13,13 0 0 0 6,0.56 c2.84,-0.18000000000000005 6.16,-0.6400000000000002 7.57,-3.11 c0.9,-1.58 0.7600000000000002,-3.6100000000000003 1.7400000000000002,-5.13 a20.42,20.42 0 0 1 1.8800000000000003,-2.07 a13.43,13.43 0 0 0 2.3200000000000003,-4.55 a170.6,170.6 0 0 0 6.23,-22.76 a36.89,36.89 0 0 1 2,-7.63 a43.52,43.52 0 0 1 3.8,-6.26 a71.46,71.46 0 0 0 6.45,-12.16 a33.24,33.24 0 0 1 -10.72,-4.87 c-3.1,-2 -7.68,-6.41 -11,-8 C591.0848864746093,359.0927815246582 591.9848864746094,362.6127815246582 590.2148864746093,364.9627815246582 z" fill="#f86d70" id="svg_210"></path> <circle cx="600.1448822021484" cy="368.04277420043945" r="2.0899999141693115" fill="#3f3d56" id="svg_211"></circle> <circle cx="593.6048736572266" cy="378.2527961730957" r="2.0899999141693115" fill="#3f3d56" id="svg_212"></circle> <circle cx="586.8048858642578" cy="388.7227668762207" r="2.0899999141693115" fill="#3f3d56" id="svg_213"></circle> <path d="M693.3248864746093,436.4927815246582 H674.1848864746094 c-0.23,-1.3 -0.08000000000000003,-2.77 -0.93,-3.77 a11.12,11.12 0 0 0 0.07,3.05 c0.05000000000000002,0.24000000000000005 0.11000000000000003,0.4800000000000001 0.17,0.7200000000000002 H649.1548864746094 a38.82,38.82 0 0 1 0.8700000000000002,-9.13 A84.56,84.56 0 0 0 651.4148864746094,414.08278152465823 c0.12000000000000002,-5.51 -0.2900000000000001,-11 -0.3200000000000001,-16.51 a120,120 0 0 1 1.05,-16.3 c0.6600000000000003,-5 1.6400000000000001,-10 0.8300000000000002,-15 c-0.91,-5.53 -1.6900000000000004,-11.13 -2.39,-16.69 a18.63,18.63 0 0 0 -0.7000000000000002,-3.63 a23.74,23.74 0 0 0 -1,-2.43 a37.41,37.41 0 0 1 -3.24,-12.73 c-0.14,-1.6600000000000001 -2.49,-3.16 -2.46,-4.84 c3.2,-0.6500000000000002 8.91,-1.45 12,-0.3400000000000002 s5.37,3.84 8.47,4.87 s6.38,0.28 9.39,1.29 a2.5,2.5 0 0 1 1.55,1.1 a2,2 0 0 1 -1.17,2.51 a5.85,5.85 0 0 1 -3,0.23 q5,3.6500000000000004 9.7,7.7 a10.22,10.22 0 0 1 2.72,3.11 a10.65,10.65 0 0 1 0.7400000000000002,4.63 c0,1.84 0,3.67 0.05000000000000002,5.51 c0,3.54 1.78,6.8 2.4,10.28 c0.78,4.4 1.17,8.85 1.53,13.3 c0.21000000000000005,2.59 0.4100000000000001,5.18 0.52,7.78 c0.2,5 1.07,10 1.15,14.95 c0,1.54 0,3.09 0.14,4.62 a45,45 0 0 0 0.6600000000000003,4.47 c0.5800000000000002,3.21 1.1600000000000001,6.43 1.75,9.64 a13,13 0 0 1 0.28,2.55 a14.38,14.38 0 0 0 -0.09000000000000004,3.7 a10.73,10.73 0 0 0 0.5900000000000002,1.51 A16.75,16.75 0 0 1 693.3248864746093,436.4927815246582 z" fill="#f86d70" id="svg_214"></path> <ellipse cx="625.4048919677734" cy="253.28277969360352" rx="28.270000457763672" ry="10.989999771118164" fill="#3f3d56" id="svg_215"></ellipse> <path d="M640.6048864746094,264.3827815246582 c-8.88,-3.49 -12.36,4.12 -12.36,4.12 c-3.42,9.12 3,14.46 6.86,16.75 a9.51,9.51 0 0 0 4.85,1.33 a9.3,9.3 0 0 0 3.6100000000000003,-0.7100000000000002 a15.55,15.55 0 0 0 9.73,-12 C654.8748864746094,261.5327815246582 640.6048864746094,264.3827815246582 640.6048864746094,264.3827815246582 zm9.26,9.7 a13,13 0 0 1 -7.91,10 a7.5600000000000005,7.5600000000000005 0 0 1 -6.87,-0.52 c-3.15,-1.9 -8.36,-6.36 -5.58,-13.95 c0,0 2.83,-6.34 10,-3.43 C639.5548864746094,266.1627815246582 651.1548864746094,263.7827815246582 649.8648864746094,274.08278152465823 z" fill="#f86d70" id="svg_216"></path> <path d="M639.5548864746094,266.1627815246582 s11.6,-2.38 10.31,7.92 a13,13 0 0 1 -7.91,10 a7.55,7.55 0 0 1 -2.93,0.5900000000000002 h0 a7.52,7.52 0 0 1 -3.94,-1.11 c-3.15,-1.9 -8.36,-6.36 -5.58,-13.95 C629.5048864746094,269.6127815246582 632.3348864746093,263.2527815246582 639.5548864746094,266.1627815246582 z" fill="#3f3d56" id="svg_217"></path> <path d="M639.5548864746094,266.1627815246582 s11.6,-2.38 10.31,7.92 a13,13 0 0 1 -7.91,10 a7.55,7.55 0 0 1 -2.93,0.5900000000000002 h0 a7.52,7.52 0 0 1 -3.94,-1.11 c-3.15,-1.9 -8.36,-6.36 -5.58,-13.95 C629.5048864746094,269.6127815246582 632.3348864746093,263.2527815246582 639.5548864746094,266.1627815246582 z" opacity="0.1" fill="url(#bfe43627-fb64-451a-a60b-63ec0f3e2f01)" id="svg_218"></path> <path d="M594.5348864746094,273.8927815246582 a15.55,15.55 0 0 0 9.73,12 a9.3,9.3 0 0 0 3.6100000000000003,0.7100000000000002 a9.51,9.51 0 0 0 4.85,-1.33 c3.88,-2.29 10.28,-7.63 6.86,-16.75 c0,0 -3.48,-7.61 -12.36,-4.12 C607.2248864746093,264.3827815246582 592.9548864746093,261.5327815246582 594.5348864746094,273.8927815246582 zm13.74,-7.73 c7.22,-2.91 10,3.43 10,3.43 c2.7800000000000002,7.59 -2.43,12 -5.58,13.95 a7.5600000000000005,7.5600000000000005 0 0 1 -6.87,0.52 a13,13 0 0 1 -7.91,-10 C596.6748864746094,263.7827815246582 608.2748864746094,266.1627815246582 608.2748864746094,266.1627815246582 z" fill="#f86d70" id="svg_219"></path> <path d="M608.2748864746094,266.1627815246582 s-11.6,-2.38 -10.31,7.92 a13,13 0 0 0 7.91,10 a7.55,7.55 0 0 0 2.93,0.5900000000000002 h0 a7.52,7.52 0 0 0 3.94,-1.11 c3.15,-1.9 8.36,-6.36 5.58,-13.95 C618.3248864746093,269.6127815246582 615.4948864746094,263.2527815246582 608.2748864746094,266.1627815246582 z" fill="#3f3d56" id="svg_220"></path> <path d="M608.2748864746094,266.1627815246582 s-11.6,-2.38 -10.31,7.92 a13,13 0 0 0 7.91,10 a7.55,7.55 0 0 0 2.93,0.5900000000000002 h0 a7.52,7.52 0 0 0 3.94,-1.11 c3.15,-1.9 8.36,-6.36 5.58,-13.95 C618.3248864746093,269.6127815246582 615.4948864746094,263.2527815246582 608.2748864746094,266.1627815246582 z" opacity="0.1" fill="url(#e811d1d0-4999-4f48-8b1f-72c39353b589)" id="svg_221"></path> </g> </g> </svg> 