<?xml version="1.0" encoding="UTF-8"?> <svg xmlns="http://www.w3.org/2000/svg" data-name="Layer 1" width="800" height="600"> <rect id="backgroundrect" width="100%" height="100%" x="0" y="0" fill="none" stroke="none" class="" style=""></rect> <g class="currentLayer" style=""> <title>Layer 1</title> <path d="M137.2794440209961,224.11119882873533 L112.50496402099611,251.88290882873537 c20.58137,8.73023 41.41509,-3.38955 49.95521,-9.46585 a123.72971,123.72971 0 1 0 -25.18073,-18.30582 z" fill="#e6e6e6" id="svg_1" class="selected"></path> <path d="M155.2901840209961,113.69270882873536 c25.55854,-0.26612 51.11383,-0.72306 76.67122,-1.07026 q12.78036,-0.17362 25.56125,-0.3043900000000001 c7.34162,-0.07644000000000002 7.36039,-11.49273 0,-11.4161 c-25.55854,0.26612 -51.11384,0.72306 -76.67123,1.07026 q-12.78036,0.17362 -25.56124,0.3043900000000001 c-7.34162,0.07644000000000002 -7.36039,11.49273 0,11.4161 z" fill="#fff" id="svg_2" class="selected"></path> <path d="M155.2901840209961,140.33027882873535 l103.29728,-1.07026 l29.37812,-0.3043900000000001 c7.3416500000000005,-0.07606000000000003 7.36039,-11.49236 0,-11.4161 l-103.29727,1.07026 l-29.37813,0.3043900000000001 c-7.3416500000000005,0.07606000000000003 -7.36038,11.49236 0,11.4161 z" fill="#fff" id="svg_3" class="selected"></path> <path d="M155.2901840209961,166.96784882873533 l103.29728,-1.07026 l29.37812,-0.3043900000000001 c7.3416500000000005,-0.07606000000000003 7.36039,-11.49236 0,-11.4161 l-103.29727,1.07026 l-29.37813,0.3043800000000002 c-7.3416500000000005,0.07607000000000003 -7.36038,11.49237 0,11.41611 z" fill="#fff" id="svg_4" class="selected"></path> <circle cx="79.67668914794922" cy="266.90159034729004" r="9" fill="#e6e6e6" id="svg_5" class="selected"></circle> <path d="M526.9657940209961,321.20011882873536 l-5.0312,31.40224 a13.61663,13.61663 0 0 1 -17.949559999999998,10.69588 h0 a13.61664,13.61664 0 0 1 -7.40427,-19.45279 l16.3699,-29.52456 l63.28132,-126.39719 a22.12795,22.12795 0 0 1 25.08831,-10.00345 l6.70454,1.90632 l-9.97115,29.23873 z" fill="#a0616a" id="svg_6" class="selected"></path> <polygon points="701.600700378418,541.9633274078369 716.413688659668,541.1832981109619 700.0416793823242,486.6083164215088 676.6516647338867,491.2863254547119 701.600700378418,541.9633274078369 " fill="#a0616a" id="svg_7" class="selected"></polygon> <polygon points="553.4676742553711,552.0993137359619 569.840690612793,552.0993137359619 578.4166793823242,499.0823154449463 553.4676742553711,499.0823154449463 553.4676742553711,552.0993137359619 " fill="#a0616a" id="svg_8" class="selected"></polygon> <path d="M579.4206240209961,104.25630882873534 a44.18456,44.18456 0 0 0 88.35921,0.9373 c0.013080000000000007,-0.3080000000000001 0.013080000000000007,-0.62936 0.013080000000000007,-0.9373 a44.18615,44.18615 0 1 0 -88.37229,0 z" fill="#2f2e41" id="svg_9" class="selected"></path> <circle cx="642.352409362793" cy="57.39221382141113" r="22.76255989074707" fill="#2f2e41" id="svg_10" class="selected"></circle> <path d="M639.977924020996,74.79198882873536 a22.75806,22.75806 0 0 0 27.49458,-32.79916 A22.75648,22.75648 0 1 1 630.9551840209961,68.72204882873535 A22.64574,22.64574 0 0 0 639.977924020996,74.79198882873536 z" fill="#2f2e41" id="svg_11" class="selected"></path> <circle cx="620.1213912963867" cy="127.23027229309082" r="25.529939651489258" fill="#a0616a" id="svg_12" class="selected"></circle> <path d="M638.4492840209961,136.54615882873537 s2.339,29.62665 17.15227,35.86384 l-57.694,53.0161 l-18.711570000000002,-8.57614 l13.254,-37.42313 s30.40629,-6.23718 17.93191,-33.52488 z" fill="#a0616a" id="svg_13" class="selected"></path> <path d="M540.2135740209961,503.76061882873535 l42.101,2.33894 l19.49121,-146.57392 L652.4829540209961,505.3199088287354 l50.67716,-16.37262 L653.2626040209962,322.1025088287353 c-12.84726,-46.15308 -2.03858,-96.87425 15.593,-148.91286 l-19.49121,-5.45754 l-44.44,6.23718 h0 A25.81016,25.81016 0 0 0 582.4057640209961,187.23790882873533 c-10.94689,19.60026 -18.862190000000002,38.61582 -12.4089,54.86022 C544.1239940209961,309.81390882873535 538.5450140209961,402.3545388287354 540.2135740209961,503.76061882873535 z" fill="#2f2e41" id="svg_14" class="selected"></path> <path d="M664.9573340209961,334.5769088287353 l-10.827,29.903 a13.61664,13.61664 0 0 0 10.51163,18.05808 h0 a13.61664,13.61664 0 0 0 15.90827,-13.42242 v-33.759 l5.94674,-141.22823 a22.128,22.128 0 0 0 -17.09071,-20.91411 l-6.78795,-1.58385 l-5.45754,30.40629 z" fill="#a0616a" id="svg_15" class="selected"></path> <path d="M706.9013040209961,585.2980588287354 h0 a13.765,13.765 0 0 0 13.75864,-10.42051 l0.51813,-2.07253 a49.4194,49.4194 0 0 0 -1.8847500000000004,-29.89786 L714.0751840209961,529.4890188287353 L698.4821840209961,536.5059088287353 l-4.79843,33.05578 A13.765,13.765 0 0 0 706.9013040209961,585.2980588287354 z" fill="#2f2e41" id="svg_16" class="selected"></path> <path d="M528.3947240209961,588.4633688287354 h0 a11.729,11.729 0 0 0 11.40812,0.4394600000000002 l29.689,-16.72212 a10.67146,10.67146 0 0 0 5.272,-11.15258 l-3.36436,-19.06474 H552.687944020996 L525.9470940209961,570.4111088287353 A11.729,11.729 0 0 0 528.3947240209961,588.4633688287354 z" fill="#2f2e41" id="svg_17" class="selected"></path> <path d="M579.8220540209961,98.29790882873536 c6.92239,16.77739 24.81156,28.721 45.79318,28.721 c17.96892,0 33.67506,-8.75686 42.1646,-21.82526 c0.013080000000000007,-0.3080000000000001 0.013080000000000007,-0.62936 0.013080000000000007,-0.9373 a44.1873,44.1873 0 0 0 -87.97086,-5.95845 z" fill="#2f2e41" id="svg_18" class="selected"></path> <path d="M502.0132940209961,228.79857882873534 A123.49556,123.49556 0 1 0 437.87018402099613,337.14509882873534 c8.54012,6.0763 29.37384,18.19608 49.95521,9.46586 l-24.77448,-27.77168 A123.19385,123.19385 0 0 0 502.0132940209961,228.79857882873534 z" fill="#3c71fb" id="svg_19" class="selected"></path> <path d="M315.3132740209961,208.42078882873534 c25.55854,-0.26611 51.11383,-0.72306 76.67122,-1.07026 q12.78036,-0.17363 25.56124,-0.3043800000000002 c7.34163,-0.07644000000000002 7.3604,-11.49274 0,-11.41611 c-25.55853,0.26612 -51.11383,0.72306 -76.67122,1.07026 q-12.78036,0.17362 -25.56124,0.3043900000000001 c-7.34162,0.07644000000000002 -7.36039,11.49273 0,11.4161 z" fill="#fff" id="svg_20" class="selected"></path> <path d="M315.3132740209961,235.05835882873538 l103.29728,-1.07026 l29.37812,-0.3043900000000001 c7.3416500000000005,-0.07606000000000003 7.36038,-11.49236 0,-11.4161 L344.6913940209961,223.33790882873535 l-29.37812,0.3043900000000001 c-7.3416500000000005,0.07606000000000003 -7.36038,11.49236 0,11.4161 z" fill="#fff" id="svg_21" class="selected"></path> <path d="M315.3132740209961,261.69590882873536 l103.29728,-1.07026 l29.37812,-0.3043900000000001 c7.3416500000000005,-0.07606000000000003 7.36038,-11.49236 0,-11.4161 l-103.29728,1.07026 l-29.37812,0.3043900000000001 c-7.3416500000000005,0.07606000000000003 -7.36038,11.49236 0,11.4161 z" fill="#fff" id="svg_22" class="selected"></path> </g> </svg> 