<?xml version="1.0" encoding="UTF-8"?> <svg xmlns="http://www.w3.org/2000/svg" width="1153" height="470" viewBox="0 0 1153 470" fill="none"> <path d="M659.027 79.9989L811.145 22.0069L807.805 106.42L807.757 107.616L808.943 107.45L1003.99 80.0356L918.108 155.762L916.228 157.421L918.733 157.512L1122.4 164.919L969.218 219.627L965.986 220.782L969.332 221.544L1147.08 262.041L952.251 286.561L949.177 286.948L951.897 288.431L1074.04 355.034L870.255 344.884L868.449 344.794L869.333 346.371L915.124 428.121L737.489 384.5L736.698 384.306L736.348 385.041L696.551 468.399L577.004 398.611L576.5 398.317L575.996 398.611L456.449 468.399L416.652 385.041L416.302 384.306L415.511 384.5L237.876 428.121L283.668 346.371L284.551 344.794L282.745 344.884L78.9579 355.034L201.103 288.431L203.823 286.948L200.749 286.561L5.92394 262.041L183.668 221.544L187.014 220.782L183.782 219.627L30.6039 164.919L234.267 157.512L236.772 157.421L234.892 155.762L149.009 80.0356L344.057 107.45L345.243 107.616L345.195 106.42L341.855 22.0069L493.973 79.9989L494.566 80.2249L495.023 79.7851L576.5 1.38775L657.977 79.7851L658.434 80.2249L659.027 79.9989Z" fill="#F9F871" stroke="#201E1E" stroke-width="2"></path> </svg> 