<?xml version="1.0" encoding="UTF-8"?> <svg xmlns="http://www.w3.org/2000/svg" width="400" height="400"> <g> <title>Layer 1</title> <g stroke="null" id="svg_33"> <g stroke="null" transform="matrix(0.334172 0 0 0.334172 0 0)" id="svg_5"> <g stroke="null" id="svg_6"> <path fill="#ffffff" stroke="null" id="svg_7" d="m358.29459,897.23926c3.737,0 7.5,-0.36108 11.18799,-1.07397l120.76807,-23.35706c34.97,13.95605 71.91299,21.026 109.94705,21.026c1.02991,0 2.06091,-0.00598 3.0929,-0.01599c39.92407,-0.40808 78.63501,-8.65613 115.06104,-24.51404c35.13,-15.29395 66.625,-36.97705 93.60901,-64.44702c26.98096,-27.46704 48.10303,-59.34204 62.77393,-94.74097c15.21204,-36.698 22.78198,-75.54602 22.49902,-115.46503c-0.28003,-39.67896 -8.271,-78.17798 -23.74695,-114.42398c-14.94702,-35.00507 -36.22498,-66.45502 -63.24304,-93.474c-27.01794,-27.01904 -58.46594,-48.29706 -93.47205,-63.24603c-36.24585,-15.47699 -74.74292,-23.46802 -114.42297,-23.75104c-0.70801,-0.00494 -1.43298,-0.00696 -2.13696,-0.00696c-39.69897,0 -78.29993,7.76801 -114.73196,23.08603c-35.16101,14.78397 -66.80505,35.94199 -94.05304,62.88498c-27.26202,26.95697 -48.77399,58.37195 -63.94098,93.37399c-15.72601,36.29303 -23.90704,74.84802 -24.31403,114.59601c-0.401,39.11804 6.664,77.10699 21.00897,113.04797l-23.35699,120.77209c-3.33301,17.23291 1.15698,34.87488 12.31799,48.40186c11.18402,13.55408 27.64203,21.32715 45.15302,21.32715zm-15.40997,-61.59509l24.90796,-128.78497c0.60004,-3.10602 0.25104,-6.32104 -1.005,-9.22607c-13.70697,-31.68195 -21.15399,-66.70197 -20.77795,-103.50397c1.42395,-139.13699 115.27802,-251.54099 254.202,-251.54099c0.604,0 1.22705,0.00201 1.83301,0.00702c138.93103,0.98798 251.36597,113.42703 252.34998,252.36002c0.98901,139.745 -111.79797,254.59802 -251.53894,256.0249c-0.88806,0.00916 -1.77197,0.01416 -2.65808,0.01416c-35.82898,0 -69.92493,-7.41614 -100.84097,-20.79114c-1.979,-0.85596 -4.10303,-1.29102 -6.23804,-1.29102c-0.99805,0 -1.99805,0.09509 -2.98694,0.28613l-128.78601,24.90698c-1.03204,0.19897 -2.05005,0.29395 -3.05005,0.29395c-9.612,0 -17.32996,-8.83203 -15.41095,-18.755z"></path> <path fill="#ffffff" stroke="null" id="svg_8" d="m358.29459,897.73914c-17.66199,0 -34.26001,-7.83997 -45.539,-21.50891c-11.25598,-13.64307 -15.784,-31.43506 -12.42297,-48.81494l23.32996,-120.62805c-14.32898,-35.95001 -21.39197,-74.00403 -20.99097,-113.10205c0.40796,-39.81396 8.60297,-78.435 24.35498,-114.79001c15.19202,-35.061 36.74103,-66.52899 64.04803,-93.53098c27.29498,-26.98999 58.99194,-48.18304 94.20996,-62.99106c36.496,-15.34396 75.16312,-23.12393 114.92703,-23.12393c0.70496,0 1.43103,0.00198 2.14099,0.00693c39.745,0.28302 78.30798,8.28802 114.61499,23.79208c35.06506,14.974 66.56604,36.28897 93.62903,63.35294c27.06201,27.06204 48.37598,58.56403 63.34998,93.63104c15.50305,36.30899 23.50708,74.871 23.78699,114.61697c0.28296,39.98499 -7.29907,78.89801 -22.53699,115.66003c-14.69507,35.45703 -35.85193,67.38599 -62.88,94.90002c-27.02795,27.51599 -58.57495,49.23389 -93.76697,64.55505c-36.48804,15.88489 -75.26599,24.146 -115.255,24.55591c-39.11499,0.35901 -77.16394,-6.67297 -113.09305,-20.99207l-120.62396,23.32813c-3.71802,0.71887 -7.51404,1.08289 -11.28302,1.08289zm241.91702,-597.48993c-39.63,0 -78.16699,7.75397 -114.53909,23.047c-35.10095,14.758 -66.69092,35.87997 -93.89496,62.77994c-27.216,26.91101 -48.69196,58.27408 -63.83295,93.21704c-15.70001,36.23099 -23.867,74.72202 -24.27301,114.40298c-0.40002,39.01703 6.65698,76.98804 20.974,112.85706l0.05396,0.13696l-0.02795,0.14404l-23.35699,120.7699c-3.30402,17.08606 1.14697,34.57703 12.21301,47.98914c11.08795,13.43799 27.40497,21.14587 44.76697,21.14587c3.70502,0 7.43701,-0.35803 11.09302,-1.06494l120.91199,-23.38501l0.13599,0.05408c35.84598,14.30688 73.80106,21.33398 112.84903,20.97583c39.854,-0.40698 78.50098,-8.64185 114.86609,-24.47192c35.0719,-15.27002 66.51392,-36.91602 93.4519,-64.33997c26.93811,-27.422 48.02209,-59.24402 62.66907,-94.58197c15.18701,-36.63806 22.74402,-75.42004 22.46094,-115.27002c-0.28003,-39.612 -8.25598,-78.04498 -23.70703,-114.23102c-14.92297,-34.94904 -36.16492,-66.34503 -63.13696,-93.31598c-26.97192,-26.97305 -58.36694,-48.21603 -93.31396,-63.14001c-36.18396,-15.45206 -74.61707,-23.43002 -114.22998,-23.71207c-0.70605,-0.00494 -1.43005,-0.00693 -2.13306,-0.00693zm-241.91605,554.64996c-4.82898,0 -9.383,-2.16296 -12.495,-5.93506c-3.08997,-3.7439 -4.33197,-8.63391 -3.40698,-13.41492l24.90802,-128.78503c0.58301,-3.02197 0.24701,-6.11096 -0.974,-8.93298c-14.18304,-32.78101 -21.18701,-67.67401 -20.81903,-103.70801c0.69,-67.39697 27.57001,-130.71805 75.68799,-178.298c48.08801,-47.55103 111.66409,-73.73801 179.01602,-73.73801c0.60498,0 1.229,0.00201 1.83704,0.00702c67.32507,0.479 130.63098,26.97195 178.255,74.59695c47.62402,47.62598 74.11401,110.93301 74.59106,178.25906c0.99097,140.02002 -112.07007,255.099 -252.03406,256.52893c-36.04993,0.35803 -70.94299,-6.646 -103.70303,-20.81799c-2.80396,-1.21399 -5.93396,-1.55591 -8.93201,-0.9729l-128.78699,24.90894c-1.04102,0.20105 -2.099,0.302 -3.14404,0.302zm241.91605,-511.81097c-67.08704,0 -130.41299,26.08502 -178.31204,73.44894c-47.92896,47.39407 -74.703,110.46506 -75.39099,177.59702c-0.367,35.89307 6.60999,70.64807 20.737,103.30103c1.30103,3.00604 1.66003,6.29797 1.03699,9.51904l-24.90796,128.78491c-0.86804,4.48706 0.297,9.07605 3.19598,12.58899c2.92102,3.54102 7.19501,5.57104 11.724,5.57104c0.98102,0 1.97601,-0.09595 2.95502,-0.28503l128.78595,-24.90686c3.19299,-0.61707 6.52905,-0.25708 9.51904,1.03687c32.63004,14.11707 67.38504,21.09106 103.29605,20.73596c139.41296,-1.42493 252.03088,-116.0509 251.04395,-255.52191c-0.47498,-67.06195 -26.86096,-130.12 -74.29797,-177.55905c-47.43799,-47.43796 -110.49402,-73.82697 -177.55603,-74.30392c-0.604,-0.00403 -1.22498,-0.00702 -1.82898,-0.00702z"></path> </g> <g stroke="null" id="svg_9"> <path fill="#ffffff" stroke="null" id="svg_10" d="m753.94366,662.2002c35.12695,0 63.70593,-28.578 63.70593,-63.70599c0,-35.12701 -28.57898,-63.70599 -63.70593,-63.70599c-35.12805,0 -63.70605,28.57898 -63.70605,63.70599c0,35.12799 28.578,63.70599 63.70605,63.70599zm0,-84.57202c11.52295,0 20.86597,9.34204 20.86597,20.86603c0,11.52399 -9.34302,20.86603 -20.86597,20.86603c-11.52405,0 -20.86609,-9.34204 -20.86609,-20.86603s9.34106,-20.86603 20.86609,-20.86603z"></path> <path fill="#ffffff" stroke="null" id="svg_11" d="m753.94366,662.7002c-35.40308,0 -64.20605,-28.80298 -64.20605,-64.20599s28.80298,-64.20599 64.20605,-64.20599s64.20605,28.80298 64.20605,64.20599s-28.8031,64.20599 -64.20605,64.20599zm0,-127.41199c-34.85205,0 -63.20605,28.354 -63.20605,63.20599c0,34.85199 28.354,63.20599 63.20605,63.20599s63.20605,-28.354 63.20605,-63.20599c-0.00012,-34.85199 -28.3551,-63.20599 -63.20605,-63.20599zm0,84.57202c-11.78101,0 -21.36597,-9.58502 -21.36597,-21.36603s9.58496,-21.36603 21.36597,-21.36603s21.36597,9.58502 21.36597,21.36603s-9.58508,21.36603 -21.36597,21.36603zm0,-41.73206c-11.229,0 -20.36597,9.13599 -20.36597,20.36603c0,11.229 9.13696,20.36603 20.36597,20.36603s20.36597,-9.13702 20.36597,-20.36603c0,-11.23004 -9.13708,-20.36603 -20.36597,-20.36603z"></path> </g> <g stroke="null" id="svg_12"> <path fill="#ffffff" stroke="null" id="svg_13" d="m598.49554,662.2002c35.12805,0 63.70605,-28.578 63.70605,-63.70599c0,-35.12701 -28.578,-63.70599 -63.70605,-63.70599c-35.12695,0 -63.70593,28.57898 -63.70593,63.70599c0,35.12799 28.578,63.70599 63.70593,63.70599zm0,-84.57202c11.52405,0 20.86609,9.34204 20.86609,20.86603c0,11.52399 -9.34204,20.86603 -20.86609,20.86603c-11.52393,0 -20.86597,-9.34204 -20.86597,-20.86603s9.34204,-20.86603 20.86597,-20.86603z"></path> <path fill="#ffffff" stroke="null" id="svg_14" d="m598.49554,662.7002c-35.40295,0 -64.20593,-28.80298 -64.20593,-64.20599s28.80298,-64.20599 64.20593,-64.20599s64.20605,28.80298 64.20605,64.20599s-28.80298,64.20599 -64.20605,64.20599zm0,-127.41199c-34.85193,0 -63.20593,28.354 -63.20593,63.20599c0,34.85199 28.354,63.20599 63.20593,63.20599c34.85205,0 63.20605,-28.354 63.20605,-63.20599c0,-34.85199 -28.35498,-63.20599 -63.20605,-63.20599zm0,84.57202c-11.78101,0 -21.36597,-9.58502 -21.36597,-21.36603s9.58496,-21.36603 21.36597,-21.36603s21.36609,9.58502 21.36609,21.36603s-9.58508,21.36603 -21.36609,21.36603zm0,-41.73206c-11.22998,0 -20.36597,9.13599 -20.36597,20.36603c0,11.229 9.13599,20.36603 20.36597,20.36603c11.229,0 20.36609,-9.13702 20.36609,-20.36603c0,-11.23004 -9.13708,-20.36603 -20.36609,-20.36603z"></path> </g> <g stroke="null" id="svg_15"> <path fill="#ffffff" stroke="null" id="svg_16" d="m443.04654,662.2002c35.12805,0 63.70703,-28.578 63.70703,-63.70599c0,-35.12701 -28.57898,-63.70599 -63.70703,-63.70599c-35.12695,0 -63.70593,28.57898 -63.70593,63.70599c0,35.12799 28.57898,63.70599 63.70593,63.70599zm0,-84.57202c11.52405,0 20.86609,9.34204 20.86609,20.86603c0,11.52399 -9.34204,20.86603 -20.86609,20.86603c-11.52393,0 -20.86597,-9.34204 -20.86597,-20.86603s9.34204,-20.86603 20.86597,-20.86603z"></path> <path fill="#ffffff" stroke="null" id="svg_17" d="m443.04654,662.7002c-35.40295,0 -64.20593,-28.80298 -64.20593,-64.20599s28.80298,-64.20599 64.20593,-64.20599c35.40405,0 64.20703,28.80298 64.20703,64.20599s-28.80298,64.20599 -64.20703,64.20599zm0,-127.41199c-34.85193,0 -63.20593,28.354 -63.20593,63.20599c0,34.85199 28.354,63.20599 63.20593,63.20599s63.20703,-28.354 63.20703,-63.20599c0,-34.85199 -28.35498,-63.20599 -63.20703,-63.20599zm0,84.57202c-11.78088,0 -21.36597,-9.58502 -21.36597,-21.36603s9.58398,-21.36603 21.36597,-21.36603s21.36609,9.58502 21.36609,21.36603s-9.58398,21.36603 -21.36609,21.36603zm0,-41.73206c-11.229,0 -20.36597,9.13599 -20.36597,20.36603c0,11.229 9.13599,20.36603 20.36597,20.36603c11.2301,0 20.36609,-9.13702 20.36609,-20.36603c0.00098,-11.23004 -9.13599,-20.36603 -20.36609,-20.36603z"></path> </g> </g> <g stroke="null" transform="matrix(0.334172 0 0 0.334172 0 0)" id="svg_18"></g> <g stroke="null" transform="matrix(0.334172 0 0 0.334172 0 0)" id="svg_19"></g> <g stroke="null" transform="matrix(0.334172 0 0 0.334172 0 0)" id="svg_20"></g> <g stroke="null" transform="matrix(0.334172 0 0 0.334172 0 0)" id="svg_21"></g> <g stroke="null" transform="matrix(0.334172 0 0 0.334172 0 0)" id="svg_22"></g> <g stroke="null" transform="matrix(0.334172 0 0 0.334172 0 0)" id="svg_23"></g> <g stroke="null" transform="matrix(0.334172 0 0 0.334172 0 0)" id="svg_24"></g> <g stroke="null" transform="matrix(0.334172 0 0 0.334172 0 0)" id="svg_25"></g> <g stroke="null" transform="matrix(0.334172 0 0 0.334172 0 0)" id="svg_26"></g> <g stroke="null" transform="matrix(0.334172 0 0 0.334172 0 0)" id="svg_27"></g> <g stroke="null" transform="matrix(0.334172 0 0 0.334172 0 0)" id="svg_28"></g> <g stroke="null" transform="matrix(0.334172 0 0 0.334172 0 0)" id="svg_29"></g> <g stroke="null" transform="matrix(0.334172 0 0 0.334172 0 0)" id="svg_30"></g> <g stroke="null" transform="matrix(0.334172 0 0 0.334172 0 0)" id="svg_31"></g> <g stroke="null" transform="matrix(0.334172 0 0 0.334172 0 0)" id="svg_32"></g> </g> </g> </svg> 