<?xml version="1.0" encoding="UTF-8"?> <svg xmlns="http://www.w3.org/2000/svg" data-name="Layer 1" width="1200" height="900"> <rect id="backgroundrect" width="100%" height="100%" x="0" y="0" fill="none" stroke="none" class="" style=""></rect> <title>begin chat</title> <g class="currentLayer" style=""> <title>Layer 1</title> <path d="M584.0276633935547,85.41729151611328 c-105.4864,0 -191,56.81583 -191,126.9017 c0,31.29389 17.05887,59.9363 45.322,82.06248 V386.4850915161133 l60.5461,-60.54614 a271.67266,271.67266 0 0 0 85.13187,13.28173 c105.48639,0 191,-56.81583 191,-126.90169 S689.5140533935547,85.41729151611328 584.0276633935547,85.41729151611328 z" fill="#f2f2f2" id="svg_1" class="selected"></path> <g opacity="0.3" id="svg_2" class="selected"> <path d="M904.9625633935547,717.0678615161132 a20.81252,20.81252 0 1 0 8.3387,-39.13277 l-0.98562,10.67947 l-3.7314,-9.80018 a20.73405,20.73405 0 0 0 -12.22123,10.10949 a20.4084,20.4084 0 0 0 -1.97438,5.40651 A20.80854,20.80854 0 0 0 904.9625633935547,717.0678615161132 z" fill="#57b894" id="svg_3"></path> <path d="M912.3785933935546,843.5996915161132 c-0.4945100000000001,-9.27109 8.313320000000001,-16.18134 16.63109,-20.306 s17.89981,-7.97772 21.73547,-16.43263 c5.51252,-12.15118 -3.91862,-25.32906 -11.121,-36.56135 a125.3002,125.3002 0 0 1 -12.91856,-26.63091 c-1.29809,-3.7514700000000003 -2.42859,-7.6410800000000005 -2.34816,-11.61 c0.11584000000000003,-5.71565 2.71274,-11.052 5.29035,-16.15471 q12.88016,-25.49811 26.95418,-50.36938 " fill="none" stroke="#3f3d56" stroke-miterlimit="10" id="svg_4"></path> <path d="M906.1977733935547,714.4572815161133 a20.81252,20.81252 0 1 0 8.33869,-39.13278 l-0.98561,10.67948 l-3.7314,-9.80018 a20.734,20.734 0 0 0 -12.22123,10.10949 a20.40859,20.40859 0 0 0 -1.97439,5.4065 A20.80855,20.80855 0 0 0 906.1977733935547,714.4572815161133 z" fill="none" stroke="#3f3d56" stroke-miterlimit="10" id="svg_5"></path> <path d="M935.9581033935547,658.8762615161132 A20.788240000000002,20.788240000000002 0 0 1 952.6399333935547,647.9084915161133 l0.2693600000000001,10.32343 l4.64475,-10.1448 a20.81,20.81 0 1 1 -21.59594,10.78916 z" fill="#57b894" id="svg_6"></path> <path d="M937.6050533935547,655.3954915161132 A20.7882,20.7882 0 0 1 954.2868533935547,644.4276915161133 l0.2693600000000001,10.32344 l4.64475,-10.14481 A20.81,20.81 0 1 1 937.6050533935547,655.3954915161132 z" fill="none" stroke="#3f3d56" stroke-miterlimit="10" id="svg_7"></path> <path d="M935.9778533935547,769.9920415161133 a20.81,20.81 0 0 0 23.42627,-34.07564 l-3.5691100000000002,7.796 l-0.2698000000000001,-10.44473 a0.3628200000000002,0.3628200000000002 0 0 0 -0.04963000000000003,-0.027320000000000014 A20.81113,20.81113 0 1 0 935.9778533935547,769.9920415161133 z" fill="#57b894" id="svg_8"></path> <path d="M937.4803533935547,766.4429215161133 a20.81,20.81 0 0 0 23.42627,-34.07565 l-3.56912,7.796 L957.0677133935546,729.7184915161133 a0.36409,0.36409 0 0 0 -0.04964000000000002,-0.027320000000000014 a20.81113,20.81113 0 1 0 -19.53772,36.75173 z" fill="none" stroke="#3f3d56" stroke-miterlimit="10" id="svg_9"></path> <path d="M909.6805733935547,801.1767015161133 a20.80131,20.80131 0 1 0 6.25521,-15.57438 l7.225,15.11843 l-11.50663,-9.11037 A20.61639,20.61639 0 0 0 909.6805733935547,801.1767015161133 z" fill="#57b894" id="svg_10"></path> <path d="M910.9157733935547,798.5661215161133 a20.80131,20.80131 0 1 0 6.25521,-15.57438 l7.225,15.11842 l-11.50663,-9.11037 A20.61655,20.61655 0 0 0 910.9157733935547,798.5661215161133 z" fill="none" stroke="#3f3d56" stroke-miterlimit="10" id="svg_11"></path> </g> <g opacity="0.3" id="svg_12" class="selected"> <path d="M354.73685339355467,720.0678615161132 a20.81252,20.81252 0 1 1 -8.3387,-39.13277 l0.98562,10.67947 l3.7314,-9.80018 a20.73405,20.73405 0 0 1 12.22123,10.10949 a20.40878,20.40878 0 0 1 1.97439,5.40651 A20.80855,20.80855 0 0 1 354.73685339355467,720.0678615161132 z" fill="#ff6584" id="svg_13"></path> <path d="M347.3207933935547,846.5996915161132 c0.4945100000000001,-9.27109 -8.313320000000001,-16.18134 -16.63109,-20.306 s-17.89981,-7.97772 -21.73547,-16.43263 c-5.51252,-12.15118 3.91862,-25.32906 11.121,-36.56135 A125.3002,125.3002 0 0 0 332.9938533935547,746.6688315161133 c1.29809,-3.7514700000000003 2.42859,-7.6410800000000005 2.34816,-11.61 c-0.11584000000000003,-5.71565 -2.71274,-11.052 -5.29035,-16.15471 q-12.88016,-25.49811 -26.95418,-50.36938 " fill="none" stroke="#3f3d56" stroke-miterlimit="10" id="svg_14"></path> <path d="M353.5016133935547,717.4572815161133 a20.81252,20.81252 0 1 1 -8.33869,-39.13278 l0.98561,10.67948 l3.7314,-9.80018 a20.734,20.734 0 0 1 12.22124,10.10949 a20.40891,20.40891 0 0 1 1.97438,5.4065 A20.80855,20.80855 0 0 1 353.5016133935547,717.4572815161133 z" fill="none" stroke="#3f3d56" stroke-miterlimit="10" id="svg_15"></path> <path d="M323.7412833935547,661.8762615161132 A20.788240000000002,20.788240000000002 0 0 0 307.0594533935547,650.9084915161133 l-0.2693500000000001,10.32343 l-4.64476,-10.1448 a20.81,20.81 0 1 0 21.59594,10.78916 z" fill="#ff6584" id="svg_16"></path> <path d="M322.0943433935547,658.3954915161132 a20.78823,20.78823 0 0 0 -16.68183,-10.9678 l-0.2693600000000001,10.32344 l-4.64475,-10.14481 A20.81,20.81 0 1 0 322.0943433935547,658.3954915161132 z" fill="none" stroke="#3f3d56" stroke-miterlimit="10" id="svg_17"></path> <path d="M323.72152339355466,772.9920415161133 a20.81,20.81 0 0 1 -23.42627,-34.07564 l3.5691100000000002,7.796 l0.2698000000000001,-10.44473 a0.3628200000000002,0.3628200000000002 0 0 1 0.04963000000000003,-0.027320000000000014 a20.81113,20.81113 0 1 1 19.53773,36.75172 z" fill="#ff6584" id="svg_18"></path> <path d="M322.2190333935547,769.4429215161133 a20.81,20.81 0 0 1 -23.42627,-34.07565 l3.56912,7.796 l0.26979,-10.44474 a0.36409,0.36409 0 0 1 0.04964000000000002,-0.027320000000000014 a20.81113,20.81113 0 1 1 19.53772,36.75173 z" fill="none" stroke="#3f3d56" stroke-miterlimit="10" id="svg_19"></path> <path d="M350.0188533935547,804.1767015161133 a20.80131,20.80131 0 1 1 -6.25521,-15.57438 l-7.225,15.11843 l11.50663,-9.11037 A20.61639,20.61639 0 0 1 350.0188533935547,804.1767015161133 z" fill="#ff6584" id="svg_20"></path> <path d="M348.7836133935547,801.5661215161133 a20.80131,20.80131 0 1 1 -6.25521,-15.57438 l-7.225,15.11842 l11.50663,-9.11037 A20.61655,20.61655 0 0 1 348.7836133935547,801.5661215161133 z" fill="none" stroke="#3f3d56" stroke-miterlimit="10" id="svg_21"></path> </g> <g opacity="0.3" id="svg_22" class="selected"> <path d="M874.7368533935547,719.0678615161132 a20.81252,20.81252 0 1 1 -8.3387,-39.13277 l0.98562,10.67947 l3.7314,-9.80018 a20.73405,20.73405 0 0 1 12.22123,10.10949 a20.40878,20.40878 0 0 1 1.97439,5.40651 A20.80855,20.80855 0 0 1 874.7368533935547,719.0678615161132 z" fill="#ff6584" id="svg_23"></path> <path d="M867.3207933935547,845.5996915161132 c0.4945100000000001,-9.27109 -8.313320000000001,-16.18134 -16.63109,-20.306 s-17.89981,-7.97772 -21.73547,-16.43263 c-5.51252,-12.15118 3.91862,-25.32906 11.121,-36.56135 A125.3002,125.3002 0 0 0 852.9938533935547,745.6688315161133 c1.29809,-3.7514700000000003 2.42859,-7.6410800000000005 2.34816,-11.61 c-0.11584000000000003,-5.71565 -2.71274,-11.052 -5.29035,-16.15471 q-12.88015,-25.49811 -26.95418,-50.36938 " fill="none" stroke="#3f3d56" stroke-miterlimit="10" id="svg_24"></path> <path d="M873.5016133935546,716.4572815161133 a20.81252,20.81252 0 1 1 -8.33869,-39.13278 l0.98561,10.67948 l3.7314,-9.80018 a20.734,20.734 0 0 1 12.22124,10.10949 a20.40891,20.40891 0 0 1 1.97438,5.4065 A20.80855,20.80855 0 0 1 873.5016133935546,716.4572815161133 z" fill="none" stroke="#3f3d56" stroke-miterlimit="10" id="svg_25"></path> <path d="M843.7412833935547,660.8762615161132 A20.788240000000002,20.788240000000002 0 0 0 827.0594533935547,649.9084915161133 l-0.2693500000000001,10.32343 l-4.64476,-10.1448 a20.81,20.81 0 1 0 21.59594,10.78916 z" fill="#ff6584" id="svg_26"></path> <path d="M842.0943433935547,657.3954915161132 a20.78823,20.78823 0 0 0 -16.68183,-10.9678 l-0.2693600000000001,10.32344 l-4.64475,-10.14481 A20.81,20.81 0 1 0 842.0943433935547,657.3954915161132 z" fill="none" stroke="#3f3d56" stroke-miterlimit="10" id="svg_27"></path> <path d="M843.7215233935547,771.9920415161133 a20.81,20.81 0 0 1 -23.42627,-34.07564 l3.5691100000000002,7.796 l0.2698000000000001,-10.44473 a0.3628200000000002,0.3628200000000002 0 0 1 0.04963000000000003,-0.027320000000000014 a20.81113,20.81113 0 1 1 19.53773,36.75172 z" fill="#ff6584" id="svg_28"></path> <path d="M842.2190333935547,768.4429215161133 a20.81,20.81 0 0 1 -23.42627,-34.07565 l3.56912,7.796 l0.26979,-10.44474 a0.36409,0.36409 0 0 1 0.04964000000000002,-0.027320000000000014 a20.81113,20.81113 0 1 1 19.53772,36.75173 z" fill="none" stroke="#3f3d56" stroke-miterlimit="10" id="svg_29"></path> <path d="M870.0188533935547,803.1767015161133 a20.80131,20.80131 0 1 1 -6.25521,-15.57438 l-7.225,15.11843 l11.50663,-9.11037 A20.61639,20.61639 0 0 1 870.0188533935547,803.1767015161133 z" fill="#ff6584" id="svg_30"></path> <path d="M868.7836133935547,800.5661215161133 a20.80131,20.80131 0 1 1 -6.25521,-15.57438 l-7.225,15.11842 l11.50663,-9.11037 A20.61655,20.61655 0 0 1 868.7836133935547,800.5661215161133 z" fill="none" stroke="#3f3d56" stroke-miterlimit="10" id="svg_31"></path> </g> <g opacity="0.3" id="svg_32" class="selected"> <path d="M134.7368533935547,718.0678615161132 a20.81252,20.81252 0 1 1 -8.3387,-39.13277 l0.98562,10.67947 l3.7314,-9.80018 a20.73405,20.73405 0 0 1 12.22123,10.10949 a20.40878,20.40878 0 0 1 1.97439,5.40651 A20.80855,20.80855 0 0 1 134.7368533935547,718.0678615161132 z" fill="#ff6584" id="svg_33"></path> <path d="M127.32079339355468,844.5996915161132 c0.4945100000000001,-9.27109 -8.313320000000001,-16.18134 -16.63109,-20.306 S92.7898533935547,816.3160015161133 88.95423339355469,807.8610915161133 c-5.51252,-12.15118 3.91862,-25.32906 11.121,-36.56135 A125.3002,125.3002 0 0 0 112.99385339355469,744.6688315161133 c1.29809,-3.7514700000000003 2.42859,-7.6410800000000005 2.34816,-11.61 c-0.11584000000000003,-5.71565 -2.71274,-11.052 -5.29035,-16.15471 Q97.17148339355468,691.4060415161133 83.09745339355469,666.5347715161133 " fill="none" stroke="#3f3d56" stroke-miterlimit="10" id="svg_34"></path> <path d="M133.5016133935547,715.4572815161133 a20.81252,20.81252 0 1 1 -8.33869,-39.13278 l0.98561,10.67948 l3.7314,-9.80018 a20.734,20.734 0 0 1 12.22124,10.10949 a20.40891,20.40891 0 0 1 1.97438,5.4065 A20.80855,20.80855 0 0 1 133.5016133935547,715.4572815161133 z" fill="none" stroke="#3f3d56" stroke-miterlimit="10" id="svg_35"></path> <path d="M103.74128339355468,659.8762615161132 A20.788240000000002,20.788240000000002 0 0 0 87.05945339355469,648.9084915161133 l-0.2693500000000001,10.32343 l-4.64476,-10.1448 a20.81,20.81 0 1 0 21.59594,10.78916 z" fill="#ff6584" id="svg_36"></path> <path d="M102.09434339355468,656.3954915161132 a20.78823,20.78823 0 0 0 -16.68183,-10.9678 l-0.2693600000000001,10.32344 l-4.64475,-10.14481 A20.81,20.81 0 1 0 102.09434339355468,656.3954915161132 z" fill="none" stroke="#3f3d56" stroke-miterlimit="10" id="svg_37"></path> <path d="M103.72152339355469,770.9920415161133 A20.81,20.81 0 0 1 80.29525339355469,736.9164015161133 l3.5691100000000002,7.796 l0.2698000000000001,-10.44473 a0.3628200000000002,0.3628200000000002 0 0 1 0.04963000000000003,-0.027320000000000014 a20.81113,20.81113 0 1 1 19.53773,36.75172 z" fill="#ff6584" id="svg_38"></path> <path d="M102.21903339355468,767.4429215161133 a20.81,20.81 0 0 1 -23.42627,-34.07565 l3.56912,7.796 L82.63167339355469,730.7184915161133 a0.36409,0.36409 0 0 1 0.04964000000000002,-0.027320000000000014 a20.81113,20.81113 0 1 1 19.53772,36.75173 z" fill="none" stroke="#3f3d56" stroke-miterlimit="10" id="svg_39"></path> <path d="M130.0188533935547,802.1767015161133 a20.80131,20.80131 0 1 1 -6.25521,-15.57438 l-7.225,15.11843 l11.50663,-9.11037 A20.61639,20.61639 0 0 1 130.0188533935547,802.1767015161133 z" fill="#ff6584" id="svg_40"></path> <path d="M128.78361339355467,799.5661215161133 a20.80131,20.80131 0 1 1 -6.25521,-15.57438 l-7.225,15.11842 l11.50663,-9.11037 A20.61655,20.61655 0 0 1 128.78361339355467,799.5661215161133 z" fill="none" stroke="#3f3d56" stroke-miterlimit="10" id="svg_41"></path> </g> <g opacity="0.3" id="svg_42" class="selected"> <path d="M129.14600339355468,625.7278615161133 a35.75043,35.75043 0 1 0 14.32368,-67.2198 l-1.693,18.34453 L135.36709339355468,560.0184915161133 a35.61557,35.61557 0 0 0 -20.99286,17.36543 a35.05685,35.05685 0 0 0 -3.39147,9.287 A35.74361,35.74361 0 0 0 129.14600339355468,625.7278615161133 z" fill="#57b894" id="svg_43"></path> <path d="M141.88479339355467,843.0761915161132 c-0.84945,-15.92529 14.28009,-27.795279999999998 28.56782,-34.8803 s30.74716,-13.70362 37.33581,-28.22692 c9.46906,-20.87254 -6.73116,-43.50865 -19.103,-62.80278 a215.23227,215.23227 0 0 1 -22.19068,-45.74488 c-2.22978,-6.444 -4.17168,-13.12536 -4.03352,-19.94287 c0.19900000000000007,-9.818 4.65977,-18.98436 9.08742,-27.74952 q22.12471,-43.799 46.30019,-86.52133 " fill="none" stroke="#3f3d56" stroke-miterlimit="10" id="svg_44"></path> <path d="M131.2677533935547,621.2435615161132 a35.75043,35.75043 0 1 0 14.32369,-67.21979 l-1.693,18.34452 L137.48885339355468,555.5341715161132 a35.61559,35.61559 0 0 0 -20.99286,17.36544 a35.05651,35.05651 0 0 0 -3.39147,9.287 A35.74359,35.74359 0 0 0 131.2677533935547,621.2435615161132 z" fill="none" stroke="#3f3d56" stroke-miterlimit="10" id="svg_45"></path> <path d="M182.3881733935547,525.7700315161132 a35.70865,35.70865 0 0 1 28.655,-18.83978 l0.4626800000000001,17.73294 l7.97847,-17.4261 a35.746,35.746 0 1 1 -37.09613,18.53294 z" fill="#57b894" id="svg_46"></path> <path d="M185.21718339355468,519.7909715161132 a35.70867,35.70867 0 0 1 28.655,-18.83978 l0.4626800000000001,17.73294 l7.97847,-17.4261 a35.746,35.746 0 1 1 -37.09613,18.53294 z" fill="none" stroke="#3f3d56" stroke-miterlimit="10" id="svg_47"></path> <path d="M182.4221133935547,716.6376515161132 a35.74611,35.74611 0 0 0 40.24015,-58.533 l-6.13079,13.39143 l-0.46344,-17.9413 a0.62351,0.62351 0 0 0 -0.08526000000000006,-0.04693000000000002 a35.748,35.748 0 1 0 -33.56066,63.12977 z" fill="#57b894" id="svg_48"></path> <path d="M185.00299339355468,710.5411915161133 a35.74611,35.74611 0 0 0 40.24015,-58.533 l-6.1308,13.39142 l-0.46344,-17.94129 a0.62243,0.62243 0 0 0 -0.08526000000000006,-0.04693000000000002 a35.748,35.748 0 1 0 -33.56065,63.12977 z" fill="none" stroke="#3f3d56" stroke-miterlimit="10" id="svg_49"></path> <path d="M137.2502933935547,770.2046815161133 a35.73117,35.73117 0 1 0 10.7448,-26.75268 L160.40575339355468,769.4214915161133 l-19.76535,-15.64921 A35.41352,35.41352 0 0 0 137.2502933935547,770.2046815161133 z" fill="#57b894" id="svg_50"></path> <path d="M139.3720533935547,765.7203915161133 a35.73116,35.73116 0 1 0 10.7448,-26.75269 l12.41066,25.96947 L142.76215339355468,749.2879615161132 A35.41353,35.41353 0 0 0 139.3720533935547,765.7203915161133 z" fill="none" stroke="#3f3d56" stroke-miterlimit="10" id="svg_51"></path> </g> <g opacity="0.3" id="svg_52" class="selected"> <path d="M985.0696233935547,845.1897215161133 c-1.09964,-20.61569 18.48592,-35.98168 36.98174,-45.1534 s39.803,-17.73968 48.33212,-36.54044 c12.25792,-27.02 -8.71366,-56.323 -24.72931,-81.29973 A278.6237,278.6237 0 0 1 1016.9278533935546,622.9782915161132 c-2.8865,-8.34195 -5.40034,-16.9911 -5.22149,-25.81653 c0.2575800000000001,-12.7096 6.03219,-24.57572 11.76389,-35.92244 q28.641000000000002,-56.69892 59.93672,-112.004 " fill="none" stroke="#3f3d56" stroke-miterlimit="10" id="svg_53"></path> <path d="M1107.4850733935548,407.1982615161133 l-20.13538,5.75293 l1.39819,-9.32147 c-1.7727,-0.11408000000000003 -3.57177,-0.17853000000000005 -5.39819,-0.17853000000000005 c-26.23352,0 -47.5,12.08832 -47.5,27 s21.26648,27 47.5,27 s47.5,-12.08832 47.5,-27 C1130.8496933935546,420.5494015161133 1121.4668533935546,411.8974915161133 1107.4850733935548,407.1982615161133 z" fill="#ff6584" id="svg_54"></path> <path d="M1107.4850733935548,404.1982615161133 l-20.13538,5.75293 l1.39819,-9.32147 c-1.7727,-0.11408000000000003 -3.57177,-0.17853000000000005 -5.39819,-0.17853000000000005 c-26.23352,0 -47.5,12.08832 -47.5,27 s21.26648,27 47.5,27 s47.5,-12.08832 47.5,-27 C1130.8496933935546,417.5494015161133 1121.4668533935546,408.8974915161133 1107.4850733935548,404.1982615161133 z" fill="none" stroke="#3f3d56" stroke-miterlimit="10" id="svg_55"></path> <path d="M1048.4850733935548,750.1982615161132 l-20.13538,5.75293 l1.39819,-9.32147 c-1.7727,-0.11408000000000003 -3.57177,-0.17853000000000005 -5.39819,-0.17853000000000005 c-26.23352,0 -47.5,12.08832 -47.5,27 s21.26648,27 47.5,27 s47.5,-12.08832 47.5,-27 C1071.8496933935546,763.5494015161133 1062.4668533935546,754.8974915161133 1048.4850733935548,750.1982615161132 z" fill="#ff6584" id="svg_56"></path> <path d="M1048.4850733935548,747.1982615161132 l-20.13538,5.75293 l1.39819,-9.32147 c-1.7727,-0.11408000000000003 -3.57177,-0.17853000000000005 -5.39819,-0.17853000000000005 c-26.23352,0 -47.5,12.08832 -47.5,27 s21.26648,27 47.5,27 s47.5,-12.08832 47.5,-27 C1071.8496933935546,760.5494015161133 1062.4668533935546,751.8974915161133 1048.4850733935548,747.1982615161132 z" fill="none" stroke="#3f3d56" stroke-miterlimit="10" id="svg_57"></path> <path d="M1118.4850733935548,678.1982615161132 l-20.13538,5.75293 l1.39819,-9.32147 c-1.7727,-0.11408000000000003 -3.57177,-0.17853000000000005 -5.39819,-0.17853000000000005 c-26.23352,0 -47.5,12.08832 -47.5,27 s21.26648,27 47.5,27 s47.5,-12.08832 47.5,-27 C1141.8496933935546,691.5494015161133 1132.4668533935546,682.8974915161133 1118.4850733935548,678.1982615161132 z" fill="#ff6584" id="svg_58"></path> <path d="M1118.4850733935548,675.1982615161132 l-20.13538,5.75293 l1.39819,-9.32147 c-1.7727,-0.11408000000000003 -3.57177,-0.17853000000000005 -5.39819,-0.17853000000000005 c-26.23352,0 -47.5,12.08832 -47.5,27 s21.26648,27 47.5,27 s47.5,-12.08832 47.5,-27 C1141.8496933935546,688.5494015161133 1132.4668533935546,679.8974915161133 1118.4850733935548,675.1982615161132 z" fill="none" stroke="#3f3d56" stroke-miterlimit="10" id="svg_59"></path> <path d="M1035.7145333935546,494.4686615161133 l-20.55989,-3.97753 l5.46353,-7.68079 c-1.5293700000000001,-0.9036200000000002 -3.1047000000000002,-1.77491 -4.73357,-2.60109 c-23.39613,-11.86672 -47.83058,-10.70574 -54.57587,2.5931100000000002 s6.75288,33.69958 30.149,45.56629 s47.83059,10.70574 54.57588,-2.5931 C1050.5126833935547,516.9447215161133 1046.0583933935548,504.9842815161133 1035.7145333935546,494.4686615161133 z" fill="#ff6584" id="svg_60"></path> <path d="M1037.0715833935546,491.7931415161133 l-20.55989,-3.97753 l5.46353,-7.6808000000000005 c-1.5293700000000001,-0.90361 -3.1047000000000002,-1.77491 -4.73357,-2.60108 c-23.39613,-11.86672 -47.83059,-10.70574 -54.57587,2.5931 s6.75288,33.69958 30.149,45.5663 s47.83058,10.70574 54.57587,-2.5931100000000002 C1051.8697233935548,514.2692015161133 1047.4154433935546,502.3087615161133 1037.0715833935546,491.7931415161133 z" fill="none" stroke="#3f3d56" stroke-miterlimit="10" id="svg_61"></path> <path d="M1080.7145333935546,599.4686615161132 l-20.55989,-3.97753 l5.46353,-7.68079 c-1.5293700000000001,-0.9036200000000002 -3.1047000000000002,-1.77491 -4.73357,-2.60109 c-23.39613,-11.86672 -47.83058,-10.70574 -54.57587,2.5931100000000002 s6.75288,33.69958 30.149,45.56629 s47.83059,10.70574 54.57588,-2.5931 C1095.5126833935547,621.9447215161133 1091.0583933935548,609.9842815161132 1080.7145333935546,599.4686615161132 z" fill="#ff6584" id="svg_62"></path> <path d="M1082.0715833935546,596.7931415161133 l-20.55989,-3.97753 l5.46353,-7.6808000000000005 c-1.5293700000000001,-0.90361 -3.1047000000000002,-1.77491 -4.73357,-2.60108 c-23.39613,-11.86672 -47.83059,-10.70574 -54.57587,2.5931 s6.75288,33.69958 30.149,45.5663 s47.83058,10.70574 54.57587,-2.5931100000000002 C1096.8697233935548,619.2692015161133 1092.4154433935546,607.3087615161132 1082.0715833935546,596.7931415161133 z" fill="none" stroke="#3f3d56" stroke-miterlimit="10" id="svg_63"></path> </g> <line x1="71.34969329833984" y1="844.9511642456055" x2="1123.349739074707" y2="844.9511642456055" fill="none" stroke="#3f3d56" stroke-miterlimit="10" id="svg_64" class="selected"></line> <path d="M597.5276633935547,67.41729151611328 c-105.4864,0 -191,56.81583 -191,126.9017 c0,31.29389 17.05887,59.9363 45.322,82.06248 V368.4850915161133 l60.5461,-60.54614 a271.67266,271.67266 0 0 0 85.13187,13.28173 c105.48639,0 191,-56.81583 191,-126.90169 S703.0140533935547,67.41729151611328 597.5276633935547,67.41729151611328 z" fill="none" stroke="#3f3d56" stroke-miterlimit="10" id="svg_65" class="selected"></path> <path d="M514.5377833935547,395.7817215161133 s-3.84207,-51.7406 -2.03317,-61.2037 s3.508,-36.40025 -6.43762,-27.54543 s-6.41234,28.945 -6.41234,28.945 s-9.43783,54.68156 -0.7088000000000002,62.10017 S514.5377833935547,395.7817215161133 514.5377833935547,395.7817215161133 z" fill="#a0616a" id="svg_66" class="selected"></path> <path d="M521.7007433935547,446.9486215161133 s-29.60358,-26.4032 -28.00339,-48.80591 c0,0 17.60213,-13.60164 21.60261,-6.40077 s33.07874,35.293 28.14077,44.84978 S521.7007433935547,446.9486215161133 521.7007433935547,446.9486215161133 z" fill="#3c71fb" id="svg_67" class="selected"></path> <path d="M626.5134233935547,399.7429115161133 s17.60213,-48.80591 18.40223,-58.40707 s6.40078,-36.00436 13.60165,-24.803 s-1.6002,29.60359 -1.6002,29.60359 s-5.60067,55.20668 -16.00193,60.00726 S626.5134233935547,399.7429115161133 626.5134233935547,399.7429115161133 z" fill="#a0616a" id="svg_68" class="selected"></path> <path d="M578.5076133935547,644.5724915161132 h47.20572 l2.40029,24.0029 l-11.20136,2.40029 s-26.40319,-8.001 -41.605,-5.6006800000000005 S578.5076133935547,644.5724915161132 578.5076133935547,644.5724915161132 z" fill="#a0616a" id="svg_69" class="selected"></path> <path d="M609.7113933935547,641.3721515161133 s22.40271,-15.20184 26.4032,-2.40029 s18.40222,59.20716 13.60164,64.00774 s-10.40126,-4.00048 -10.40126,-4.00048 s-9.60116,-20.00242 -16.802,-20.80252 s-11.20136,-7.20087 -11.20136,-7.20087 S632.1141033935547,654.9737915161132 609.7113933935547,641.3721515161133 z" fill="#2f2e41" id="svg_70" class="selected"></path> <path d="M566.5061633935547,765.3871615161133 s8.80107,36.00435 7.20087,41.605 s25.6031,2.40029 25.6031,2.40029 l1.6002,-10.40126 s-16.00194,-25.60309 -16.00194,-36.80445 S566.5061633935547,765.3871615161133 566.5061633935547,765.3871615161133 z" fill="#a0616a" id="svg_71" class="selected"></path> <path d="M599.3101333935547,791.7903515161133 s21.60262,16.00194 10.40126,24.00291 s-52.80639,28.80348 -52.80639,28.80348 s-15.20184,2.40029 -4.00048,-11.20135 s14.40174,-16.00194 15.20184,-23.20281 a35.12235,35.12235 0 0 1 4.9337800000000005,-13.50807 S584.1082933935547,818.9936515161132 599.3101333935547,791.7903515161133 z" fill="#2f2e41" id="svg_72" class="selected"></path> <path d="M533.7021933935547,599.7671115161132 s-8.80106,83.21007 4.80058,109.61327 s29.60359,62.40755 28.80349,64.00775 s23.20281,-2.40029 23.20281,-9.60117 s-26.4032,-79.20958 -26.4032,-79.20958 s11.20136,-93.61133 20.00242,-100.01211 S533.7021933935547,599.7671115161132 533.7021933935547,599.7671115161132 z" fill="#2f2e41" id="svg_73" class="selected"></path> <path d="M533.7021933935547,599.7671115161132 s-8.80106,83.21007 4.80058,109.61327 s29.60359,62.40755 28.80349,64.00775 s23.20281,-2.40029 23.20281,-9.60117 s-26.4032,-79.20958 -26.4032,-79.20958 s11.20136,-93.61133 20.00242,-100.01211 S533.7021933935547,599.7671115161132 533.7021933935547,599.7671115161132 z" opacity="0.1" id="svg_74" class="selected"></path> <path d="M551.7858533935547,364.9386915161133 c-5.7190900000000005,1.0354700000000001 -11.38512,4.17742 -14.22925,9.54354 c-2.653,5.00556 -2.82174,11.69636 -7.04249,15.29089 c-2.51961,2.14579 -5.94042,2.6420000000000003 -8.75359,4.32764 a13.48165,13.48165 0 0 0 -6.20118,12.00756 c0.22526000000000007,4.41433 2.55341,8.52613 2.504,12.94662 c-0.06423000000000004,5.747 -4.03814,10.492 -7.77574,14.65147 l12.39544,2.30022 a12.33926,12.33926 0 0 0 5.7344100000000005,0.15205000000000005 c2.141,-0.6338100000000002 3.88,-2.3967 6.04427,-2.93423 c3.10353,-0.7708 6.17451,1.117 8.94366,2.792 c7.88245,4.76774 16.33437,8.36624 24.7557,11.94919 c2.4775,1.05409 5.2865,2.10927 7.73121,0.97222 c1.97439,-0.91831 3.20232,-3.06489 5.05944,-4.22647 c3.32564,-2.08013 7.50159,-0.51438 11.23869,0.51252 a37.15163,37.15163 0 0 0 25.38312,-2.16146 c-1.7120700000000002,-1.99985 -3.956,-3.39847 -5.80095,-5.26048 s-3.33756,-4.49874 -2.85015,-7.15065 c0.4970600000000001,-2.70439 2.82217,-4.50972 4.40694,-6.69233 a15.724,15.724 0 0 0 2.39236,-11.92405 a21.75365,21.75365 0 0 0 -5.70746,-10.80127 a57.05128,57.05128 0 0 1 -4.66873,-4.923 c-2.9161,-3.93793 -3.638,-9.15131 -4.57086,-14.06082 s-2.4057399999999998,-10.13442 -6.19237,-13.12385 c-6.0326,-4.76258 -15.829,-3.13919 -22.88141,-3.61191 C564.9770633935547,365.0633515161133 558.4941833935546,364.9386915161133 551.7858533935547,364.9386915161133 z" fill="#2f2e41" id="svg_75" class="selected"></path> <path d="M512.0995833935547,542.9602415161132 l15.20184,37.60455 s-69.60843,76.0092 -30.40368,86.41046 s52.80639,-8.001 77.60939,6.40077 c0,0 12.00145,-18.40223 10.40126,-29.60358 c0,0 -34.40416,-6.40078 -52.80639,-5.6006800000000005 c0,0 49.606,-43.20523 54.40658,-44.80542 s20.80252,-27.20329 -4.00048,-48.00581 S564.1058533935546,513.3566615161133 564.1058533935546,513.3566615161133 z" fill="#2f2e41" id="svg_76" class="selected"></path> <path d="M548.1039333935547,412.5444915161133 s2.4003,24.803 -8.001,28.00339 s40.80493,2.40029 40.80493,2.40029 s-12.00145,-7.20087 -6.40077,-22.40271 S548.1039333935547,412.5444915161133 548.1039333935547,412.5444915161133 z" fill="#a0616a" id="svg_77" class="selected"></path> <path d="M548.1039333935547,412.5444915161133 s2.4003,24.803 -8.001,28.00339 s40.80493,2.40029 40.80493,2.40029 s-12.00145,-7.20087 -6.40077,-22.40271 S548.1039333935547,412.5444915161133 548.1039333935547,412.5444915161133 z" opacity="0.1" id="svg_78" class="selected"></path> <path d="M602.5105233935546,455.7496815161133 s-4.80058,-24.803 -14.40174,-23.2028 s-28.80349,3.20038 -31.20378,4.80058 s-15.20184,4.87942 -15.20184,4.87942 s4.80058,-5.67952 0,-6.47962 s-20.00242,3.20039 -21.60261,6.40078 s-8.001,9.60116 -8.001,20.80251 s-4.80058,30.40368 -3.20039,38.40465 s-0.8001,26.4032 -5.6006800000000005,36.80446 s-0.8000900000000002,20.80251 7.20087,10.40126 s4.00049,0 10.40126,0.8000900000000002 S556.1049033935547,520.5574915161133 564.1058533935546,527.7584015161133 s16.00194,12.00145 17.60213,8.001 s-6.40077,-11.20136 -6.40077,-14.40175 s-12.80155,10.40126 0.8000900000000002,-17.60213 S576.9074233935547,467.7511415161133 602.5105233935546,455.7496815161133 z" fill="#3c71fb" id="svg_79" class="selected"></path> <path d="M596.1097433935547,454.1494915161133 l6.40078,1.60019 s23.20281,-16.802 29.60358,-28.80348 s11.20136,-21.60262 11.20136,-21.60262 s-10.40126,-12.80155 -16.802,-8.001 s-35.20426,37.60456 -35.20426,37.60456 z" fill="#3c71fb" id="svg_80" class="selected"></path> <circle cx="566.5061721801758" cy="404.5434799194336" r="24.80299949645996" fill="#a0616a" id="svg_81" class="selected"></circle> <path d="M544.5646233935547,397.3584015161133 a21.7837,21.7837 0 0 1 15.14908,-4.98222 c9.50754,0.58506 17.87685,7.35994 27.4,7.57163 a9.81952,9.81952 0 0 1 0.81893,-6.07049 c0.7385,-1.51341 1.904,-2.97985 1.74722,-4.6565 a5.67954,5.67954 0 0 0 -2.05426,-3.36417 c-5.5046800000000005,-5.21967 -13.11558,-7.90984 -20.69427,-8.24123 c-5.08113,-0.22219000000000005 -14.77917,-0.10179000000000003 -18.71994,3.74566 C544.8398533935547,384.65279151611327 545.2318533935547,393.0914915161133 544.5646233935547,397.3584015161133 z" fill="#2f2e41" id="svg_82" class="selected"></path> <circle cx="597.5276565551758" cy="217.9511947631836" r="52" fill="#3c71fb" id="svg_83" class="selected"></circle> <ellipse cx="584.821907043457" cy="198.35819244384766" rx="4.98730993270874" ry="6.531000137329102" fill="#444053" id="svg_84" class="selected"></ellipse> <ellipse cx="610.5896682739258" cy="198.35819244384766" rx="4.98730993270874" ry="6.531000137329102" fill="#444053" id="svg_85" class="selected"></ellipse> <path d="M628.6983333935547,218.9011515161133 c0,9.37813 -15.66245,25.174 -31.46754,25.174 s-30.87381,-16.15215 -30.87381,-25.53027 s14.74217,-0.80153 30.54726,-0.80153 S628.6983333935547,209.5230315161133 628.6983333935547,218.9011515161133 z" fill="#3f3d56" id="svg_86" class="selected"></path> <path d="M571.3378533935547,220.5042215161133 s28.40984,6.32319 52.27768,0.17811000000000005 c0,0 2.9208600000000002,0 0.92546,3.3770000000000002 a5.37878,5.37878 0 0 1 -2.18872,2.04678 c-4.60034,2.35056 -21.62977,9.29771 -48.86055,0.4373400000000001 a5.35606,5.35606 0 0 1 -3.53441,-3.62139 C569.6366133935547,221.76262151611328 569.7748533935547,220.6644915161133 571.3378533935547,220.5042215161133 z" fill="#f6f8fb" id="svg_87" class="selected"></path> </g> </svg> 