<?xml version="1.0" encoding="UTF-8"?> <svg xmlns="http://www.w3.org/2000/svg" width="120" height="120" viewBox="0 0 120 120" fill="none"> <path d="M60.7162 2.16794L70.2182 11.9195C71.0159 12.7382 72.2095 13.0324 73.2964 12.6782L86.2417 8.45942C86.7765 8.28514 87.3497 8.586 87.5101 9.1251L91.3918 22.1755C91.7177 23.2711 92.6379 24.0863 93.7649 24.2778L107.188 26.5582C107.742 26.6524 108.11 27.1852 108.002 27.7371L105.374 41.0966C105.153 42.2182 105.589 43.3676 106.498 44.0609L117.324 52.3181C117.771 52.6592 117.849 53.3019 117.497 53.7401L108.962 64.3482C108.245 65.2388 108.097 66.4592 108.579 67.4954L114.328 79.8379C114.565 80.3477 114.336 80.953 113.82 81.1772L101.333 86.6037C100.284 87.0593 99.5859 88.0711 99.5317 89.2129L98.8858 102.813C98.8592 103.375 98.3746 103.804 97.8137 103.763L84.2348 102.765C83.0948 102.681 82.0063 103.252 81.4277 104.238L74.5355 115.98C74.2508 116.465 73.6222 116.62 73.1447 116.323L61.5852 109.129C60.6147 108.525 59.3853 108.525 58.4148 109.129L46.8553 116.323C46.3778 116.62 45.7492 116.465 45.4645 115.98L38.5724 104.238C37.9937 103.252 36.9052 102.681 35.7652 102.765L22.1863 103.763C21.6254 103.804 21.1408 103.375 21.1142 102.813L20.4683 89.2129C20.4141 88.0711 19.7158 87.0593 18.6674 86.6037L6.18006 81.1772C5.66422 80.953 5.43465 80.3477 5.67211 79.8379L11.4206 67.4954C11.9032 66.4592 11.755 65.2388 11.0384 64.3482L2.50327 53.7401C2.1507 53.3019 2.22873 52.6592 2.67593 52.3181L13.5018 44.0609C14.4106 43.3676 14.8466 42.2182 14.626 41.0966L11.9983 27.7371C11.8897 27.1852 12.2575 26.6524 12.812 26.5582L26.2351 24.2778C27.3621 24.0863 28.2823 23.2711 28.6082 22.1755L32.4899 9.1251C32.6503 8.586 33.2235 8.28514 33.7583 8.45942L46.7036 12.6782C47.7904 13.0324 48.9841 12.7382 49.7818 11.9195L59.2838 2.16794C59.6763 1.76512 60.3237 1.76512 60.7162 2.16794Z" fill="#FF0023" stroke="#201E1E" stroke-width="2"></path> <path d="M91.54 60.0995L91.2772 62.8173C91.2461 63.1793 91.2687 63.5346 91.3448 63.8834C91.4206 64.2361 91.5489 64.5527 91.7298 64.8331C91.9068 65.1132 92.1394 65.3456 92.4277 65.5305C92.7159 65.7153 93.0585 65.825 93.4555 65.8594C93.7082 65.8839 93.9472 65.8677 94.1724 65.811C94.3973 65.7582 94.6038 65.6722 94.7919 65.553C94.9638 65.4401 95.1253 65.2909 95.2767 65.1054C95.4281 64.9199 95.5394 64.7227 95.6106 64.5137L95.6281 64.5154C95.6976 64.7301 95.7759 64.9143 95.8631 65.068C95.9499 65.2255 96.0614 65.3716 96.1975 65.5065C96.3301 65.637 96.4845 65.7442 96.6609 65.8279C96.8368 65.9156 97.0355 65.9721 97.2567 65.9974C97.6529 66.0397 98.0005 65.9967 98.2993 65.8687C98.5982 65.7406 98.8516 65.5551 99.0595 65.3123C99.2675 65.0695 99.4304 64.785 99.5482 64.4589C99.67 64.1331 99.7497 63.7955 99.7875 63.4459L100.032 60.9206L91.54 60.0995ZM95.4068 61.5683L95.2405 63.2888C95.2105 63.5175 95.1509 63.7276 95.0618 63.9191C94.9726 64.1106 94.8567 64.274 94.7141 64.4094C94.5677 64.5443 94.3972 64.6436 94.2026 64.7072C94.0077 64.7747 93.7899 64.7949 93.5493 64.7677C93.3121 64.7447 93.1047 64.6776 92.9271 64.5662C92.7491 64.4588 92.6035 64.3211 92.4902 64.1531C92.3769 63.9852 92.2931 63.7966 92.2388 63.5872C92.1884 63.3783 92.1721 63.1609 92.19 62.935L92.3508 61.2728L95.4068 61.5683ZM96.305 61.6552L99.0053 61.9163L98.8626 63.3918C98.8384 63.6014 98.7915 63.8029 98.7217 63.9963C98.6516 64.1936 98.5566 64.3649 98.4366 64.5103C98.313 64.6514 98.1633 64.7586 97.9875 64.8319C97.8113 64.909 97.6046 64.9361 97.3674 64.9132C97.1458 64.8918 96.9559 64.8263 96.7977 64.7168C96.6396 64.6073 96.5115 64.4713 96.4134 64.3088C96.3114 64.1459 96.2387 63.9642 96.1953 63.7638C96.1558 63.5637 96.1438 63.3624 96.1595 63.1599L96.305 61.6552Z" fill="#FCFCFC"></path> <path d="M89.9539 69.0593C89.7723 69.6492 89.7375 70.18 89.8497 70.6519C89.9645 71.1287 90.1439 71.515 90.388 71.8109L91.0756 71.3298C90.8878 71.0636 90.7635 70.7637 90.7027 70.4303C90.6419 70.0968 90.6684 69.7453 90.7822 69.3757C90.8684 69.0957 90.9995 68.8561 91.1753 68.6568C91.3511 68.4575 91.5557 68.3039 91.7892 68.196C92.0104 68.0883 92.2473 68.0223 92.5001 67.998C92.7517 67.9773 93.0289 67.9994 93.3319 68.0641L93.3711 68.0761L92.0382 72.4048L92.503 72.548C92.9248 72.6779 93.3335 72.7444 93.729 72.7477C94.1233 72.7547 94.4882 72.6913 94.8236 72.5575C95.1554 72.4226 95.4465 72.2139 95.697 71.9313C95.9501 71.6537 96.1439 71.2964 96.2784 70.8597C96.3853 70.5125 96.4189 70.1509 96.3794 69.7749C96.3387 69.4027 96.2255 69.047 96.0397 68.7078C95.8514 68.3637 95.5873 68.0535 95.2473 67.7771C94.911 67.5019 94.4984 67.289 94.0093 67.1384L93.7741 67.066C93.3523 66.9361 92.9403 66.8869 92.5382 66.9184C92.1361 66.9499 91.7654 67.0524 91.4259 67.2258C91.0864 67.3992 90.7892 67.6408 90.5344 67.9506C90.2784 68.2641 90.0849 68.6337 89.9539 69.0593ZM95.4272 70.5976C95.3456 70.8626 95.2269 71.0754 95.0712 71.2359C94.9144 71.4001 94.738 71.5216 94.5421 71.6002C94.3462 71.6789 94.1291 71.7203 93.8907 71.7246C93.6561 71.73 93.4454 71.704 93.2588 71.6465L93.2084 71.631L94.212 68.3718C94.4793 68.4991 94.7039 68.6459 94.8856 68.8122C95.07 68.9834 95.2138 69.1667 95.3172 69.362C95.4168 69.5562 95.4752 69.7581 95.4924 69.9677C95.5133 70.1786 95.4915 70.3885 95.4272 70.5976Z" fill="#FCFCFC"></path> <path d="M88.4547 76.931C88.3656 76.8823 88.291 76.8192 88.2309 76.7419C88.1708 76.6645 88.126 76.5754 88.0965 76.4747C88.0483 76.3104 88.0449 76.1171 88.0863 75.8948C88.1311 75.6745 88.2229 75.4375 88.3616 75.1839C88.4497 75.0228 88.5558 74.8694 88.6801 74.7236C88.8043 74.5778 88.9441 74.4606 89.0994 74.3719C89.2566 74.2798 89.4274 74.224 89.6117 74.2046C89.794 74.1885 89.9867 74.2271 90.1895 74.3202L90.7096 73.3691C90.4731 73.2398 90.2161 73.1683 89.9387 73.1546C89.6594 73.1443 89.3812 73.197 89.1043 73.3127C88.8258 73.4231 88.5545 73.5976 88.2905 73.8361C88.03 74.0765 87.7966 74.3852 87.5904 74.7622C87.4105 75.0912 87.2841 75.4161 87.2111 75.7368C87.1381 76.0575 87.1193 76.3566 87.1545 76.6341C87.1898 76.9116 87.2785 77.1605 87.4207 77.3807C87.5611 77.6044 87.7547 77.7837 88.0014 77.9186C88.2311 78.0442 88.4604 78.1051 88.6896 78.1013C88.9169 78.1009 89.1479 78.0447 89.3828 77.9327C89.6142 77.8189 89.8502 77.6519 90.0908 77.4317C90.3349 77.2134 90.5866 76.9526 90.846 76.6492C91.0398 76.4169 91.211 76.23 91.3595 76.0886C91.5062 75.9507 91.641 75.8507 91.7639 75.7888C91.8887 75.7235 92.0051 75.6937 92.1133 75.6994C92.2215 75.7051 92.3304 75.738 92.4401 75.798C92.5463 75.8561 92.6351 75.938 92.7064 76.0437C92.7776 76.1495 92.8229 76.2744 92.842 76.4185C92.8631 76.5591 92.8547 76.717 92.8168 76.8921C92.777 77.0707 92.7018 77.2611 92.5912 77.4633C92.4844 77.6587 92.3614 77.8185 92.2222 77.9427C92.0812 78.0704 91.9361 78.1647 91.787 78.2257C91.6379 78.2866 91.4883 78.3161 91.338 78.314C91.1912 78.3139 91.0578 78.281 90.9378 78.2154L90.4178 79.1665C90.6611 79.2996 90.9163 79.3701 91.1835 79.3782C91.4522 79.3916 91.7179 79.3454 91.9805 79.2397C92.2431 79.134 92.4939 78.9684 92.733 78.7429C92.972 78.5175 93.1852 78.2334 93.3726 77.8907C93.5469 77.5719 93.6643 77.2555 93.7248 76.9413C93.7835 76.6305 93.7916 76.3389 93.7491 76.0664C93.7067 75.7938 93.6152 75.5501 93.4745 75.3352C93.3372 75.1221 93.1555 74.9537 92.9293 74.83C92.6997 74.7044 92.4693 74.6453 92.2383 74.6525C92.0107 74.6616 91.782 74.7258 91.5521 74.8449C91.3207 74.9588 91.0875 75.1207 90.8525 75.3305C90.6156 75.5438 90.3775 75.792 90.1381 76.0752C89.9443 76.3075 89.767 76.4933 89.6063 76.6325C89.449 76.7735 89.3036 76.8766 89.1701 76.9416C89.0366 77.0066 88.9114 77.0361 88.7945 77.0301C88.6811 77.0259 88.5678 76.9929 88.4547 76.931Z" fill="#FCFCFC"></path> <path d="M90.3292 84.9567L91.0297 84.1219L89.8538 83.1351L90.9234 81.8604L90.2816 81.3218L89.2119 82.5965L86.5727 80.3818C86.2735 80.1307 85.985 79.9549 85.7072 79.8545C85.43 79.7595 85.1678 79.7256 84.9206 79.7528C84.6704 79.7774 84.4361 79.8561 84.2176 79.9889C83.9996 80.1272 83.8001 80.3041 83.6194 80.5195C83.5114 80.6482 83.4094 80.7819 83.3134 80.9206C83.2149 81.0623 83.1286 81.2016 83.0546 81.3383C82.9777 81.4726 82.9127 81.6017 82.8598 81.7255C82.8098 81.8519 82.7769 81.9671 82.7611 82.0711L83.447 82.4478C83.4777 82.3869 83.518 82.3085 83.5678 82.2126C83.6181 82.1223 83.6735 82.0259 83.7338 81.9236C83.7967 81.8183 83.8624 81.7127 83.9307 81.6069C84.0021 81.5036 84.0755 81.4071 84.1508 81.3173C84.2537 81.1946 84.3666 81.0905 84.4895 81.0049C84.6098 80.9223 84.7425 80.8705 84.8876 80.8495C85.0297 80.8259 85.1822 80.8417 85.3451 80.8968C85.5079 80.9519 85.6836 81.0585 85.8721 81.2167L88.5114 83.4313L86.9596 85.2806L87.6014 85.8192L89.1532 83.9699L90.3292 84.9567Z" fill="#FCFCFC"></path> <path d="M73.674 92.5268L74.1184 93.392C74.2611 93.6612 74.4264 93.9232 74.6143 94.178C74.7988 94.4345 75.0023 94.6682 75.2247 94.8789C75.4506 95.0878 75.6919 95.2669 75.9486 95.4161C76.2036 95.5706 76.4712 95.6812 76.7514 95.7481C77.0317 95.8149 77.3227 95.8301 77.6246 95.7936C77.9282 95.7606 78.2364 95.6638 78.5491 95.5031C78.8618 95.3425 79.12 95.1484 79.3237 94.9208C79.5257 94.6985 79.6811 94.454 79.79 94.1872C79.8971 93.917 79.9639 93.6324 79.9904 93.3334C80.0151 93.0396 80.0067 92.741 79.9649 92.4374C79.9267 92.1321 79.8587 91.8289 79.7611 91.5277C79.6618 91.2318 79.5443 90.9474 79.4085 90.6746L78.9641 89.8094C78.8214 89.5402 78.657 89.2799 78.4708 89.0286C78.2847 88.7773 78.0786 88.5472 77.8528 88.3383C77.6303 88.1276 77.3899 87.9459 77.1314 87.7932C76.8747 87.644 76.6063 87.536 76.326 87.4691C76.0458 87.4023 75.7556 87.3845 75.4554 87.4157C75.1536 87.4522 74.8463 87.5507 74.5336 87.7114C74.2208 87.872 73.9635 88.0635 73.7615 88.2858C73.5578 88.5134 73.4015 88.7605 73.2926 89.0273C73.1837 89.294 73.1169 89.5742 73.0921 89.868C73.0639 90.1636 73.0706 90.4631 73.1124 90.7666C73.1541 91.0702 73.2246 91.3699 73.3239 91.6658C73.4215 91.967 73.5382 92.254 73.674 92.5268ZM75.0775 92.9125L74.6278 92.0369C74.5384 91.8544 74.4533 91.6588 74.3724 91.45C74.2881 91.243 74.2211 91.0315 74.1716 90.8154C74.1238 90.594 74.096 90.3733 74.0884 90.1533C74.0791 89.9385 74.1013 89.7339 74.1551 89.5394C74.2106 89.3396 74.3047 89.1551 74.4374 88.986C74.5666 88.8186 74.7441 88.6769 74.97 88.5609C75.1958 88.4449 75.4144 88.3831 75.6257 88.3756C75.837 88.3681 76.04 88.3999 76.2347 88.4712C76.4276 88.539 76.6113 88.64 76.7857 88.7744C76.9601 88.9088 77.1234 89.0599 77.2754 89.2277C77.4257 89.392 77.5639 89.567 77.6899 89.7525C77.8125 89.9399 77.9211 90.1213 78.0156 90.2967L78.4653 91.1723C78.5529 91.3513 78.6362 91.5434 78.7153 91.7487C78.7927 91.9593 78.8553 92.1752 78.9032 92.3966C78.9527 92.6127 78.9804 92.829 78.9862 93.0456C78.9938 93.2656 78.9699 93.4755 78.9144 93.6753C78.8572 93.8716 78.7639 94.0534 78.6347 94.2208C78.5055 94.3881 78.3297 94.5289 78.1073 94.6432C77.8815 94.7592 77.6629 94.821 77.4516 94.8285C77.2421 94.8395 77.0409 94.8111 76.8479 94.7433C76.6533 94.6721 76.4687 94.5693 76.2943 94.4349C76.1217 94.304 75.9602 94.1564 75.8099 93.992C75.6613 93.8224 75.5257 93.644 75.4031 93.4566C75.2823 93.2728 75.1738 93.0914 75.0775 92.9125Z" fill="#FCFCFC"></path> <path d="M69.7136 89.8983L68.6639 90.1913L70.1432 95.4907L67.7899 96.1476L68.0151 96.9547L70.3685 96.2977L70.4883 96.7266C70.5597 96.9825 70.5902 97.2153 70.5798 97.425C70.5656 97.6358 70.5114 97.8192 70.4171 97.9753C70.3292 98.1256 70.2029 98.2541 70.0381 98.361C69.8705 98.4726 69.6682 98.5616 69.4312 98.6277C69.1979 98.6928 68.9739 98.7331 68.7592 98.7484C68.5418 98.7685 68.3486 98.7738 68.1796 98.7642L68.2965 99.6623C68.4017 99.6614 68.5039 99.6571 68.6032 99.6497C68.7036 99.646 68.8034 99.6405 68.9027 99.633C69.053 99.6194 69.2037 99.5997 69.3546 99.5738C69.5066 99.5516 69.6578 99.5196 69.8083 99.4775C70.1695 99.3767 70.4827 99.2345 70.7478 99.051C71.0129 98.8675 71.2211 98.6472 71.3723 98.39C71.5274 98.1318 71.6217 97.8378 71.6554 97.508C71.6863 97.183 71.6472 96.8249 71.538 96.4336L71.4182 96.0047L73.1 95.5352L72.8747 94.7282L71.1929 95.1977L69.7136 89.8983Z" fill="#FCFCFC"></path> <path d="M63.569 91.2229L62.4821 91.3027L62.885 96.7898L60.4482 96.9688L60.5096 97.8044L62.9464 97.6255L62.979 98.0696C62.9984 98.3345 62.9823 98.5687 62.9307 98.7723C62.8752 98.9761 62.7858 99.1452 62.6625 99.2796C62.5467 99.4095 62.3974 99.5106 62.2147 99.5828C62.0284 99.6591 61.8125 99.7063 61.5671 99.7243C61.3255 99.742 61.098 99.7372 60.8845 99.7098C60.6674 99.6866 60.4769 99.6536 60.3132 99.6107L60.2503 100.514C60.3536 100.534 60.4546 100.55 60.5535 100.563C60.6526 100.579 60.7515 100.593 60.8504 100.605C61.0004 100.622 61.152 100.632 61.305 100.637C61.4584 100.645 61.613 100.643 61.7688 100.632C62.1428 100.604 62.4779 100.527 62.7741 100.399C63.0702 100.272 63.3178 100.097 63.5169 99.8749C63.7199 99.6524 63.8705 99.3828 63.9687 99.0662C64.0633 98.7538 64.0957 98.395 64.0659 97.9898L64.0333 97.5457L65.7747 97.4178L65.7133 96.5822L63.9719 96.71L63.569 91.2229Z" fill="#FCFCFC"></path> <path d="M56.0157 91.0316C55.4038 90.951 54.8746 91.0054 54.4281 91.1948C53.9771 91.3875 53.6262 91.6289 53.3752 91.9189L53.9643 92.5166C54.1955 92.287 54.4704 92.1144 54.789 91.9988C55.1076 91.8832 55.4586 91.8506 55.842 91.9011C56.1325 91.9394 56.3906 92.0286 56.6165 92.1686C56.8423 92.3087 57.0279 92.4849 57.1733 92.6971C57.3164 92.8972 57.421 93.1198 57.4872 93.3649C57.5495 93.6095 57.5741 93.8866 57.5609 94.1961L57.5555 94.2368L53.065 93.6451L53.0015 94.1273C52.9439 94.5649 52.9464 94.979 53.0093 95.3694C53.0682 95.7594 53.1916 96.1085 53.3795 96.417C53.5679 96.7215 53.8223 96.9737 54.1427 97.1735C54.4587 97.3767 54.8433 97.5082 55.2964 97.5679C55.6565 97.6153 56.0187 97.5882 56.3827 97.4864C56.7429 97.3841 57.0747 97.2131 57.3782 96.9734C57.686 96.7303 57.9478 96.418 58.1635 96.0367C58.3787 95.6592 58.5198 95.2168 58.5866 94.7095L58.6187 94.4655C58.6764 94.0279 58.6561 93.6135 58.558 93.2223C58.4598 92.8311 58.2969 92.4826 58.0692 92.1768C57.8416 91.8711 57.5538 91.6184 57.2058 91.4189C56.8539 91.2189 56.4572 91.0898 56.0157 91.0316ZM55.4127 96.6849C55.1377 96.6486 54.9081 96.5672 54.7239 96.4404C54.5358 96.3132 54.3866 96.1596 54.2763 95.9796C54.1661 95.7996 54.089 95.5924 54.045 95.3581C54.0005 95.1277 53.991 94.9156 54.0165 94.722L54.0234 94.6697L57.4043 95.1152C57.3235 95.4 57.2162 95.6459 57.0826 95.8529C56.9445 96.0632 56.7879 96.2356 56.6125 96.3701C56.4377 96.5008 56.2484 96.5921 56.0445 96.644C55.8402 96.6998 55.6296 96.7134 55.4127 96.6849Z" fill="#FCFCFC"></path> <path d="M46.517 95.4046C46.9527 95.5552 47.3753 95.5937 47.785 95.5204C48.1898 95.4494 48.5707 95.2918 48.9279 95.0474L48.8818 95.1988L48.6487 96.0171L49.6234 96.3539L51.6937 90.3616L50.6636 90.0057L49.3357 93.8492C49.2055 94.0109 49.065 94.1483 48.9143 94.2615C48.7586 94.3772 48.5946 94.4631 48.4223 94.5193C48.2301 94.5851 48.0222 94.6125 47.7988 94.6014C47.574 94.5941 47.3361 94.547 47.085 94.4602C46.8894 94.3926 46.7067 94.3171 46.5372 94.2338C46.3626 94.1528 46.1833 94.0557 45.9993 93.9425L45.5145 94.8971C45.6026 94.9771 45.7455 95.0658 45.9433 95.1631C46.1375 95.2591 46.3287 95.3396 46.517 95.4046Z" fill="#FCFCFC"></path> <path d="M28.032 59.4786L28.2948 56.7608C28.3259 56.3989 28.3033 56.0435 28.2272 55.6947C28.1514 55.342 28.0231 55.0255 27.8422 54.745C27.6652 54.465 27.4326 54.2325 27.1444 54.0477C26.8561 53.8628 26.5135 53.7532 26.1166 53.7187C25.8638 53.6943 25.6248 53.7104 25.3996 53.7671C25.1747 53.8199 24.9682 53.9059 24.7801 54.0251C24.6083 54.138 24.4467 54.2872 24.2953 54.4727C24.1439 54.6582 24.0326 54.8554 23.9614 55.0644L23.9439 55.0627C23.8744 54.848 23.7961 54.6638 23.7089 54.5102C23.6221 54.3526 23.5106 54.2065 23.3745 54.0717C23.242 53.9411 23.0875 53.8339 22.9112 53.7502C22.7352 53.6625 22.5366 53.606 22.3153 53.5807C21.9191 53.5385 21.5716 53.5814 21.2727 53.7095C20.9738 53.8376 20.7204 54.023 20.5125 54.2658C20.3046 54.5087 20.1417 54.7931 20.0238 55.1192C19.902 55.445 19.8223 55.7826 19.7846 56.1322L19.5404 58.6575L28.032 59.4786ZM24.1652 58.0098L24.3316 56.2893C24.3615 56.0607 24.4211 55.8506 24.5102 55.659C24.5994 55.4675 24.7153 55.3041 24.8579 55.1687C25.0044 55.0338 25.1749 54.9345 25.3694 54.8709C25.5643 54.8034 25.7821 54.7832 26.0228 54.8104C26.2599 54.8334 26.4673 54.9005 26.6449 55.0119C26.8229 55.1194 26.9685 55.2571 27.0818 55.425C27.1951 55.5929 27.2789 55.7816 27.3332 55.9909C27.3836 56.1998 27.3999 56.4173 27.382 56.6431L27.2212 58.3053L24.1652 58.0098ZM23.267 57.9229L20.5667 57.6618L20.7094 56.1863C20.7336 55.9767 20.7806 55.7752 20.8503 55.5818C20.9204 55.3845 21.0154 55.2132 21.1355 55.0678C21.259 54.9267 21.4087 54.8195 21.5845 54.7463C21.7607 54.6691 21.9674 54.642 22.2046 54.6649C22.4262 54.6864 22.6161 54.7518 22.7743 54.8613C22.9324 54.9708 23.0606 55.1068 23.1587 55.2693C23.2606 55.4322 23.3333 55.6139 23.3767 55.8143C23.4163 56.0144 23.4282 56.2157 23.4125 56.4182L23.267 57.9229Z" fill="#FCFCFC"></path> <path d="M29.6181 50.5188C29.7998 49.929 29.8345 49.3981 29.7223 48.9262C29.6075 48.4494 29.4281 48.0631 29.1841 47.7673L28.4964 48.2483C28.6842 48.5146 28.8085 48.8144 28.8693 49.1479C28.9301 49.4813 28.9036 49.8328 28.7898 50.2024C28.7036 50.4824 28.5726 50.7221 28.3968 50.9213C28.221 51.1206 28.0163 51.2742 27.7828 51.3821C27.5616 51.4898 27.3247 51.5558 27.0719 51.5802C26.8204 51.6008 26.5431 51.5788 26.2401 51.5141L26.2009 51.502L27.5338 47.1733L27.069 47.0302C26.6472 46.9003 26.2385 46.8337 25.8431 46.8304C25.4487 46.8235 25.0838 46.8869 24.7484 47.0206C24.4166 47.1555 24.1255 47.3642 23.875 47.6468C23.622 47.9245 23.4282 48.2817 23.2937 48.7185C23.1868 49.0657 23.1531 49.4272 23.1926 49.8032C23.2333 50.1754 23.3466 50.5311 23.5323 50.8703C23.7206 51.2144 23.9848 51.5246 24.3247 51.801C24.661 52.0762 25.0736 52.2891 25.5627 52.4397L25.7979 52.5121C26.2198 52.642 26.6317 52.6912 27.0338 52.6597C27.4359 52.6282 27.8067 52.5258 28.1462 52.3524C28.4857 52.179 28.7828 51.9374 29.0376 51.6275C29.2936 51.314 29.4871 50.9444 29.6181 50.5188ZM24.1448 48.9806C24.2265 48.7155 24.3451 48.5027 24.5008 48.3422C24.6577 48.178 24.834 48.0565 25.0299 47.9779C25.2258 47.8992 25.4429 47.8578 25.6813 47.8535C25.9159 47.8481 26.1266 47.8742 26.3132 47.9316L26.3636 47.9472L25.3601 51.2063C25.0927 51.079 24.8682 50.9322 24.6864 50.7659C24.5021 50.5947 24.3582 50.4114 24.2549 50.2161C24.1553 50.0219 24.0969 49.82 24.0797 49.6104C24.0587 49.3996 24.0805 49.1896 24.1448 48.9806Z" fill="#FCFCFC"></path> <path d="M31.1174 42.6471C31.2065 42.6958 31.2811 42.7589 31.3411 42.8363C31.4012 42.9136 31.446 43.0027 31.4755 43.1034C31.5237 43.2678 31.5271 43.4611 31.4857 43.6833C31.4409 43.9036 31.3491 44.1406 31.2104 44.3943C31.1224 44.5553 31.0162 44.7088 30.892 44.8545C30.7677 45.0003 30.6279 45.1175 30.4726 45.2062C30.3154 45.2983 30.1446 45.3541 29.9604 45.3736C29.778 45.3896 29.5854 45.351 29.3825 45.2579L28.8624 46.209C29.0989 46.3383 29.3559 46.4098 29.6333 46.4235C29.9126 46.4338 30.1908 46.3811 30.4677 46.2654C30.7462 46.155 31.0175 45.9806 31.2815 45.742C31.5421 45.5016 31.7754 45.1929 31.9816 44.8159C32.1615 44.4869 32.2879 44.1621 32.3609 43.8413C32.4339 43.5206 32.4528 43.2215 32.4175 42.944C32.3823 42.6665 32.2935 42.4176 32.1513 42.1974C32.0109 41.9737 31.8174 41.7944 31.5706 41.6595C31.341 41.5339 31.1116 41.473 30.8824 41.4768C30.6552 41.4772 30.4241 41.5334 30.1892 41.6454C29.9578 41.7592 29.7218 41.9263 29.4812 42.1464C29.2372 42.3647 28.9855 42.6255 28.7261 42.9289C28.5322 43.1613 28.361 43.3481 28.2125 43.4895C28.0658 43.6275 27.931 43.7274 27.8081 43.7893C27.6834 43.8546 27.5669 43.8844 27.4587 43.8787C27.3506 43.873 27.2416 43.8401 27.132 43.7802C27.0257 43.7221 26.9369 43.6401 26.8657 43.5344C26.7944 43.4286 26.7492 43.3037 26.73 43.1597C26.7089 43.019 26.7174 42.8611 26.7553 42.686C26.795 42.5074 26.8702 42.317 26.9808 42.1148C27.0876 41.9194 27.2106 41.7596 27.3498 41.6354C27.4908 41.5077 27.6359 41.4134 27.785 41.3525C27.9341 41.2915 28.0837 41.2621 28.234 41.2641C28.3808 41.2642 28.5142 41.2971 28.6342 41.3627L29.1543 40.4116C28.9109 40.2786 28.6557 40.208 28.3885 40.1999C28.1198 40.1865 27.8541 40.2327 27.5915 40.3384C27.3289 40.4441 27.0781 40.6097 26.8391 40.8352C26.6 41.0607 26.3868 41.3447 26.1994 41.6875C26.0251 42.0062 25.9077 42.3227 25.8472 42.6369C25.7886 42.9476 25.7805 43.2392 25.8229 43.5118C25.8653 43.7843 25.9569 44.028 26.0975 44.243C26.2348 44.456 26.4165 44.6244 26.6427 44.7481C26.8724 44.8737 27.1027 44.9328 27.3337 44.9256C27.5613 44.9165 27.79 44.8524 28.0199 44.7332C28.2514 44.6193 28.4846 44.4575 28.7195 44.2476C28.9564 44.0343 29.1945 43.7861 29.4339 43.503C29.6278 43.2706 29.805 43.0848 29.9657 42.9456C30.123 42.8046 30.2684 42.7015 30.4019 42.6365C30.5354 42.5715 30.6606 42.542 30.7775 42.5481C30.891 42.5522 31.0043 42.5853 31.1174 42.6471Z" fill="#FCFCFC"></path> <path d="M29.2428 34.6214L28.5423 35.4562L29.7183 36.443L28.6486 37.7178L29.2905 38.2564L30.3601 36.9816L32.9993 39.1963C33.2986 39.4474 33.587 39.6232 33.8648 39.7237C34.142 39.8186 34.4043 39.8525 34.6514 39.8254C34.9016 39.8007 35.1359 39.722 35.3544 39.5892C35.5725 39.4509 35.7719 39.274 35.9527 39.0586C36.0606 38.9299 36.1626 38.7962 36.2586 38.6575C36.3571 38.5158 36.4434 38.3766 36.5174 38.2398C36.5944 38.1055 36.6593 37.9764 36.7123 37.8526C36.7622 37.7262 36.7951 37.611 36.811 37.5071L36.1251 37.1304C36.0943 37.1913 36.0541 37.2697 36.0042 37.3655C35.9539 37.4559 35.8985 37.5522 35.8382 37.6545C35.7753 37.7599 35.7097 37.8654 35.6413 37.9712C35.5699 38.0745 35.4966 38.171 35.4212 38.2608C35.3183 38.3835 35.2054 38.4876 35.0826 38.5732C34.9623 38.6558 34.8295 38.7077 34.6844 38.7287C34.5423 38.7522 34.3898 38.7364 34.227 38.6813C34.0641 38.6263 33.8884 38.5196 33.6999 38.3614L31.0607 36.1468L32.6124 34.2975L31.9706 33.7589L30.4188 35.6082L29.2428 34.6214Z" fill="#FCFCFC"></path> <path d="M45.8981 27.0513L45.4536 26.1861C45.311 25.9169 45.1456 25.6549 44.9577 25.4001C44.7732 25.1436 44.5698 24.9099 44.3473 24.6992C44.1214 24.4903 43.8802 24.3112 43.6235 24.162C43.3685 24.0076 43.1008 23.8969 42.8206 23.8301C42.5403 23.7632 42.2493 23.7481 41.9475 23.7845C41.6438 23.8175 41.3357 23.9143 41.0229 24.075C40.7102 24.2356 40.452 24.4297 40.2483 24.6573C40.0464 24.8796 39.8909 25.1241 39.782 25.3909C39.6749 25.6611 39.6081 25.9457 39.5816 26.2447C39.5569 26.5385 39.5654 26.8372 39.6071 27.1407C39.6454 27.446 39.7133 27.7492 39.8109 28.0504C39.9102 28.3463 40.0277 28.6307 40.1635 28.9035L40.6079 29.7687C40.7506 30.0379 40.915 30.2982 41.1012 30.5495C41.2873 30.8008 41.4934 31.0309 41.7193 31.2398C41.9417 31.4506 42.1821 31.6323 42.4406 31.7849C42.6973 31.9341 42.9658 32.0422 43.246 32.109C43.5263 32.1758 43.8165 32.1936 44.1166 32.1624C44.4185 32.126 44.7257 32.0274 45.0385 31.8668C45.3512 31.7061 45.6085 31.5147 45.8105 31.2923C46.0142 31.0648 46.1705 30.8176 46.2794 30.5509C46.3883 30.2841 46.4551 30.0039 46.4799 29.7101C46.5081 29.4146 46.5014 29.115 46.4596 28.8115C46.4179 28.508 46.3474 28.2082 46.2481 27.9123C46.1505 27.6111 46.0338 27.3241 45.8981 27.0513ZM44.4945 26.6657L44.9443 27.5413C45.0336 27.7237 45.1187 27.9193 45.1996 28.1281C45.284 28.3351 45.3509 28.5466 45.4004 28.7627C45.4482 28.9841 45.476 29.2048 45.4836 29.4248C45.4929 29.6396 45.4707 29.8442 45.4169 30.0388C45.3614 30.2385 45.2673 30.423 45.1347 30.5921C45.0055 30.7595 44.8279 30.9012 44.6021 31.0172C44.3762 31.1332 44.1576 31.195 43.9463 31.2025C43.735 31.2101 43.532 31.1782 43.3373 31.107C43.1444 31.0392 42.9607 30.9381 42.7863 30.8037C42.6119 30.6693 42.4487 30.5183 42.2966 30.3504C42.1463 30.1861 42.0081 30.0112 41.8821 29.8256C41.7595 29.6383 41.651 29.4569 41.5565 29.2814L41.1067 28.4058C41.0192 28.2268 40.9358 28.0347 40.8567 27.8294C40.7793 27.6189 40.7167 27.4029 40.6689 27.1816C40.6193 26.9655 40.5917 26.7491 40.5858 26.5326C40.5782 26.3125 40.6021 26.1026 40.6576 25.9028C40.7149 25.7066 40.8081 25.5247 40.9373 25.3574C41.0665 25.19 41.2423 25.0492 41.4647 24.935C41.6905 24.8189 41.9091 24.7572 42.1204 24.7496C42.3299 24.7386 42.5312 24.767 42.7241 24.8348C42.9188 24.906 43.1033 25.0089 43.2777 25.1432C43.4504 25.2741 43.6118 25.4218 43.7621 25.5861C43.9107 25.7557 44.0463 25.9341 44.1689 26.1215C44.2897 26.3054 44.3982 26.4868 44.4945 26.6657Z" fill="#FCFCFC"></path> <path d="M49.8584 29.6798L50.9081 29.3868L49.4288 24.0874L51.7822 23.4305L51.5569 22.6235L49.2035 23.2804L49.0838 22.8515C49.0123 22.5957 48.9818 22.3629 48.9922 22.1531C49.0064 21.9423 49.0606 21.7589 49.1549 21.6028C49.2428 21.4525 49.3691 21.324 49.534 21.2171C49.7015 21.1055 49.9038 21.0166 50.1408 20.9504C50.3741 20.8853 50.5981 20.8451 50.8128 20.8297C51.0303 20.8096 51.2235 20.8043 51.3924 20.8139L51.2755 19.9158C51.1704 19.9168 51.0681 19.921 50.9688 19.9284C50.8685 19.9321 50.7686 19.9377 50.6693 19.9451C50.519 19.9587 50.3684 19.9784 50.2174 20.0043C50.0654 20.0265 49.9142 20.0586 49.7637 20.1006C49.4025 20.2014 49.0894 20.3436 48.8242 20.5271C48.5591 20.7106 48.3509 20.9309 48.1997 21.1881C48.0446 21.4463 47.9503 21.7403 47.9166 22.0701C47.8857 22.3951 47.9248 22.7532 48.0341 23.1445L48.1538 23.5734L46.472 24.0429L46.6973 24.8499L48.3791 24.3805L49.8584 29.6798Z" fill="#FCFCFC"></path> <path d="M56.003 28.3553L57.0899 28.2755L56.687 22.7883L59.1238 22.6094L59.0624 21.7737L56.6256 21.9526L56.593 21.5085C56.5736 21.2436 56.5897 21.0094 56.6413 20.8058C56.6968 20.602 56.7863 20.4329 56.9096 20.2985C57.0254 20.1686 57.1746 20.0675 57.3573 19.9954C57.5436 19.919 57.7595 19.8718 58.0049 19.8538C58.2465 19.8361 58.474 19.8409 58.6875 19.8683C58.9047 19.8915 59.0951 19.9246 59.2588 19.9674L59.3217 19.0639C59.2184 19.044 59.1174 19.0279 59.0186 19.0156C58.9194 18.9994 58.8205 18.9851 58.7217 18.9728C58.5716 18.9564 58.4201 18.946 58.267 18.9416C58.1136 18.9332 57.959 18.9348 57.8032 18.9462C57.4292 18.9737 57.0941 19.0512 56.798 19.1787C56.5018 19.3062 56.2542 19.481 56.0551 19.7032C55.8521 19.9257 55.7015 20.1953 55.6033 20.5119C55.5088 20.8244 55.4764 21.1832 55.5061 21.5883L55.5387 22.0324L53.7973 22.1603L53.8587 22.996L55.6001 22.8681L56.003 28.3553Z" fill="#FCFCFC"></path> <path d="M63.5563 28.5465C64.1682 28.6271 64.6974 28.5728 65.144 28.3834C65.5949 28.1906 65.9458 27.9492 66.1968 27.6592L65.6077 27.0615C65.3765 27.2911 65.1016 27.4637 64.783 27.5793C64.4644 27.695 64.1134 27.7275 63.73 27.677C63.4395 27.6387 63.1814 27.5496 62.9556 27.4095C62.7297 27.2694 62.5441 27.0933 62.3987 26.881C62.2557 26.681 62.151 26.4584 62.0848 26.2132C62.0225 25.9686 61.9979 25.6915 62.0111 25.382L62.0165 25.3414L66.507 25.933L66.5705 25.4508C66.6282 25.0132 66.6256 24.5992 66.5628 24.2087C66.5038 23.8188 66.3804 23.4696 66.1925 23.1611C66.0041 22.8566 65.7497 22.6044 65.4293 22.4046C65.1133 22.2014 64.7288 22.07 64.2757 22.0103C63.9155 21.9628 63.5534 21.99 63.1893 22.0917C62.8291 22.194 62.4973 22.365 62.1938 22.6048C61.886 22.8479 61.6242 23.1601 61.4085 23.5414C61.1933 23.9189 61.0523 24.3613 60.9854 24.8686L60.9533 25.1126C60.8956 25.5503 60.9159 25.9647 61.0141 26.3558C61.1122 26.747 61.2751 27.0955 61.5028 27.4013C61.7304 27.7071 62.0182 27.9597 62.3662 28.1592C62.7181 28.3593 63.1148 28.4884 63.5563 28.5465ZM64.1593 22.8933C64.4343 22.9295 64.6639 23.011 64.8481 23.1377C65.0363 23.2649 65.1854 23.4185 65.2957 23.5985C65.4059 23.7785 65.483 23.9857 65.527 24.22C65.5715 24.4504 65.581 24.6625 65.5555 24.8561L65.5486 24.9084L62.1677 24.463C62.2486 24.1781 62.3558 23.9322 62.4895 23.7252C62.6275 23.5149 62.7842 23.3425 62.9595 23.208C63.1343 23.0774 63.3236 22.9861 63.5275 22.9341C63.7318 22.8783 63.9424 22.8647 64.1593 22.8933Z" fill="#FCFCFC"></path> <path d="M73.055 24.1735C72.6194 24.023 72.1967 23.9844 71.787 24.0577C71.3823 24.1287 71.0013 24.2864 70.6441 24.5308L70.6902 24.3793L70.9233 23.561L69.9486 23.2242L67.8783 29.2165L68.9084 29.5724L70.2363 25.7289C70.3666 25.5673 70.507 25.4298 70.6577 25.3166C70.8134 25.2009 70.9774 25.115 71.1498 25.0588C71.3419 24.993 71.5498 24.9656 71.7733 24.9767C71.998 24.9841 72.2359 25.0311 72.487 25.1179C72.6827 25.1855 72.8653 25.261 73.0349 25.3444C73.2094 25.4253 73.3887 25.5224 73.5728 25.6356L74.0575 24.681C73.9695 24.601 73.8265 24.5124 73.6287 24.4151C73.4345 24.3191 73.2433 24.2385 73.055 24.1735Z" fill="#FCFCFC"></path> </svg> 