<?xml version="1.0" encoding="UTF-8"?> <svg xmlns="http://www.w3.org/2000/svg" data-name="Layer 1" width="880" height="660" style=""> <rect id="backgroundrect" width="100%" height="100%" x="0" y="0" fill="none" stroke="none" class="" style=""></rect> <g class="currentLayer" style=""> <title>Layer 1</title> <rect x="0.21850000321865082" y="606.9963989257812" width="883.56298828125" height="65.25729370117188" fill="#e6e6e6" id="svg_1"></rect> <polygon points="882.556 607.051 0 607.051 0 604.87 882.951 604.87 882.556 607.051" fill="#3f3d56" id="svg_2"></polygon> <path d="M693.1887470703125,251.18877868408202 v193.1823 H190.8112270703125 V251.18877868408202 A251.19094,251.19094 0 0 1 427.4983770703125,0.4142986840820271 q7.19385,-0.41944000000000004 14.50162,-0.41430000000000006 c2.776,0 5.54167,0.04141000000000001 8.28664,0.14500000000000002 A250.32942,250.32942 0 0 1 619.6137470703125,73.57497868408203 c1.357,1.35693 2.6932,2.72423 4.0294,4.11227 A251.03573,251.03573 0 0 1 693.1887470703125,251.18877868408202 z" fill="#e6e6e6" id="svg_3"></path> <path d="M450.2866370703125,0.14503868408202436 v444.226 H427.4983770703125 V0.4142986840820271 q7.19385,-0.41944000000000004 14.50162,-0.41430000000000006 C444.7760170703125,-0.0000013159179701460744 447.54166707031254,0.04140868408202891 450.2866370703125,0.14503868408202436 z" fill="#fff" id="svg_4"></path> <path d="M642.9613870703125,100.47550868408203 H241.03860707031248 a251.9462,251.9462 0 0 1 19.31826,-22.78826 H623.6431370703125 A251.94772,251.94772 0 0 1 642.9613870703125,100.47550868408203 z" fill="#fff" id="svg_5"></path> <rect x="476.907470703125" y="165.73280334472656" width="178.048828125" height="301.4265441894531" fill="#fff" id="svg_6"></rect> <rect x="512.0656127929688" y="216.65602111816406" width="26.932159423828125" height="26.932159423828125" fill="#e6e6e6" id="svg_7"></rect> <rect x="555.4563598632812" y="216.65602111816406" width="26.932159423828125" height="26.932159423828125" fill="#e6e6e6" id="svg_8"></rect> <rect x="598.8470458984375" y="216.65602111816406" width="26.932159423828125" height="26.932159423828125" fill="#e6e6e6" id="svg_9"></rect> <rect x="512.8137817382812" y="278.0014953613281" width="26.932159423828125" height="26.932159423828125" fill="#e6e6e6" id="svg_10"></rect> <rect x="556.2044677734375" y="278.0014953613281" width="26.932159423828125" height="26.932159423828125" fill="#e6e6e6" id="svg_11"></rect> <rect x="599.5951538085938" y="278.0014953613281" width="26.932159423828125" height="26.932159423828125" fill="#e6e6e6" id="svg_12"></rect> <rect x="513.5618896484375" y="339.34698486328125" width="26.932159423828125" height="26.932159423828125" fill="#e6e6e6" id="svg_13"></rect> <rect x="556.9525756835938" y="339.34698486328125" width="26.932159423828125" height="26.932159423828125" fill="#e6e6e6" id="svg_14"></rect> <rect x="600.34326171875" y="339.34698486328125" width="26.932159423828125" height="26.932159423828125" fill="#e6e6e6" id="svg_15"></rect> <rect x="514.3099975585938" y="400.69244384765625" width="26.932159423828125" height="26.932159423828125" fill="#e6e6e6" id="svg_16"></rect> <rect x="557.70068359375" y="400.69244384765625" width="26.932159423828125" height="26.932159423828125" fill="#e6e6e6" id="svg_17"></rect> <rect x="601.0913696289062" y="400.69244384765625" width="26.932159423828125" height="26.932159423828125" fill="#e6e6e6" id="svg_18"></rect> <rect x="514.3099975585938" y="400.69244384765625" width="26.932159423828125" height="26.932159423828125" fill="#e6e6e6" id="svg_19"></rect> <rect x="557.70068359375" y="400.69244384765625" width="26.932159423828125" height="26.932159423828125" fill="#e6e6e6" id="svg_20"></rect> <rect x="601.0913696289062" y="400.69244384765625" width="26.932159423828125" height="26.932159423828125" fill="#e6e6e6" id="svg_21"></rect> <circle cx="250.52809143066406" cy="345.9617614746094" r="37.119239807128906" fill="#fff" id="svg_22"></circle> <polygon points="250.63 345.962 250.732 345.962 252.568 451.201 248.693 451.201 250.63 345.962" fill="#fff" id="svg_23"></polygon> <rect x="931.3651733398438" y="312.72084045410156" width="1.835569977760315" height="6.934360027313232" transform="rotate(62.234130859375 520.2803955078123,-201.77317810058585) " fill="#fff" id="svg_24"></rect> <circle cx="359.6578674316406" cy="291.1661071777344" r="56.446380615234375" fill="#fff" id="svg_25"></circle> <polygon points="359.813 291.166 359.968 291.166 362.759 451.201 356.867 451.201 359.813 291.166" fill="#fff" id="svg_26"></polygon> <rect x="1079.2896728515625" y="175.16729736328125" width="2.791300058364868" height="10.544930458068848" transform="rotate(62.234130859375 557.8008422851562,-312.99084472656244) " fill="#fff" id="svg_27"></rect> <path d="M243.23486707031248,237.26668868408206 l9.53553,-7.6266 c-7.40773,-0.81727 -10.45143,3.22274 -11.69709,6.42045 c-5.78722,-2.40307 -12.0873,0.74628 -12.0873,0.74628 l19.07883,6.92629 A14.43734,14.43734 0 0 0 243.23486707031248,237.26668868408206 z" fill="#fff" id="svg_28"></path> <path d="M343.7103770703125,175.11688868408203 l9.53553,-7.6266 c-7.40773,-0.81727 -10.45143,3.22274 -11.69709,6.42045 c-5.78722,-2.40307 -12.0873,0.74628 -12.0873,0.74628 l19.07884,6.92629 A14.43742,14.43742 0 0 0 343.7103770703125,175.11688868408203 z" fill="#fff" id="svg_29"></path> <path d="M305.3846670703125,234.159198684082 l9.53553,-7.6266 c-7.40773,-0.81727 -10.45143,3.22274 -11.69709,6.42045 c-5.78722,-2.40307 -12.0873,0.74628 -12.0873,0.74628 l19.07884,6.92629 A14.43742,14.43742 0 0 0 305.3846670703125,234.159198684082 z" fill="#fff" id="svg_30"></path> <rect x="164.39755249023438" y="421.58282470703125" width="555.2048950195312" height="45.57651901245117" fill="#e6e6e6" id="svg_31"></rect> <path d="M81.4729470703125,540.221268684082 s-112.306,-51.70031 -72.853,-87.55226 S81.4729470703125,540.221268684082 81.4729470703125,540.221268684082 z" fill="#e6e6e6" id="svg_32"></path> <path d="M79.51822707031249,552.285038684082 s-51.62,-169.6065 24.39237,-161.49519 S79.51822707031249,552.285038684082 79.51822707031249,552.285038684082 z" fill="#e6e6e6" id="svg_33"></path> <path d="M41.881537070312504,537.242988684082 l2.16658,28.37159 l0.03437000000000001,0.49006000000000005 a130.35307,130.35307 0 0 0 0.6706300000000002,13.26586 c2.94031,28.939 15.57857,42.12751 30.349,42.12751 s26.85842,-13.18852 29.79874,-42.12751 a130.356,130.356 0 0 0 0.6706200000000002,-13.26586 l0.017210000000000003,-0.3955000000000001 l0.008560000000000002,-0.09456000000000003 l2.17518,-28.37159 z" fill="#e6e6e6" id="svg_34"></path> <path d="M105.59723707031247,565.6145786840821 l-0.008560000000000002,0.09456000000000003 l-0.017210000000000003,0.3955000000000001 a130.356,130.356 0 0 1 -0.6706200000000002,13.26586 H44.7531170703125 a130.35307,130.35307 0 0 1 -0.6706300000000002,-13.26586 l-0.03437000000000001,-0.49006000000000005 z" fill="#fff" id="svg_35"></path> <path d="M832.8960870703125,540.221268684082 s-112.306,-51.70031 -72.853,-87.55226 S832.8960870703125,540.221268684082 832.8960870703125,540.221268684082 z" fill="#e6e6e6" id="svg_36"></path> <path d="M830.9413570703125,552.285038684082 s-51.62,-169.6065 24.39237,-161.49519 S830.9413570703125,552.285038684082 830.9413570703125,552.285038684082 z" fill="#e6e6e6" id="svg_37"></path> <path d="M793.3046770703126,537.242988684082 l2.16658,28.37159 l0.03437000000000001,0.49006000000000005 a130.35311,130.35311 0 0 0 0.6706200000000002,13.26586 c2.94032,28.939 15.57858,42.12751 30.349,42.12751 s26.85843,-13.18852 29.79874,-42.12751 a130.35307,130.35307 0 0 0 0.6706300000000002,-13.26586 l0.017210000000000003,-0.3955000000000001 l0.008550000000000002,-0.09456000000000003 l2.17518,-28.37159 z" fill="#e6e6e6" id="svg_38"></path> <path d="M857.0203670703125,565.6145786840821 l-0.008550000000000002,0.09456000000000003 l-0.017210000000000003,0.3955000000000001 a130.35307,130.35307 0 0 1 -0.6706300000000002,13.26586 H796.1762470703125 a130.35311,130.35311 0 0 1 -0.6706200000000002,-13.26586 l-0.03437000000000001,-0.49006000000000005 z" fill="#fff" id="svg_39"></path> <path d="M683.7822570703125,642.9318886840821 l-7.36292,0.8647000000000001 c-5.81584,3.50648 -12.642,4.82649 -20.20218,4.55778 a6.0584,6.0584 0 0 1 -5.132,-3.14495 h0 a6.004,6.004 0 0 1 3.91692,-8.707650000000001 l5.59465,-1.3031000000000001 l13.49993,-13.2034 l8.14424,-14.73959 l11.83011,1.35673 l2.46276,18.722 h0 A14.49192,14.49192 0 0 1 683.7822570703125,642.9318886840821 z" fill="#ffb8b8" id="svg_40"></path> <path d="M569.1080770703124,633.460098684082 l-7.21645,1.6980000000000002 c-5.37845,4.1462900000000005 -12.00974,6.23546 -19.55132,6.82989 a6.0584,6.0584 0 0 1 -5.45694,-2.53974 h0 a6.004,6.004 0 0 1 2.89929,-9.09723 l5.40974,-1.93205 l11.90765,-14.65557 L563.5118470703125,598.1918386840821 h11.90765 l4.57987,18.31946 h0 A14.49193,14.49193 0 0 1 569.1080770703124,633.460098684082 z" fill="#ffb8b8" id="svg_41"></path> <path d="M563.1921070703125,599.227658684082 l13.46579,2.07166 l21.23452,-107.2084 l36.772,-62.66772 l44.54069,182.30608 l16.57328,3.10749 c-1.8584100000000001,-102.66356 7.21225,-231.91222 -13.46579,-247.56337 l-90.11721,10.3583 L552.8338070703124,485.2863586840821 z" fill="#2f2e41" id="svg_42"></path> <circle cx="628.4494018554688" cy="178.68067932128906" r="31.074899673461914" fill="#ffb8b8" id="svg_43"></circle> <polygon points="671.954 226.329 634.664 232.544 625.342 199.397 652.273 191.111 671.954 226.329" fill="#ffb8b8" id="svg_44"></polygon> <path d="M687.4917470703125,373.416718684082 l-99.43968,9.322470000000001 c7.9719999999999995,-27.7204 15.276,-55.34331 9.322470000000001,-82.8664 c-7.56022,-24.57156 -0.26306,-39.18354 19.68077,-50.75567 l13.46579,-30.03907 l36.25405,-4.14332 l0,0 A78.25619,78.25619 0 0 1 677.8826470703125,266.684838684082 C672.7167970703125,305.863038684082 674.1118470703125,342.218248684082 687.4917470703125,373.416718684082 z" fill="#3c71fb" id="svg_45"></path> <path d="M627.7497470703125,141.97952868408203 c-10.37095,2.3694100000000002 -22.17487,5.72663 -22.83677,8.84705 c-10.668330000000001,2.6882900000000003 -18.72067,9.12766 -20.36486,18.94463 a5.8793,5.8793 0 0 0 5.89829,6.81817 c5.80171,-0.07473000000000002 14.51125,-0.6304000000000001 20.26246,-3.03248 c16.70684,10.764800000000001 19.51113,38.763 12.21507,57.82087 l11.48124,-1.0524 l11.878070000000001,-34.77172 l3.03391,33.40489 l26.20007,-3.46416 l-3.37468,-42.59722 a63.46522,63.46522 0 0 0 -9.96667,-28.14221 a23.96606,23.96606 0 0 0 -1.8752400000000002,-2.42946 A33.29986,33.29986 0 0 0 627.7497470703125,141.97952868408203 z" fill="#2f2e41" id="svg_46"></path> <path d="M561.9456470703125,653.615988684082 a3.6495100000000003,3.6495100000000003 0 0 0 3.58967,4.05234 l11.65269,0.11981000000000001 a2.48493,2.48493 0 0 0 2.3120000000000003,-2.47891 h0 a2.48494,2.48494 0 0 0 -1.562,-2.30721 l-3.438,-1.37518 l-5,-7 h-4 a18.32116,18.32116 0 0 0 -3.5521599999999998,8.96941 l-0.0021900000000000005,0.01974 z" fill="#ffb8b8" id="svg_47"></path> <path d="M534.0543470703125,653.615988684082 a3.6495100000000003,3.6495100000000003 0 0 1 -3.58967,4.05234 l-11.65269,0.11981000000000001 a2.48493,2.48493 0 0 1 -2.3120000000000003,-2.47891 h0 a2.48493,2.48493 0 0 1 1.56206,-2.30721 L521.4999970703125,651.626838684082 l5,-7 h4 a18.32106,18.32106 0 0 1 3.5521599999999998,8.96941 l0.0021900000000000005,0.01974 z" fill="#ffb8b8" id="svg_48"></path> <polygon points="525.5 644.627 531.5 644.627 552.5 553.627 563.5 645.627 570.5 645.627 580 527.127 531.5 526.627 525.5 644.627" fill="#3f3d56" id="svg_49"></polygon> <path d="M498.4999970703125,477.62683868408203 h8 v-19 l1.8199100000000001,-3.63981 a5.18356,5.18356 0 0 0 -3.8481300000000003,-7.44145 h0 a5.18358,5.18358 0 0 0 -5.97177,5.1233 V477.62683868408203 z" fill="#ffb8b8" id="svg_50"></path> <circle cx="546" cy="412.1268310546875" r="18.5" fill="#ffb8b8" id="svg_51"></circle> <rect x="1950.718505859375" y="1514.6268310546875" width="19" height="22" transform="rotate(-180 1254.1092529296875,979.1268310546874) " fill="#ffb8b8" id="svg_52"></rect> <path d="M529.4999970703125,529.626838684082 c16.81763,10.37839 34.59827,9.36365 53,1 l-4,-93 l-21,-1 l-22,3 l-11,9 z" fill="#3c71fb" id="svg_53"></path> <polygon points="509.5 496.627 531.5 479.627 524.5 448.627 511.5 472.627 507.5 468.627 495.5 477.627 509.5 496.627" fill="#3c71fb" id="svg_54"></polygon> <path d="M607.1559670703125,439.223838684082 l-6.99717,3.8780900000000003 l-9.21047,-16.61828 l-3.35622,-2.30132 a5.18357,5.18357 0 0 1 -0.24158000000000002,-8.37407 h0 a5.18357,5.18357 0 0 1 7.70676,1.5861800000000001 l2.8882000000000003,5.21112 z" fill="#ffb8b8" id="svg_55"></path> <polygon points="568 467.127 594.551 453.032 608.5 445.627 610.5 433.627 601.5 424.627 590.5 431.627 591.5 439.627 578.5 437.627 568 467.127" fill="#3c71fb" id="svg_56"></polygon> <circle cx="550" cy="405.1268310546875" r="22" fill="#2f2e41" id="svg_57"></circle> <circle cx="562" cy="380.1268310546875" r="10" fill="#2f2e41" id="svg_58"></circle> <path d="M561.5150470703124,388.487278684082 a9.99733,9.99733 0 0 0 12.83441,-14.57 A9.99422,9.99422 0 1 1 560.1287470703126,387.59949868408205 A10.02019,10.02019 0 0 0 561.5150470703124,388.487278684082 z" fill="#2f2e41" id="svg_59"></path> <path d="M623.2702470703125,404.491618684082 l0.6870900000000002,24.048 a13.11173,13.11173 0 0 1 -11.80171,13.42112 h0 a13.11172,13.11172 0 0 1 -13.96224,-16.46762 l5.39612,-19.96565 l15.53745,-84.93806 l-1.03583,-49.71984 l33.14656,-1.03583 l-6.215,55.93482 z" fill="#ffb8b8" id="svg_60"></path> <path d="M653.3093170703125,275.01283868408206 a52.381,52.381 0 0 0 -37.28988,0 l2.07166,-41.43322 a16.57327,16.57327 0 0 1 16.57327,-16.57326 h0 a16.57326,16.57326 0 0 1 16.57326,16.57326 z" fill="#3c71fb" id="svg_61"></path> </g> </svg> 