<?xml version="1.0" encoding="UTF-8"?> <svg xmlns="http://www.w3.org/2000/svg" width="1441" height="651" viewBox="0 0 1441 651" fill="none"> <line x1="144.401" y1="1" x2="144.401" y2="650.002" stroke="#201E1E"></line> <line x1="0.500031" y1="1" x2="0.500002" y2="650.002" stroke="#201E1E"></line> <line x1="720.004" y1="1" x2="720.004" y2="650.002" stroke="#201E1E"></line> <line x1="576.103" y1="1" x2="576.103" y2="650.002" stroke="#201E1E"></line> <line x1="863.905" y1="1" x2="863.905" y2="650.002" stroke="#201E1E"></line> <line x1="1151.71" y1="1" x2="1151.71" y2="650.002" stroke="#201E1E"></line> <line x1="288.302" y1="1" x2="288.301" y2="650.002" stroke="#201E1E"></line> <line x1="432.202" y1="1" x2="432.202" y2="650.002" stroke="#201E1E"></line> <line x1="1007.81" y1="1" x2="1007.81" y2="650.002" stroke="#201E1E"></line> <line x1="1295.61" y1="1" x2="1295.61" y2="650.002" stroke="#201E1E"></line> <line x1="1439.51" y1="1" x2="1439.51" y2="650.002" stroke="#201E1E"></line> <line x1="4.37114e-08" y1="0.5" x2="1440" y2="0.500126" stroke="black"></line> <line y1="325.999" x2="1439.01" y2="325.999" stroke="black"></line> <line y1="163.25" x2="1439.01" y2="163.25" stroke="black"></line> <line y1="488.749" x2="1439.01" y2="488.749" stroke="black"></line> <line y1="649.501" x2="1439.01" y2="649.501" stroke="black"></line> </svg> 