<?xml version="1.0" encoding="UTF-8"?> <svg xmlns="http://www.w3.org/2000/svg" width="222" height="222" viewBox="0 0 222 222" fill="none"> <path d="M204.602 112L217.378 112.74L217.136 116.916C217.055 118.303 216.708 119.327 216.095 119.99C215.481 120.659 214.612 120.961 213.489 120.896C212.893 120.861 212.373 120.661 211.93 120.295C211.494 119.929 211.167 119.447 210.949 118.847C210.716 119.526 210.316 120.049 209.749 120.415C209.187 120.787 208.532 120.952 207.784 120.909C206.637 120.842 205.758 120.418 205.146 119.638C204.534 118.857 204.267 117.788 204.345 116.431L204.602 112ZM210.48 114.031L205.882 113.764L205.721 116.546C205.676 117.329 205.842 117.958 206.219 118.432C206.602 118.912 207.15 119.173 207.864 119.214C209.403 119.303 210.22 118.511 210.317 116.838L210.48 114.031ZM211.831 114.109L211.684 116.653C211.641 117.39 211.791 117.989 212.134 118.449C212.477 118.915 212.964 119.166 213.596 119.203C214.298 119.244 214.819 119.068 215.158 118.677C215.504 118.286 215.701 117.673 215.749 116.836L215.894 114.344L211.831 114.109Z" fill="white"></path> <path d="M209.71 125.882L209.247 128.308C209.033 129.365 208.597 130.15 207.939 130.662C207.281 131.175 206.488 131.343 205.561 131.166C204.629 130.988 203.941 130.529 203.498 129.788C203.054 129.048 202.935 128.142 203.139 127.072L203.893 123.117L213.235 124.899L212.93 126.496L209.71 125.882ZM201.835 133.909L202.141 132.303L211.483 134.085L211.176 135.691L201.835 133.909ZM208.406 125.633L204.892 124.963L204.439 127.337C204.325 127.936 204.389 128.428 204.632 128.815C204.88 129.202 205.272 129.447 205.807 129.549C206.325 129.648 206.779 129.567 207.168 129.307C207.563 129.055 207.82 128.641 207.942 128.068L208.406 125.633Z" fill="white"></path> <path d="M204.512 147.673C204.929 147.83 205.318 147.794 205.679 147.567C206.045 147.341 206.332 146.951 206.54 146.397C206.742 145.86 206.771 145.357 206.627 144.89C206.481 144.429 206.219 144.127 205.84 143.985L206.408 142.471C207.182 142.761 207.694 143.322 207.945 144.155C208.196 144.987 208.139 145.889 207.774 146.86C207.383 147.903 206.854 148.63 206.186 149.043C205.523 149.458 204.778 149.51 203.949 149.199C203.549 149.049 203.227 148.79 202.983 148.423C202.738 148.056 202.601 147.613 202.57 147.095C201.83 148 200.944 148.259 199.913 147.872C199.096 147.565 198.567 147.007 198.326 146.197C198.086 145.387 198.163 144.455 198.558 143.402C198.943 142.376 199.511 141.622 200.261 141.14C201.015 140.666 201.82 140.589 202.675 140.91L202.107 142.425C201.674 142.262 201.229 142.314 200.772 142.581C200.319 142.855 199.984 143.28 199.768 143.856C199.55 144.438 199.508 144.957 199.643 145.414C199.778 145.872 200.059 146.181 200.487 146.341C200.987 146.529 201.4 146.512 201.727 146.29C202.058 146.076 202.341 145.654 202.578 145.023L203.149 143.501L204.433 143.982L203.812 145.636C203.451 146.684 203.684 147.363 204.512 147.673Z" fill="white"></path> <path d="M193.083 155.957L193.81 154.502L197.443 156.317L199.395 152.41L195.763 150.595L196.493 149.132L205 153.383L204.27 154.846L200.582 153.003L198.63 156.91L202.317 158.753L201.59 160.207L193.083 155.957Z" fill="white"></path> <path d="M188.613 163.201C188.821 163.223 189.144 163.34 189.58 163.55C189.327 162.49 189.484 161.518 190.05 160.635C190.556 159.846 191.194 159.34 191.964 159.117C192.735 158.901 193.464 159.014 194.149 159.453C194.983 159.988 195.426 160.718 195.48 161.644C195.536 162.577 195.195 163.619 194.458 164.768L193.604 166.099L194.232 166.503C194.711 166.81 195.182 166.91 195.647 166.804C196.117 166.702 196.53 166.372 196.888 165.815C197.201 165.326 197.34 164.838 197.305 164.349C197.271 163.861 197.078 163.504 196.728 163.279L197.611 161.903C198.01 162.16 198.305 162.547 198.494 163.065C198.686 163.592 198.735 164.166 198.642 164.789C198.546 165.416 198.311 166.021 197.938 166.603C197.346 167.525 196.651 168.099 195.852 168.325C195.058 168.553 194.25 168.418 193.429 167.919L189.744 165.556C189.01 165.084 188.365 164.803 187.811 164.712L187.692 164.636L188.613 163.201ZM191.113 161.599C190.838 162.028 190.688 162.506 190.663 163.033C190.638 163.56 190.748 164.024 190.992 164.424L192.635 165.478L193.323 164.405C194.398 162.728 194.445 161.575 193.464 160.945C193.035 160.67 192.608 160.598 192.182 160.729C191.757 160.86 191.401 161.15 191.113 161.599Z" fill="white"></path> <path d="M184.082 169.045C184.882 168.034 185.863 167.473 187.026 167.362C188.194 167.254 189.334 167.641 190.447 168.52L190.681 168.705C191.421 169.29 191.97 169.952 192.327 170.69C192.686 171.437 192.828 172.192 192.755 172.956C192.682 173.727 192.412 174.41 191.943 175.003C191.176 175.972 190.261 176.474 189.197 176.506C188.133 176.539 187.005 176.085 185.815 175.143L185.284 174.724L189.28 169.67C188.53 169.107 187.766 168.85 186.987 168.899C186.21 168.957 185.57 169.303 185.069 169.937C184.712 170.388 184.503 170.842 184.44 171.3C184.376 171.758 184.404 172.224 184.522 172.698L183.299 172.997C182.833 171.613 183.094 170.295 184.082 169.045ZM190.895 174.174C191.302 173.659 191.455 173.078 191.355 172.431C191.258 171.787 190.905 171.157 190.295 170.54L187.34 174.277L187.437 174.353C188.114 174.829 188.753 175.05 189.354 175.017C189.96 174.988 190.473 174.707 190.895 174.174Z" fill="white"></path> <path d="M181.773 184.126L183.979 181.822L178.062 176.157L179.186 174.983L185.103 180.647L187.267 178.387L188.22 179.299L182.725 185.038L181.773 184.126Z" fill="white"></path> <path d="M171.78 181.821C172.755 180.978 173.824 180.612 174.988 180.721C176.155 180.836 177.202 181.429 178.13 182.502L178.325 182.728C178.942 183.442 179.356 184.195 179.569 184.987C179.78 185.788 179.778 186.556 179.563 187.292C179.347 188.037 178.953 188.656 178.381 189.15C177.445 189.959 176.452 190.279 175.401 190.111C174.349 189.943 173.328 189.285 172.335 188.137L171.893 187.625L176.767 183.412C176.136 182.718 175.434 182.322 174.66 182.224C173.886 182.135 173.193 182.354 172.581 182.883C172.146 183.258 171.855 183.665 171.707 184.103C171.559 184.541 171.498 185.004 171.525 185.492L170.268 185.556C170.07 184.108 170.574 182.863 171.78 181.821ZM177.507 188.139C178.004 187.71 178.263 187.168 178.286 186.514C178.313 185.863 178.084 185.178 177.601 184.457L173.997 187.572L174.077 187.665C174.653 188.26 175.239 188.597 175.835 188.678C176.436 188.763 176.993 188.584 177.507 188.139Z" fill="white"></path> <path d="M166.054 183.406L167.172 183.358C167.192 184.303 167.437 185.108 167.907 185.774L168.787 186.948L167.515 187.902L166.75 186.883C166.395 186.409 166.157 185.848 166.036 185.199C165.911 184.553 165.917 183.955 166.054 183.406Z" fill="white"></path> <path d="M154.585 193.816L156.001 193L157.721 195.986C158.247 195.466 158.835 195.02 159.484 194.645C160.515 194.052 161.454 193.862 162.302 194.078C163.144 194.296 163.851 194.889 164.423 195.858L165.839 198.318L164.43 199.13L162.987 196.624C162.254 195.41 161.309 195.136 160.151 195.803C159.501 196.177 158.913 196.624 158.387 197.143L160.747 201.241L159.331 202.057L154.585 193.816Z" fill="white"></path> <path d="M149.61 205.194L152.51 203.865L149.096 196.419L150.574 195.741L153.988 203.187L156.832 201.883L157.382 203.081L150.16 206.393L149.61 205.194Z" fill="white"></path> <path d="M146.96 202.668C147.261 203.55 147.36 204.401 147.256 205.223C147.147 206.046 146.85 206.755 146.365 207.347C145.875 207.942 145.233 208.374 144.44 208.645C143.214 209.063 142.08 208.977 141.036 208.386C139.987 207.797 139.222 206.798 138.741 205.389L138.704 205.281C138.405 204.405 138.306 203.56 138.405 202.746C138.502 201.939 138.797 201.235 139.291 200.633C139.779 200.033 140.429 199.594 141.238 199.318C142.458 198.902 143.593 198.988 144.642 199.577C145.686 200.168 146.446 201.162 146.923 202.56L146.96 202.668ZM145.35 203.013C145.01 202.015 144.506 201.292 143.839 200.845C143.167 200.399 142.443 200.309 141.667 200.574C140.885 200.841 140.368 201.358 140.116 202.125C139.866 202.897 139.929 203.836 140.306 204.939C140.642 205.926 141.151 206.644 141.83 207.093C142.506 207.55 143.232 207.646 144.008 207.381C144.768 207.121 145.278 206.61 145.537 205.847C145.797 205.083 145.734 204.139 145.35 203.013Z" fill="white"></path> <path d="M130.965 203.822L130.525 204.599C130.036 205.513 129.883 206.786 130.067 208.418L130.545 212.188L124.503 213.197L123.154 205.127L121.949 205.328L121.27 201.262L122.874 200.994L123.335 203.751L129.88 202.658L129.419 199.901L131.023 199.633L131.693 203.7L130.965 203.822ZM129.067 204.139L124.758 204.859L125.859 211.447L128.746 210.965L128.467 208.712C128.254 206.829 128.453 205.305 129.067 204.139Z" fill="white"></path> <path d="M116.51 204.165C117.797 204.085 118.87 204.442 119.729 205.234C120.588 206.032 121.062 207.139 121.149 208.554L121.168 208.852C121.226 209.794 121.099 210.644 120.788 211.403C120.472 212.168 120.004 212.778 119.387 213.233C118.764 213.694 118.075 213.948 117.32 213.995C116.086 214.071 115.102 213.724 114.368 212.953C113.633 212.183 113.219 211.04 113.126 209.525L113.084 208.85L119.514 208.452C119.433 207.518 119.114 206.778 118.558 206.231C117.996 205.69 117.311 205.445 116.504 205.495C115.931 205.53 115.453 205.677 115.07 205.936C114.687 206.194 114.358 206.526 114.083 206.93L113.045 206.219C113.764 204.948 114.92 204.263 116.51 204.165ZM117.238 212.661C117.893 212.621 118.428 212.347 118.843 211.84C119.258 211.339 119.492 210.655 119.544 209.789L114.789 210.083L114.797 210.206C114.894 211.028 115.156 211.651 115.582 212.077C116.007 212.509 116.56 212.703 117.238 212.661Z" fill="white"></path> <path d="M102.548 213.73L102.988 204.231L104.621 204.307L104.243 212.463L107.474 212.613L107.832 209.066C108.013 207.438 108.342 206.283 108.819 205.601C109.291 204.919 110.007 204.585 110.968 204.601L111.618 204.631L111.552 206.062L111.085 206.075C110.555 206.11 110.164 206.396 109.91 206.936C109.656 207.476 109.463 208.487 109.329 209.971L108.965 214.028L102.548 213.73Z" fill="white"></path> <path d="M94.6621 203.106C94.7268 203.305 94.7521 203.647 94.7382 204.131C95.603 203.467 96.5539 203.214 97.5909 203.371C98.5179 203.511 99.2403 203.887 99.7581 204.499C100.269 205.116 100.464 205.827 100.342 206.632C100.194 207.611 99.7082 208.314 98.8851 208.74C98.0554 209.172 96.9656 209.286 95.6157 209.081L94.0515 208.845L93.9397 209.583C93.8547 210.145 93.9552 210.617 94.2412 210.998C94.5264 211.385 94.9963 211.628 95.651 211.727C96.2245 211.813 96.7273 211.741 97.1593 211.51C97.5913 211.28 97.8384 210.958 97.9006 210.547L99.517 210.792C99.446 211.261 99.2125 211.688 98.8165 212.072C98.4139 212.462 97.9094 212.741 97.303 212.91C96.6909 213.078 96.043 213.111 95.3594 213.007C94.2761 212.843 93.4685 212.442 92.9368 211.805C92.4043 211.173 92.1983 210.38 92.3189 209.427L92.9738 205.099C93.1044 204.236 93.0982 203.533 92.9552 202.99L92.9763 202.851L94.6621 203.106ZM97.1446 204.735C96.6406 204.658 96.1429 204.717 95.6515 204.909C95.1602 205.101 94.7816 205.391 94.5157 205.777L94.2238 207.706L95.4838 207.897C97.4536 208.195 98.5257 207.768 98.7002 206.615C98.7764 206.111 98.668 205.691 98.375 205.357C98.0819 205.022 97.6718 204.815 97.1446 204.735Z" fill="white"></path> <path d="M82.3677 208.684L85.4624 209.46L87.4544 201.515L89.0316 201.91L87.0395 209.856L90.0745 210.616L89.7539 211.895L82.0471 209.963L82.3677 208.684Z" fill="white"></path> <path d="M79.3556 205.622L77.0274 204.798C76.0149 204.427 75.3051 203.878 74.8979 203.149C74.4906 202.421 74.4444 201.612 74.7591 200.723C75.0758 199.828 75.6338 199.217 76.433 198.891C77.2322 198.565 78.1454 198.584 79.1728 198.947L82.9675 200.29L79.7945 209.255L78.2617 208.713L79.3556 205.622ZM79.7984 204.371L80.9919 200.999L78.7135 200.192C78.139 199.989 77.6425 199.978 77.2241 200.159C76.8037 200.346 76.5025 200.696 76.3207 201.21C76.1448 201.707 76.1557 202.168 76.3536 202.592C76.544 203.02 76.9135 203.337 77.4619 203.544L79.7984 204.371Z" fill="white"></path> <path d="M64.5617 202.001L66.5471 203.932L65.5737 204.92L63.678 202.818L62.3467 205.534L61.1552 204.91L62.6547 202.233L59.8936 201.88L60.1545 200.509L62.9161 201.051L62.478 198.134L63.8267 197.907L64.1021 200.907L66.6486 199.452L67.2514 200.67L64.5617 202.001Z" fill="white"></path> <path d="M17.4012 109.662L4.6287 108.873L4.8868 104.697C4.97247 103.311 5.32338 102.288 5.93952 101.627C6.55602 100.961 7.4257 100.662 8.54856 100.732C9.14508 100.769 9.66386 100.971 10.1049 101.339C10.5401 101.706 10.8654 102.19 11.0807 102.79C11.3163 102.112 11.7184 101.591 12.2868 101.227C12.8498 100.857 13.5056 100.695 14.2542 100.741C15.4004 100.812 16.2781 101.239 16.8872 102.022C17.4963 102.805 17.7589 103.875 17.675 105.232L17.4012 109.662ZM11.5314 107.609L16.1281 107.893L16.2999 105.112C16.3484 104.328 16.1847 103.699 15.8091 103.224C15.4279 102.742 14.8805 102.479 14.1671 102.435C12.629 102.34 11.8083 103.129 11.7049 104.801L11.5314 107.609ZM10.1804 107.525L10.3377 104.981C10.3832 104.244 10.2353 103.645 9.89399 103.184C9.55303 102.717 9.06674 102.463 8.43514 102.424C7.73335 102.381 7.2119 102.554 6.8708 102.944C6.52384 103.334 6.32452 103.946 6.27283 104.783L6.11884 107.274L10.1804 107.525Z" fill="white"></path> <path d="M12.3372 95.7959L12.8092 93.3717C13.0267 92.3156 13.4657 91.5326 14.1262 91.0224C14.7866 90.5123 15.5798 90.3474 16.5058 90.5277C17.4375 90.7091 18.1236 91.171 18.5641 91.9134C19.0045 92.6557 19.1206 93.5618 18.9123 94.6316L18.143 98.5828L8.80856 96.7653L9.1193 95.1693L12.3372 95.7959ZM20.2427 87.7989L19.9302 89.4036L10.5958 87.5861L10.9082 85.9815L20.2427 87.7989ZM13.6399 96.0495L17.1511 96.7331L17.613 94.3607C17.7295 93.7625 17.6672 93.2699 17.4262 92.8827C17.1795 92.4944 16.7887 92.2482 16.2538 92.144C15.7362 92.0433 15.2821 92.122 14.8915 92.3802C14.4964 92.6316 14.237 93.0438 14.1136 93.6167L13.6399 96.0495Z" fill="white"></path> <path d="M17.5702 74.1239C17.1538 73.9659 16.7648 74 16.4032 74.2263C16.0361 74.4504 15.7476 74.8392 15.5376 75.3925C15.3339 75.9293 15.3031 76.4316 15.4453 76.8991C15.5895 77.3612 15.8506 77.664 16.2286 77.8075L15.6548 79.3194C14.8824 79.0263 14.3723 78.463 14.1246 77.6294C13.8769 76.7959 13.937 75.8943 14.305 74.9247C14.7 73.8839 15.2323 73.1583 15.9019 72.7481C16.566 72.3358 17.3117 72.2867 18.1389 72.6006C18.5388 72.7524 18.8601 73.0122 19.1028 73.38C19.3455 73.7479 19.4812 74.1911 19.51 74.7097C20.2536 73.8074 21.1403 73.5516 22.1702 73.9425C22.9864 74.2523 23.5133 74.8126 23.7508 75.6234C23.9883 76.4343 23.9075 77.3656 23.5083 78.4174C23.1195 79.4418 22.5491 80.1936 21.7969 80.6728C21.0414 81.1443 20.2363 81.218 19.3817 80.8937L19.9555 79.3817C20.3883 79.5459 20.8336 79.4956 21.2914 79.2306C21.7457 78.9581 22.0821 78.5342 22.3004 77.959C22.5207 77.3783 22.5643 76.859 22.431 76.4011C22.2977 75.9431 22.0174 75.633 21.5901 75.4709C21.0916 75.2817 20.6784 75.2972 20.3504 75.5174C20.019 75.7301 19.7337 76.1514 19.4946 76.7814L18.9177 78.3016L17.6358 77.8151L18.2627 76.1634C18.6282 75.1177 18.3974 74.4378 17.5702 74.1239Z" fill="white"></path> <path d="M29.1895 65.5609L28.452 67.01L24.8332 65.1681L22.8518 69.061L26.4705 70.9029L25.729 72.3598L17.2539 68.0461L17.9954 66.5892L21.669 68.459L23.6505 64.5661L19.9769 62.6963L20.7144 61.2472L29.1895 65.5609Z" fill="white"></path> <path d="M33.4854 58.6604C33.277 58.6373 32.9552 58.5199 32.5199 58.3082C32.7688 59.3693 32.6085 60.3402 32.039 61.2209C31.53 62.0082 30.8902 62.512 30.1196 62.7325C29.3474 62.9448 28.6193 62.8299 27.9353 62.3876C27.1038 61.8499 26.6629 61.1182 26.6125 60.1926C26.5604 59.2588 26.905 58.2186 27.6464 57.0722L28.5054 55.7437L27.8781 55.3381C27.4008 55.0294 26.9297 54.9272 26.4647 55.0312C25.9947 55.132 25.58 55.4604 25.2205 56.0164C24.9055 56.5036 24.7645 56.9915 24.7973 57.4802C24.8302 57.969 25.0213 58.3263 25.3706 58.5522L24.4829 59.925C24.0844 59.6672 23.7913 59.2789 23.6036 58.7598C23.4142 58.2326 23.3671 57.6579 23.4624 57.0357C23.5609 56.4086 23.7979 55.8048 24.1733 55.2242C24.7683 54.3041 25.4656 53.7328 26.2654 53.5103C27.0602 53.2846 27.8675 53.4228 28.6871 53.9249L32.3626 56.3016C33.0958 56.7757 33.7393 57.0592 34.2932 57.1522L34.4113 57.2286L33.4854 58.6604ZM30.9796 60.2533C31.2564 59.8252 31.4082 59.3477 31.4349 58.8207C31.4617 58.2938 31.3536 57.8297 31.1107 57.4284L29.4722 56.3689L28.7802 57.4391C27.6985 59.112 27.6472 60.265 28.6263 60.8982C29.0544 61.175 29.4813 61.2486 29.9069 61.1191C30.3325 60.9897 30.6901 60.701 30.9796 60.2533Z" fill="white"></path> <path d="M38.2835 52.4991C37.4767 53.5044 36.4912 54.0583 35.327 54.1608C34.1583 54.2596 33.021 53.8653 31.9152 52.9777L31.6821 52.7907C30.9464 52.2002 30.4025 51.5346 30.0505 50.7937C29.6975 50.0446 29.5605 49.2886 29.6395 48.5255C29.7176 47.7542 29.9931 47.0738 30.4662 46.4843C31.2401 45.5201 32.1591 45.0256 33.2234 45.0007C34.2877 44.9759 35.4116 45.4384 36.5952 46.3882L37.123 46.8118L33.0906 51.8362C33.8364 52.4047 34.5987 52.6671 35.3775 52.6235C36.1554 52.5717 36.7974 52.2304 37.3035 51.5998C37.6629 51.152 37.8759 50.6994 37.9425 50.2419C38.0091 49.7845 37.9852 49.3182 37.8706 48.8431L39.0954 48.5527C39.5517 49.9406 39.2811 51.2561 38.2835 52.4991ZM31.5081 47.3205C31.0974 47.8323 30.94 48.4122 31.036 49.0603C31.1274 49.7046 31.476 50.3375 32.0817 50.9589L35.0633 47.2437L34.9674 47.1667C34.2937 46.6862 33.6563 46.46 33.055 46.4884C32.4492 46.5131 31.9336 46.7904 31.5081 47.3205Z" fill="white"></path> <path d="M40.2518 37.8673L38.0372 40.1639L43.9336 45.8499L42.805 47.0204L36.9085 41.3343L34.7366 43.5866L33.7876 42.6715L39.3028 36.9522L40.2518 37.8673Z" fill="white"></path> <path d="M50.1972 40.1988C49.2188 41.0381 48.1481 41.4008 46.985 41.287C45.8181 41.1686 44.773 40.5714 43.8497 39.4952L43.6551 39.2684C43.0409 38.5524 42.6291 37.7979 42.4196 37.0048C42.2108 36.2035 42.2155 35.4351 42.4338 34.6997C42.6528 33.956 43.0491 33.3381 43.6228 32.8459C44.5611 32.0409 45.5556 31.7243 46.6062 31.8961C47.6568 32.0678 48.6762 32.7296 49.6643 33.8814L50.105 34.3951L45.2154 38.5899C45.8436 39.2861 46.5445 39.6846 47.318 39.7853C48.0921 39.8778 48.786 39.6608 49.3997 39.1343C49.8355 38.7604 50.1283 38.3548 50.2781 37.9175C50.4279 37.4801 50.4903 37.0174 50.4653 36.5294L51.7227 36.4697C51.9153 37.918 51.4068 39.161 50.1972 40.1988ZM44.4926 33.8599C43.9945 34.2872 43.7329 34.8281 43.7078 35.4828C43.6789 36.1329 43.9048 36.8192 44.3856 37.5416L48.001 34.4398L47.9209 34.3465C47.3474 33.7499 46.7626 33.4102 46.1664 33.3272C45.5664 33.2398 45.0085 33.4173 44.4926 33.8599Z" fill="white"></path> <path d="M56.339 38.2949L55.2207 38.3342C55.2077 37.3895 54.9687 36.5827 54.5036 35.9136L53.6316 34.733L54.9112 33.7878L55.6683 34.8129C56.0199 35.2889 56.2537 35.852 56.3697 36.5021C56.4904 37.1487 56.4801 37.7463 56.339 38.2949Z" fill="white"></path> <path d="M67.454 28.1757L66.0344 28.9863L64.326 25.9945C63.7982 26.5118 63.2086 26.9564 62.5573 27.3283C61.5244 27.9181 60.5847 28.1039 59.738 27.8856C58.8965 27.6644 58.1917 27.0683 57.6237 26.0971L56.2159 23.6319L57.6279 22.8256L59.0618 25.3366C59.7904 26.5535 60.7348 26.8306 61.8949 26.1682C62.5462 25.7962 63.1357 25.3516 63.6635 24.8343L61.3187 20.7281L62.7383 19.9175L67.454 28.1757Z" fill="white"></path> <path d="M72.6515 16.7175L69.7416 18.0258L73.1006 25.4968L71.6176 26.1636L68.2586 18.6926L65.4049 19.9756L64.8643 18.7732L72.1108 15.5151L72.6515 16.7175Z" fill="white"></path> <path d="M75.3316 19.1963C75.0373 18.3124 74.945 17.46 75.0546 16.6392C75.1698 15.8166 75.4721 15.1108 75.9615 14.5217C76.4565 13.9308 77.1015 13.5031 77.8965 13.2384C79.1251 12.8294 80.259 12.9244 81.2983 13.5233C82.3431 14.1203 83.1005 15.1249 83.5706 16.537L83.6067 16.6454C83.8991 17.5238 83.9923 18.3696 83.8864 19.183C83.7842 19.989 83.4837 20.6911 82.9851 21.2894C82.492 21.8859 81.8396 22.3192 81.0279 22.5894C79.8048 22.9965 78.6709 22.9016 77.6261 22.3045C76.5868 21.7057 75.834 20.7057 75.3677 19.3047L75.3316 19.1963ZM76.9437 18.8634C77.2769 19.8641 77.775 20.5907 78.4382 21.043C79.1069 21.4936 79.8304 21.5893 80.6087 21.3302C81.3926 21.0692 81.9135 20.5562 82.1713 19.791C82.4273 19.0203 82.3712 18.0818 82.0029 16.9755C81.6734 15.9859 81.1707 15.264 80.4945 14.8098C79.8221 14.3481 79.0967 14.2469 78.3184 14.506C77.5568 14.7595 77.0433 15.267 76.7781 16.0285C76.5128 16.7899 76.568 17.7349 76.9437 18.8634Z" fill="white"></path> <path d="M91.0528 18.1574L91.4962 17.3816C91.9887 16.4701 92.1463 15.1977 91.9689 13.5643L91.5051 9.79287L97.5512 8.8067L98.8685 16.8826L100.074 16.6859L100.738 20.7542L99.133 21.016L98.6831 18.2575L92.1339 19.3258L92.5838 22.0842L90.979 22.346L90.3241 18.2763L91.0528 18.1574ZM92.9525 17.8475L97.2637 17.1444L96.1884 10.5518L93.2998 11.0229L93.5694 13.2765C93.7758 15.1604 93.5701 16.6841 92.9525 17.8475Z" fill="white"></path> <path d="M105.325 17.8444C104.039 17.919 102.967 17.5585 102.111 16.7629C101.255 15.9615 100.785 14.853 100.703 13.4374L100.686 13.139C100.632 12.1973 100.761 11.3475 101.075 10.5898C101.395 9.82589 101.865 9.21763 102.484 8.76503C103.109 8.30624 103.799 8.05499 104.553 8.01126C105.787 7.93975 106.77 8.29071 107.502 9.06414C108.233 9.83758 108.643 10.9818 108.731 12.4969L108.77 13.1725L102.338 13.5451C102.416 14.4797 102.732 15.2215 103.286 15.7704C103.846 16.3132 104.529 16.5612 105.336 16.5144C105.91 16.4812 106.388 16.336 106.773 16.079C107.157 15.822 107.487 15.4918 107.763 15.0884L108.799 15.8031C108.074 17.0718 106.917 17.7522 105.325 17.8444ZM104.63 9.34496C103.975 9.38293 103.439 9.65462 103.023 10.16C102.605 10.6596 102.369 11.3424 102.314 12.2084L107.069 11.9328L107.062 11.81C106.968 10.9879 106.708 10.3632 106.285 9.93582C105.86 9.5026 105.309 9.30565 104.63 9.34496Z" fill="white"></path> <path d="M119.492 8.284L119.016 17.7818L117.383 17.6998L117.792 9.54506L114.562 9.38288L114.19 12.9283C114.003 14.5557 113.669 15.7094 113.189 16.3893C112.715 17.0695 111.998 17.4001 111.036 17.3812L110.387 17.3486L110.459 15.9178L110.926 15.906C111.455 15.8739 111.848 15.5886 112.104 15.0499C112.36 14.5113 112.557 13.5004 112.696 12.0172L113.076 7.96183L119.492 8.284Z" fill="white"></path> <path d="M127.202 18.8801C127.138 18.6804 127.114 18.3387 127.13 17.8549C126.262 18.5148 125.31 18.7643 124.274 18.6034C123.348 18.4596 122.627 18.0808 122.111 17.4672C121.602 16.8486 121.41 16.1369 121.535 15.3321C121.687 14.3536 122.176 13.6526 123 13.2292C123.832 12.8009 124.922 12.6915 126.271 12.9009L127.834 13.1436L127.949 12.4054C128.036 11.8437 127.937 11.3718 127.653 10.9897C127.369 10.6017 126.9 10.357 126.246 10.2554C125.673 10.1664 125.17 10.2365 124.737 10.4658C124.304 10.6951 124.056 11.0153 123.992 11.4264L122.376 11.1756C122.449 10.7066 122.684 10.2806 123.082 9.89755C123.486 9.50965 123.991 9.23236 124.598 9.06569C125.211 8.89992 125.859 8.87007 126.542 8.97614C127.625 9.14424 128.431 9.54806 128.96 10.1876C129.491 10.8214 129.693 11.6148 129.569 12.568L128.898 16.8931C128.764 17.7558 128.767 18.459 128.908 19.0027L128.887 19.1417L127.202 18.8801ZM124.726 17.2415C125.229 17.3198 125.727 17.2636 126.219 17.0732C126.711 16.8828 127.091 16.5948 127.358 16.2094L127.658 14.2813L126.398 14.0858C124.43 13.7802 123.356 14.2035 123.177 15.3557C123.099 15.8594 123.206 16.2792 123.498 16.6151C123.789 16.9509 124.199 17.1597 124.726 17.2415Z" fill="white"></path> <path d="M139.524 13.3018L136.433 12.5142L134.41 20.452L132.835 20.0506L134.857 12.1127L131.825 11.3403L132.15 10.0627L139.85 12.0242L139.524 13.3018Z" fill="white"></path> <path d="M143.014 16.4941L145.336 17.3356C146.346 17.714 147.051 18.2689 147.453 19.0003C147.855 19.7318 147.895 20.5409 147.574 21.4279C147.25 22.3203 146.688 22.9266 145.886 23.2468C145.084 23.5671 144.171 23.5415 143.147 23.1702L139.362 21.7986L142.603 12.8579L144.131 13.4119L143.014 16.4941ZM142.562 17.7418L141.343 21.1049L143.615 21.9284C144.188 22.1361 144.685 22.1508 145.105 21.9726C145.526 21.789 145.83 21.441 146.016 20.9287C146.195 20.4329 146.188 19.9721 145.993 19.5463C145.806 19.117 145.439 18.797 144.892 18.5863L142.562 17.7418Z" fill="white"></path> <path d="M157.952 20.2611L155.981 18.3153L156.962 17.3339L158.842 19.4504L160.193 16.7445L161.38 17.3766L159.861 20.0427L162.619 20.4163L162.348 21.7855L159.591 21.2232L160.007 24.1435L158.657 24.3605L158.404 21.3579L155.846 22.7942L155.253 21.5719L157.952 20.2611Z" fill="white"></path> <circle cx="111" cy="111" r="5" fill="white"></circle> </svg> 