<?xml version="1.0" encoding="UTF-8"?> <svg xmlns="http://www.w3.org/2000/svg" data-name="Layer 1" width="1000" height="750"> <rect id="backgroundrect" width="100%" height="100%" x="0" y="0" fill="none" stroke="none"></rect> <title>online_media</title> <g class="currentLayer" style=""> <title>Layer 1</title> <rect x="326.2990493774414" y="265.4171886444092" width="480" height="379" fill="#f2f2f2" id="svg_1" class="selected"></rect> <path d="M739.2990391723633,600.4171895599366 h-482 v-381 h482 zm-480,-2 h478 v-377 h-478 z" fill="#3f3d56" id="svg_2" class="selected"></path> <rect x="39.58601188659668" y="717.715742111206" width="556.1075439453125" height="2.3613901138305664" fill="#3f3d56" id="svg_3" class="selected"></rect> <polygon points="431.29911041259766,522.7868785858154 431.01810455322266,324.78687858581543 655.158088684082,423.46986198425293 431.29911041259766,522.7868785858154 " fill="#d0cde1" id="svg_4" class="selected"></polygon> <path d="M385.7741491723633,333.3995795599365 s21.11655,-23.72955 25.50109,-14.68655 s-21.46113,22.79079 -21.46113,22.79079 z" fill="#a0616a" id="svg_5" class="selected"></path> <path d="M396.8290691723633,343.18714955993653 s-9.39,3.45 -12.11,7.6400000000000015 c-2.72,4.2 -11.77,8.58 -11.77,8.58 l-0.79,0.4700000000000001 l-8.54,5.09 l-11.19,6.66 l-35.42,21.1 l-46.75,18.72 c-0.3600000000000001,-6.53 -0.7100000000000002,-13.06 -1.04,-19.24 c-0.1,-1.85 -0.12000000000000002,-3.6900000000000004 -0.08000000000000003,-5.53 c0.5900000000000002,-0.18000000000000005 1.19,-0.3400000000000002 1.8,-0.4700000000000001 c13.82995,-2.95 19.71,-7.24 19.71,-7.24 l27.04,-16.31 s21.23,-13.53 34.7,-19.88 c1.8899500000000002,-0.9 3.6299400000000004,-1.6500000000000004 5.12994,-2.2 c12.2,-4.48 31.92005,-11.72 31.92005,-11.72 l0.23,0.45 l4.88,9.45 z" fill="#d0cde1" id="svg_6" class="selected"></path> <path d="M396.8290691723633,343.18714955993653 s-9.39,3.45 -12.11,7.6400000000000015 c-2.72,4.2 -11.77,8.58 -11.77,8.58 l-0.79,0.4700000000000001 l-8.54,5.09 l-11.19,6.66 l-35.42,21.1 l-46.75,18.72 c-0.3600000000000001,-6.53 -0.7100000000000002,-13.06 -1.04,-19.24 c-0.1,-1.85 -0.12000000000000002,-3.6900000000000004 -0.08000000000000003,-5.53 c0.5900000000000002,-0.18000000000000005 1.19,-0.3400000000000002 1.8,-0.4700000000000001 c13.82995,-2.95 19.71,-7.24 19.71,-7.24 l27.04,-16.31 s21.23,-13.53 34.7,-19.88 c1.8899500000000002,-0.9 3.6299400000000004,-1.6500000000000004 5.12994,-2.2 c12.2,-4.48 31.92005,-11.72 31.92005,-11.72 l0.23,0.45 l4.88,9.45 z" opacity="0.1" id="svg_7" class="selected"></path> <polygon points="389.43912506103516,522.5758800506592 389.1591262817383,324.5758800506592 613.2991409301758,423.2578868865967 389.43912506103516,522.5758800506592 " fill="#3c71fb" id="svg_8" class="selected"></polygon> <polygon points="598.9771194458008,416.9528636932373 389.4211196899414,509.92387199401855 389.43912506103516,522.5758800506592 613.2991409301758,423.2578868865967 598.9771194458008,416.9528636932373 " opacity="0.2" id="svg_9" class="selected"></polygon> <polygon points="326.79911041259766,685.9168529510498 326.79911041259766,706.9168529510498 342.79911041259766,706.9168529510498 340.79911041259766,684.9168529510498 326.79911041259766,685.9168529510498 " fill="#a0616a" id="svg_10" class="selected"></polygon> <polygon points="264.79911041259766,684.9168529510498 259.79911041259766,708.9168529510498 279.79911041259766,709.9168529510498 279.79911041259766,684.9168529510498 264.79911041259766,684.9168529510498 " fill="#a0616a" id="svg_11" class="selected"></polygon> <path d="M272.7990391723633,494.91718955993656 s-5,-2 -6,16 s-2,80 -2,80 s-10,55 -6,71 s4,27 4,27 h18 l1,-10 l1,-27 s10,-25 7,-48 l24,-73 l12,78 s-5,19 -4,39 s1,46 1,46 l20,-2 l16,-94 s9,-94 0,-99 S272.7990391723633,494.91718955993656 272.7990391723633,494.91718955993656 z" fill="#2f2e41" id="svg_12" class="selected"></path> <path d="M332.7990391723633,699.9171895599366 s-9,-12 -13,-3 s-13,21 -6,27 s16,8 19,6 s34,-18 34,-18 s6,-17 -6,-18 s-16,-4 -16,-4 z" fill="#2f2e41" id="svg_13" class="selected"></path> <path d="M263.7990391723633,702.9171895599366 s0,-10 -4,-7 s-7,16 -7,16 s-24,19 -1,19 s38,4 36,-5 s-5,-24 -5,-24 S272.7990391723633,688.9171895599366 263.7990391723633,702.9171895599366 z" fill="#2f2e41" id="svg_14" class="selected"></path> <circle cx="326.7990493774414" cy="296.9171886444092" r="25" fill="#a0616a" id="svg_15" class="selected"></circle> <path d="M307.2990391723633,305.4171895599365 s-4,29 -10,33 s40,5 40,5 s-3,-23 0,-29 z" fill="#a0616a" id="svg_16" class="selected"></path> <path d="M385.7990391723633,503.91718955993656 s15,28 5,29 s-14,-28 -14,-28 z" fill="#a0616a" id="svg_17" class="selected"></path> <path d="M303.70144917236325,315.0707995599365 a18.6529,18.6529 0 0 0 22.68218,-5.04267 c3.36353,-4.396 5.31377,-10.79729 10.67748,-12.16417 c3.50189,-0.8924200000000002 7.5404,0.7918200000000002 10.66715,-1.02011 c5.83465,-3.38115 1.73691,-14.09869 7.15461,-18.11416 a9.29624,9.29624 0 0 1 -9.145,-8.6456 c-0.1385,1.8719200000000005 -2.5995,2.71089 -4.39492,2.16341 s-3.20509,-1.92838 -4.88141,-2.7728900000000003 c-2.92887,-1.47554 -6.39492,-1.20688 -9.66037,-0.90305 c-8.34408,0.77637 -17.34672,1.83575 -23.47627,7.55021 c-5.75962,5.36958 -7.67431,13.95588 -6.55262,21.74994 s3.10225,10.35234 7.29449,17.018 z" fill="#2f2e41" id="svg_18" class="selected"></path> <path d="M365.7990391723633,348.9171895599365 l-0.14,1 l-2.04,15.05 l-8.37,61.66 l-0.45,3.29 s0.99,2.41 2.23,6.25 c2.1,6.47 4.94,17 5.05,26.92 a44.75658,44.75658 0 0 1 -0.28,5.83 c-1.5,12.75 -1.8800000000000003,25.5 -1.97,31.08 c-0.030000000000000013,1.86 -0.030000000000000013,2.92 -0.030000000000000013,2.92 l-91,-3 a41.92906,41.92906 0 0 0 1.51,-3.92 a71.82288,71.82288 0 0 0 3.49,-30.08 c-0.8900000000000002,-8.46 -2.2800000000000002,-31.51 -3.54,-54.47 c-0.3600000000000001,-6.53 -0.7100000000000002,-13.06 -1.04,-19.24 c-0.1,-1.85 -0.12000000000000002,-3.6900000000000004 -0.08000000000000003,-5.53 a73.41293,73.41293 0 0 1 27.66,-55.76 s1.84,0.08000000000000003 4.74,0.25 c9.12,0.53 28.76,1.9100000000000001 34.93,4.18 a7.41422,7.41422 0 0 1 0.8300000000000002,0.3500000000000001 c2.98,1.47 9.21,4.38 15.09,7.08 C359.3390191723633,345.9771895599365 365.7990391723633,348.9171895599365 365.7990391723633,348.9171895599365 z" fill="#d0cde1" id="svg_19" class="selected"></path> <path d="M351.7990391723633,349.9171895599365 h14 s12,14 10,28 s0,21 0,21 l6,31 s7,32 7,45 v34 l-16,2 s0,-10 -3,-14 s-4,-14 -4,-14 l-12,-64 z" fill="#d0cde1" id="svg_20" class="selected"></path> <rect x="-14.368797302246094" y="452.9162120819092" width="30.912599563598633" height="29.84222984313965" transform="rotate(-21.144189834594727 -242.10234069824224,42.06341171264654) " fill="#3c71fb" id="svg_21" class="selected"></rect> <path d="M152.88643917236328,357.59602955993654 L122.53758917236328,369.33357955993654 l-11.33113,-29.298000000000002 l30.34887,-11.73756 zm-29.398,9.68578 l27.314,-10.5638 l-10.198,-26.36822 l-27.314,10.5638 z" fill="#3f3d56" id="svg_22" class="selected"></path> <rect x="1695.7357177734375" y="-689.7540283203125" width="30.912599563598633" height="29.84222984313965" transform="rotate(71.02706146240234 732.3227539062501,-880.656494140625) " fill="#3c71fb" id="svg_23"></rect> <path d="M867.2833991723633,145.84416955993652 l-10.57932,-30.77178 l29.70627,-10.213 l10.57933,30.77178 zm-8.565,-29.74384 l9.52139,27.6946 l26.73565,-9.1917 l-9.52139,-27.6946 z" fill="#3f3d56" id="svg_24" class="selected"></path> <path d="M102.53863917236328,719.2221795599365 l-1.26718,-0.4750000000000001 c-0.2784500000000001,-0.10493000000000002 -27.99251,-10.72311 -40.975,-34.79939 c-12.983,-24.07742 -6.62585,-53.06672 -6.56012,-53.35613 l0.2992100000000001,-1.32021 l1.2665899999999999,0.4750000000000001 c0.2784600000000001,0.10493000000000002 27.99194,10.72312 40.975,34.79939 c12.983,24.07742 6.62584,53.06672 6.56012,53.35613 zM62.37538917236327,682.8270195599365 c10.9762,20.35662 32.87672,30.79147 38.42564,33.17362 c1.055,-5.94729 4.36362,-29.99705 -6.60278,-50.33406 c-10.96525,-20.33472 -32.87442,-30.78572 -38.42565,-33.17363 C54.71700917236328,638.4437095599366 51.40958917236327,662.4911495599365 62.37538917236327,682.8270195599365 z" fill="#3f3d56" id="svg_25" class="selected"></path> <path d="M70.21809917236328,675.5021795599365 c23.33121,14.03683 32.31679,41.91784 32.31679,41.91784 s-28.84178,5.12282 -52.173,-8.914 s-32.31679,-41.91784 -32.31679,-41.91784 S46.88688917236328,661.4653495599365 70.21809917236328,675.5021795599365 z" fill="#3c71fb" id="svg_26" class="selected"></path> <rect x="39.17208290100098" y="44.61009216308594" width="933" height="2" fill="#3f3d56" id="svg_27" class="selected"></rect> <circle cx="58.23330307006836" cy="28.610092163085938" r="9.061220169067383" fill="#3f3d56" id="svg_28" class="selected"></circle> <circle cx="86.17208099365234" cy="28.610092163085938" r="9.061220169067383" fill="#3f3d56" id="svg_29" class="selected"></circle> <circle cx="114.11085510253906" cy="28.610092163085938" r="9.061220169067383" fill="#3f3d56" id="svg_30" class="selected"></circle> <rect x="385.52490997314453" y="113.00330924987793" width="213.40345764160156" height="2.39778995513916" fill="#3f3d56" id="svg_31" class="selected"></rect> <rect x="385.52490997314453" y="129.78785514831543" width="213.40345764160156" height="2.39778995513916" fill="#3f3d56" id="svg_32" class="selected"></rect> <rect x="385.52490997314453" y="146.57240104675293" width="213.40345764160156" height="2.39778995513916" fill="#3f3d56" id="svg_33" class="selected"></rect> </g> </svg> 